<svg width="18" height="18" viewBox="0 0 18 18" fill="none" xmlns="http://www.w3.org/2000/svg">
<path d="M9 15.7499C8.0527 14.9419 7.17464 14.0561 6.375 13.1017C5.175 11.6684 3.75 9.53395 3.75 7.49995C3.74948 6.46117 4.05713 5.44558 4.63402 4.58172C5.21091 3.71785 6.0311 3.04454 6.9908 2.647C7.9505 2.24945 9.00656 2.14554 10.0253 2.34842C11.0441 2.55129 11.9798 3.05183 12.714 3.7867C13.2028 4.27334 13.5903 4.8521 13.8539 5.48948C14.1176 6.12685 14.2522 6.81019 14.25 7.49995C14.25 9.53395 12.825 11.6684 11.625 13.1017C10.8254 14.0561 9.94729 14.9419 9 15.7499ZM9 5.24995C8.40326 5.24995 7.83097 5.487 7.40901 5.90896C6.98705 6.33091 6.75 6.90321 6.75 7.49995C6.75 8.09668 6.98705 8.66898 7.40901 9.09094C7.83097 9.51289 8.40326 9.74995 9 9.74995C9.59674 9.74995 10.169 9.51289 10.591 9.09094C11.0129 8.66898 11.25 8.09668 11.25 7.49995C11.25 6.90321 11.0129 6.33091 10.591 5.90896C10.169 5.487 9.59674 5.24995 9 5.24995Z" fill="white" fill-opacity="0.5"/>
</svg>
