<svg width="474" height="109" viewBox="0 0 474 109" fill="none" xmlns="http://www.w3.org/2000/svg">
<path d="M124.14 36.6182C127.311 35.3816 128.909 31.7873 127.319 28.7784C122.487 19.6315 115.105 12.0233 106.01 6.91603C95.116 0.798608 82.4377 -1.35216 70.1356 0.830203C57.8334 3.01256 46.6685 9.39301 38.5433 18.8844C30.4181 28.3758 25.8352 40.3909 25.5756 52.8824C25.316 65.3739 29.3957 77.569 37.1196 87.3898C44.8434 97.2106 55.7336 104.049 67.9344 106.741C80.1353 109.433 92.892 107.81 104.031 102.151C113.33 97.426 121.022 90.131 126.23 81.1928C127.943 78.2525 126.496 74.595 123.379 73.2276C120.263 71.8603 116.665 73.3105 114.854 76.1913C110.861 82.542 105.205 87.7318 98.4488 91.1642C89.8517 95.5323 80.006 96.7843 70.5893 94.7069C61.1725 92.6295 52.7675 87.3513 46.8061 79.7715C40.8448 72.1918 37.6961 62.7795 37.8964 53.1385C38.0968 43.4974 41.6339 34.2241 47.905 26.8986C54.1761 19.5731 62.7932 14.6486 72.2881 12.9642C81.783 11.2799 91.5682 12.9398 99.9763 17.6613C106.584 21.3715 112.019 26.7918 115.745 33.3029C117.435 36.2565 120.97 37.8549 124.14 36.6182Z" fill="white"/>
<path d="M7.24909 39.0391H13.2437C16.5326 39.0391 19.1847 41.732 19.1344 45.0206L18.6489 76.7616C18.6195 78.682 20.1683 80.2546 22.089 80.2546C23.9891 80.2546 25.5294 81.795 25.5294 83.6951V84.1944C25.5294 86.3702 23.7655 88.1341 21.5897 88.1341H19.2259H7.24909H4.88526C2.70941 88.1341 0.945534 86.3702 0.945534 84.1944V83.4064C0.945534 81.6657 2.35663 80.2546 4.09731 80.2546C5.83799 80.2546 7.24909 78.8435 7.24909 77.1029V50.8461C7.24909 48.8443 5.62633 47.2216 3.62455 47.2216C1.62277 47.2216 0 45.5988 0 43.597L0 43.2818C0 40.9386 1.89956 39.0391 4.24278 39.0391H7.24909Z" fill="white"/>
<circle cx="12.8971" cy="26.2747" r="6.8733" fill="white"/>
<path d="M168.529 45.86C168.005 46.3837 167.376 46.6455 166.643 46.6455C165.91 46.6455 165.269 46.3837 164.719 45.86C164.195 45.3102 163.933 44.6686 163.933 43.9355C163.933 43.2023 164.195 42.5739 164.719 42.0502C165.242 41.5004 165.884 41.2254 166.643 41.2254C167.403 41.2254 168.044 41.5004 168.568 42.0502C169.091 42.5739 169.353 43.2023 169.353 43.9355C169.353 44.6686 169.078 45.3102 168.529 45.86ZM168.764 69.2292H164.522V49.5912H168.764V69.2292ZM184.647 49.5912V53.6759H179.777V63.1022C179.777 63.9139 179.96 64.503 180.327 64.8696C180.694 65.21 181.23 65.4064 181.937 65.4588C182.67 65.4849 183.574 65.4718 184.647 65.4195V69.2292C181.401 69.622 179.07 69.3471 177.656 68.4045C176.242 67.4356 175.535 65.6682 175.535 63.1022V53.6759H171.922V49.5912H175.535V45.3494L179.777 44.0926V49.5912H184.647ZM201.962 69.7398C197.825 69.7398 194.394 68.3783 191.671 65.6551C188.948 62.8796 187.587 59.4888 187.587 55.4826C187.587 51.4503 188.948 48.0726 191.671 45.3494C194.368 42.6001 197.798 41.2254 201.962 41.2254C204.449 41.2254 206.74 41.8146 208.835 42.9929C210.956 44.1711 212.605 45.7684 213.784 47.7845L209.856 50.0626C209.123 48.701 208.049 47.6274 206.635 46.8419C205.248 46.0302 203.69 45.6244 201.962 45.6244C199.055 45.6244 196.672 46.5539 194.813 48.413C193.007 50.2458 192.103 52.6024 192.103 55.4826C192.103 58.3629 193.007 60.7194 194.813 62.5523C196.672 64.4114 199.055 65.3409 201.962 65.3409C203.69 65.3409 205.261 64.9482 206.675 64.1626C208.089 63.3509 209.149 62.2643 209.856 60.9027L213.784 63.1415C212.658 65.1315 211.021 66.7418 208.874 67.9724C206.806 69.1507 204.501 69.7398 201.962 69.7398ZM233.837 66.7549C231.847 68.7448 229.398 69.7398 226.492 69.7398C223.586 69.7398 221.137 68.7448 219.147 66.7549C217.131 64.7387 216.123 62.2905 216.123 59.4102C216.123 56.53 217.131 54.0818 219.147 52.0656C221.137 50.0756 223.586 49.0807 226.492 49.0807C229.398 49.0807 231.847 50.0756 233.837 52.0656C235.853 54.0818 236.861 56.53 236.861 59.4102C236.861 62.2905 235.853 64.7387 233.837 66.7549ZM220.365 59.4102C220.365 61.1908 220.954 62.6702 222.132 63.8484C223.311 65.0267 224.764 65.6159 226.492 65.6159C228.22 65.6159 229.673 65.0267 230.852 63.8484C232.03 62.6702 232.619 61.1908 232.619 59.4102C232.619 57.6297 232.03 56.1503 230.852 54.9721C229.673 53.7938 228.22 53.2046 226.492 53.2046C224.764 53.2046 223.311 53.7938 222.132 54.9721C220.954 56.1503 220.365 57.6297 220.365 59.4102ZM251.026 49.0807C253.304 49.0807 255.124 49.8138 256.485 51.2801C257.873 52.7202 258.567 54.684 258.567 57.1715V69.2292H254.325V57.6035C254.325 56.1372 253.932 55.0113 253.147 54.2258C252.361 53.4403 251.288 53.0475 249.926 53.0475C248.381 53.0475 247.164 53.5319 246.274 54.5007C245.383 55.4434 244.938 56.8442 244.938 58.7033V69.2292H240.696V49.5912H244.938V52.1049C246.247 50.0887 248.277 49.0807 251.026 49.0807ZM274.092 49.5912V53.6759H269.222V63.1022C269.222 63.9139 269.405 64.503 269.772 64.8696C270.139 65.21 270.675 65.4064 271.382 65.4588C272.115 65.4849 273.019 65.4718 274.092 65.4195V69.2292C270.846 69.622 268.515 69.3471 267.101 68.4045C265.687 67.4356 264.98 65.6682 264.98 63.1022V53.6759H261.367V49.5912H264.98V45.3494L269.222 44.0926V49.5912H274.092ZM281.946 45.86C281.422 46.3837 280.794 46.6455 280.06 46.6455C279.327 46.6455 278.686 46.3837 278.136 45.86C277.612 45.3102 277.35 44.6686 277.35 43.9355C277.35 43.2023 277.612 42.5739 278.136 42.0502C278.66 41.5004 279.301 41.2254 280.06 41.2254C280.82 41.2254 281.461 41.5004 281.985 42.0502C282.509 42.5739 282.77 43.2023 282.77 43.9355C282.77 44.6686 282.496 45.3102 281.946 45.86ZM282.181 69.2292H277.94V49.5912H282.181V69.2292ZM297.436 49.0807C299.714 49.0807 301.534 49.8138 302.895 51.2801C304.283 52.7202 304.977 54.684 304.977 57.1715V69.2292H300.735V57.6035C300.735 56.1372 300.343 55.0113 299.557 54.2258C298.771 53.4403 297.698 53.0475 296.336 53.0475C294.791 53.0475 293.574 53.5319 292.684 54.5007C291.793 55.4434 291.348 56.8442 291.348 58.7033V69.2292H287.106V49.5912H291.348V52.1049C292.658 50.0887 294.687 49.0807 297.436 49.0807ZM328.515 61.2169H312.883C313.197 62.6832 313.904 63.8222 315.004 64.634C316.13 65.4457 317.517 65.8515 319.167 65.8515C321.393 65.8515 323.082 65.0398 324.234 63.4164L327.729 65.4588C325.818 68.3128 322.951 69.7398 319.128 69.7398C315.96 69.7398 313.38 68.771 311.39 66.8334C309.427 64.8696 308.445 62.3952 308.445 59.4102C308.445 56.5038 309.414 54.0556 311.351 52.0656C313.263 50.0756 315.75 49.0807 318.814 49.0807C321.668 49.0807 324.024 50.0887 325.883 52.1049C327.742 54.1211 328.672 56.5693 328.672 59.4495C328.672 59.9732 328.619 60.5623 328.515 61.2169ZM312.844 57.7607H324.391C324.103 56.2158 323.448 55.0244 322.427 54.1865C321.432 53.3486 320.214 52.9297 318.774 52.9297C317.203 52.9297 315.894 53.3617 314.847 54.2258C313.799 55.0899 313.132 56.2682 312.844 57.7607ZM342.734 49.0807C345.012 49.0807 346.832 49.8138 348.193 51.2801C349.581 52.7202 350.275 54.684 350.275 57.1715V69.2292H346.033V57.6035C346.033 56.1372 345.64 55.0113 344.855 54.2258C344.069 53.4403 342.996 53.0475 341.634 53.0475C340.089 53.0475 338.872 53.5319 337.982 54.5007C337.091 55.4434 336.646 56.8442 336.646 58.7033V69.2292H332.404V49.5912H336.646V52.1049C337.955 50.0887 339.985 49.0807 342.734 49.0807ZM365.8 49.5912V53.6759H360.93V63.1022C360.93 63.9139 361.113 64.503 361.48 64.8696C361.847 65.21 362.383 65.4064 363.09 65.4588C363.823 65.4849 364.727 65.4718 365.8 65.4195V69.2292C362.553 69.622 360.223 69.3471 358.809 68.4045C357.395 67.4356 356.688 65.6682 356.688 63.1022V53.6759H353.075V49.5912H356.688V45.3494L360.93 44.0926V49.5912H365.8ZM384.395 52.3798V49.5912H388.637V69.2292H384.395V66.4014C382.798 68.627 380.507 69.7398 377.522 69.7398C374.825 69.7398 372.521 68.7448 370.609 66.7549C368.698 64.7649 367.742 62.3167 367.742 59.4102C367.742 56.5038 368.698 54.0556 370.609 52.0656C372.521 50.0756 374.825 49.0807 377.522 49.0807C380.507 49.0807 382.798 50.1804 384.395 52.3798ZM373.752 63.927C374.93 65.1053 376.409 65.6944 378.19 65.6944C379.97 65.6944 381.45 65.1053 382.628 63.927C383.806 62.7225 384.395 61.2169 384.395 59.4102C384.395 57.6035 383.806 56.1111 382.628 54.9328C381.45 53.7283 379.97 53.1261 378.19 53.1261C376.409 53.1261 374.93 53.7283 373.752 54.9328C372.573 56.1111 371.984 57.6035 371.984 59.4102C371.984 61.1908 372.573 62.6963 373.752 63.927ZM397.823 69.2292H393.581V40.5578H397.823V69.2292ZM405.301 63.8092C406.113 63.8092 406.807 64.0972 407.383 64.6732C407.959 65.2493 408.247 65.9432 408.247 66.7549C408.247 67.5666 407.959 68.2604 407.383 68.8365C406.807 69.4125 406.113 69.7006 405.301 69.7006C404.49 69.7006 403.796 69.4125 403.22 68.8365C402.644 68.2604 402.356 67.5666 402.356 66.7549C402.356 65.9432 402.63 65.2493 403.18 64.6732C403.756 64.0972 404.463 63.8092 405.301 63.8092ZM423.874 49.0807C426.545 49.0807 428.849 50.0887 430.787 52.1049C432.698 54.0949 433.654 56.53 433.654 59.4102C433.654 62.3167 432.698 64.7649 430.787 66.7549C428.875 68.7448 426.571 69.7398 423.874 69.7398C420.915 69.7398 418.624 68.6401 417.001 66.4407V77.0845H412.759V49.5912H417.001V52.4191C418.598 50.1935 420.889 49.0807 423.874 49.0807ZM418.768 63.927C419.947 65.1053 421.426 65.6944 423.206 65.6944C424.987 65.6944 426.466 65.1053 427.645 63.927C428.823 62.7225 429.412 61.2169 429.412 59.4102C429.412 57.6035 428.823 56.1111 427.645 54.9328C426.466 53.7283 424.987 53.1261 423.206 53.1261C421.426 53.1261 419.947 53.7283 418.768 54.9328C417.59 56.1111 417.001 57.6035 417.001 59.4102C417.001 61.1908 417.59 62.6963 418.768 63.927ZM441.74 49.5912V52.8904C442.814 50.4553 444.83 49.2378 447.789 49.2378V53.833C446.191 53.7283 444.778 54.1211 443.547 55.0113C442.342 55.8754 441.74 57.3155 441.74 59.3317V69.2292H437.498V49.5912H441.74ZM466.616 66.7549C464.626 68.7448 462.178 69.7398 459.271 69.7398C456.365 69.7398 453.917 68.7448 451.927 66.7549C449.911 64.7387 448.902 62.2905 448.902 59.4102C448.902 56.53 449.911 54.0818 451.927 52.0656C453.917 50.0756 456.365 49.0807 459.271 49.0807C462.178 49.0807 464.626 50.0756 466.616 52.0656C468.632 54.0818 469.64 56.53 469.64 59.4102C469.64 62.2905 468.632 64.7387 466.616 66.7549ZM453.144 59.4102C453.144 61.1908 453.733 62.6702 454.912 63.8484C456.09 65.0267 457.543 65.6159 459.271 65.6159C461 65.6159 462.453 65.0267 463.631 63.8484C464.809 62.6702 465.398 61.1908 465.398 59.4102C465.398 57.6297 464.809 56.1503 463.631 54.9721C462.453 53.7938 461 53.2046 459.271 53.2046C457.543 53.2046 456.09 53.7938 454.912 54.9721C453.733 56.1503 453.144 57.6297 453.144 59.4102Z" fill="white"/>
</svg>
