<svg width="134" height="22" viewBox="0 0 134 22" fill="none" xmlns="http://www.w3.org/2000/svg">
<path d="M25.0787 7.45865C25.7245 7.20675 26.05 6.47465 25.7262 5.86177C24.742 3.99867 23.2384 2.44898 21.3858 1.4087C19.1668 0.162666 16.5844 -0.275416 14.0786 0.169101C11.5729 0.613618 9.29872 1.91323 7.64372 3.8465C5.98872 5.77977 5.05525 8.22708 5.00237 10.7714C4.9495 13.3158 5.78048 15.7998 7.35372 17.8001C8.92697 19.8005 11.1451 21.1935 13.6303 21.7417C16.1155 22.29 18.7138 21.9595 20.9827 20.8068C22.8769 19.8444 24.4435 18.3585 25.5043 16.5379C25.8533 15.939 25.5585 15.194 24.9237 14.9155C24.289 14.637 23.5561 14.9324 23.1872 15.5192C22.3738 16.8127 21.2217 17.8698 19.8457 18.5689C18.0945 19.4587 16.0891 19.7137 14.1711 19.2905C12.253 18.8674 10.541 17.7923 9.32675 16.2484C8.1125 14.7045 7.47115 12.7873 7.51196 10.8236C7.55277 8.85984 8.27323 6.97099 9.55057 5.47888C10.8279 3.98677 12.5831 2.98372 14.5171 2.64064C16.4511 2.29756 18.4442 2.63567 20.1568 3.59737C21.5026 4.35309 22.6098 5.45714 23.3687 6.78335C23.713 7.38497 24.4329 7.71054 25.0787 7.45865Z" fill="black"/>
<path d="M1.41975 8H2.53742C3.21269 8 3.7573 8.55268 3.74738 9.22788L3.65203 15.7111C3.6465 16.0872 3.94985 16.3951 4.32598 16.3951C4.69823 16.3951 5 16.6968 5 17.0691V17.1975C5 17.6407 4.64072 18 4.19753 18H3.76543H1.41975H0.987654C0.544463 18 0.185185 17.6407 0.185185 17.1975V17.0123C0.185185 16.6714 0.461553 16.3951 0.802469 16.3951C1.14339 16.3951 1.41975 16.1187 1.41975 15.7778V10.3765C1.41975 9.98449 1.10193 9.66667 0.709877 9.66667C0.317822 9.66667 0 9.34884 0 8.95679V8.8642C0 8.38691 0.386914 8 0.864197 8H1.41975Z" fill="black"/>
<circle cx="2.5" cy="5.5" r="1.5" fill="black"/>
<path d="M34.0965 8.51568C33.9271 8.68509 33.7238 8.7698 33.4866 8.7698C33.2494 8.7698 33.0419 8.68509 32.864 8.51568C32.6946 8.3378 32.6099 8.13027 32.6099 7.89309C32.6099 7.65592 32.6946 7.45262 32.864 7.28321C33.0334 7.10533 33.2409 7.01639 33.4866 7.01639C33.7322 7.01639 33.9398 7.10533 34.1092 7.28321C34.2786 7.45262 34.3633 7.65592 34.3633 7.89309C34.3633 8.13027 34.2744 8.3378 34.0965 8.51568ZM34.1727 16.0757H32.8005V9.72274H34.1727V16.0757ZM39.3109 9.72274V11.0442H37.7354V14.0936C37.7354 14.3562 37.7947 14.5467 37.9133 14.6653C38.0319 14.7754 38.2055 14.839 38.4342 14.8559C38.6714 14.8644 38.9637 14.8602 39.3109 14.8432V16.0757C38.2606 16.2027 37.5067 16.1138 37.0493 15.8089C36.5919 15.4954 36.3632 14.9237 36.3632 14.0936V11.0442H35.1942V9.72274H36.3632V8.35051L37.7354 7.94392V9.72274H39.3109ZM44.9122 16.2409C43.5738 16.2409 42.4642 15.8004 41.5832 14.9194C40.7023 14.0216 40.2618 12.9246 40.2618 11.6286C40.2618 10.3242 40.7023 9.23145 41.5832 8.35051C42.4557 7.46109 43.5653 7.01639 44.9122 7.01639C45.7169 7.01639 46.458 7.20698 47.1357 7.58815C47.8218 7.96933 48.3554 8.48604 48.7366 9.13827L47.466 9.87521C47.2289 9.43474 46.8816 9.08745 46.4242 8.83333C45.9752 8.57074 45.4712 8.43945 44.9122 8.43945C43.9719 8.43945 43.2011 8.74015 42.5997 9.34157C42.0152 9.93451 41.723 10.6969 41.723 11.6286C41.723 12.5604 42.0152 13.3227 42.5997 13.9157C43.2011 14.5171 43.9719 14.8178 44.9122 14.8178C45.4712 14.8178 45.9794 14.6907 46.4369 14.4366C46.8943 14.174 47.2373 13.8225 47.466 13.382L48.7366 14.1063C48.3724 14.75 47.843 15.271 47.1484 15.6691C46.4792 16.0503 45.7338 16.2409 44.9122 16.2409ZM55.2238 15.2752C54.58 15.919 53.788 16.2409 52.8478 16.2409C51.9075 16.2409 51.1155 15.919 50.4718 15.2752C49.8195 14.623 49.4934 13.831 49.4934 12.8992C49.4934 11.9674 49.8195 11.1754 50.4718 10.5232C51.1155 9.87945 51.9075 9.55757 52.8478 9.55757C53.788 9.55757 54.58 9.87945 55.2238 10.5232C55.876 11.1754 56.2021 11.9674 56.2021 12.8992C56.2021 13.831 55.876 14.623 55.2238 15.2752ZM50.8657 12.8992C50.8657 13.4752 51.0562 13.9538 51.4374 14.335C51.8186 14.7162 52.2887 14.9067 52.8478 14.9067C53.4068 14.9067 53.8769 14.7162 54.2581 14.335C54.6393 13.9538 54.8299 13.4752 54.8299 12.8992C54.8299 12.3232 54.6393 11.8446 54.2581 11.4634C53.8769 11.0823 53.4068 10.8917 52.8478 10.8917C52.2887 10.8917 51.8186 11.0823 51.4374 11.4634C51.0562 11.8446 50.8657 12.3232 50.8657 12.8992ZM60.7846 9.55757C61.5215 9.55757 62.1102 9.79474 62.5507 10.2691C62.9996 10.735 63.2241 11.3703 63.2241 12.175V16.0757H61.8519V12.3147C61.8519 11.8404 61.7248 11.4762 61.4707 11.222C61.2166 10.9679 60.8693 10.8409 60.4288 10.8409C59.9291 10.8409 59.5352 10.9976 59.2472 11.311C58.9592 11.6159 58.8152 12.0691 58.8152 12.6705V16.0757H57.4429V9.72274H58.8152V10.5359C59.2387 9.88368 59.8952 9.55757 60.7846 9.55757ZM68.2466 9.72274V11.0442H66.6711V14.0936C66.6711 14.3562 66.7304 14.5467 66.849 14.6653C66.9675 14.7754 67.1412 14.839 67.3699 14.8559C67.6071 14.8644 67.8993 14.8602 68.2466 14.8432V16.0757C67.1963 16.2027 66.4424 16.1138 65.985 15.8089C65.5275 15.4954 65.2988 14.9237 65.2988 14.0936V11.0442H64.1299V9.72274H65.2988V8.35051L66.6711 7.94392V9.72274H68.2466ZM70.7872 8.51568C70.6178 8.68509 70.4145 8.7698 70.1773 8.7698C69.9401 8.7698 69.7326 8.68509 69.5547 8.51568C69.3853 8.3378 69.3006 8.13027 69.3006 7.89309C69.3006 7.65592 69.3853 7.45262 69.5547 7.28321C69.7241 7.10533 69.9317 7.01639 70.1773 7.01639C70.423 7.01639 70.6305 7.10533 70.7999 7.28321C70.9693 7.45262 71.054 7.65592 71.054 7.89309C71.054 8.13027 70.9651 8.3378 70.7872 8.51568ZM70.8634 16.0757H69.4912V9.72274H70.8634V16.0757ZM75.7984 9.55757C76.5353 9.55757 77.124 9.79474 77.5645 10.2691C78.0134 10.735 78.2379 11.3703 78.2379 12.175V16.0757H76.8657V12.3147C76.8657 11.8404 76.7386 11.4762 76.4845 11.222C76.2304 10.9679 75.8831 10.8409 75.4426 10.8409C74.9428 10.8409 74.549 10.9976 74.261 11.311C73.973 11.6159 73.829 12.0691 73.829 12.6705V16.0757H72.4567V9.72274H73.829V10.5359C74.2525 9.88368 74.909 9.55757 75.7984 9.55757ZM85.8524 13.4837H80.7955C80.8971 13.958 81.1258 14.3265 81.4816 14.5891C81.8458 14.8517 82.2948 14.983 82.8284 14.983C83.5484 14.983 84.0948 14.7204 84.4675 14.1952L85.5983 14.8559C84.9799 15.7792 84.0524 16.2409 82.8157 16.2409C81.7908 16.2409 80.9564 15.9274 80.3126 15.3006C79.6773 14.6653 79.3597 13.8649 79.3597 12.8992C79.3597 11.959 79.6731 11.167 80.2999 10.5232C80.9183 9.87945 81.723 9.55757 82.714 9.55757C83.6373 9.55757 84.3997 9.88368 85.0011 10.5359C85.6025 11.1882 85.9032 11.9802 85.9032 12.9119C85.9032 13.0813 85.8863 13.2719 85.8524 13.4837ZM80.7828 12.3656H84.5183C84.4251 11.8658 84.2133 11.4804 83.883 11.2093C83.5611 10.9383 83.1672 10.8027 82.7013 10.8027C82.1931 10.8027 81.7696 10.9425 81.4308 11.222C81.0919 11.5016 80.8759 11.8827 80.7828 12.3656ZM90.4523 9.55757C91.1893 9.55757 91.778 9.79474 92.2184 10.2691C92.6674 10.735 92.8919 11.3703 92.8919 12.175V16.0757H91.5196V12.3147C91.5196 11.8404 91.3926 11.4762 91.1384 11.222C90.8843 10.9679 90.537 10.8409 90.0966 10.8409C89.5968 10.8409 89.2029 10.9976 88.9149 11.311C88.6269 11.6159 88.4829 12.0691 88.4829 12.6705V16.0757H87.1107V9.72274H88.4829V10.5359C88.9064 9.88368 89.5629 9.55757 90.4523 9.55757ZM97.9143 9.72274V11.0442H96.3388V14.0936C96.3388 14.3562 96.3981 14.5467 96.5167 14.6653C96.6353 14.7754 96.8089 14.839 97.0376 14.8559C97.2748 14.8644 97.5671 14.8602 97.9143 14.8432V16.0757C96.864 16.2027 96.1101 16.1138 95.6527 15.8089C95.1953 15.4954 94.9666 14.9237 94.9666 14.0936V11.0442H93.7976V9.72274H94.9666V8.35051L96.3388 7.94392V9.72274H97.9143ZM103.93 10.6249V9.72274H105.302V16.0757H103.93V15.1609C103.413 15.8809 102.672 16.2409 101.706 16.2409C100.834 16.2409 100.088 15.919 99.4701 15.2752C98.8518 14.6314 98.5426 13.8394 98.5426 12.8992C98.5426 11.959 98.8518 11.167 99.4701 10.5232C100.088 9.87945 100.834 9.55757 101.706 9.55757C102.672 9.55757 103.413 9.91333 103.93 10.6249ZM100.487 14.3604C100.868 14.7416 101.346 14.9322 101.922 14.9322C102.498 14.9322 102.977 14.7416 103.358 14.3604C103.739 13.9707 103.93 13.4837 103.93 12.8992C103.93 12.3147 103.739 11.8319 103.358 11.4507C102.977 11.0611 102.498 10.8663 101.922 10.8663C101.346 10.8663 100.868 11.0611 100.487 11.4507C100.105 11.8319 99.9148 12.3147 99.9148 12.8992C99.9148 13.4752 100.105 13.9623 100.487 14.3604ZM108.274 16.0757H106.902V6.80039H108.274V16.0757ZM110.693 14.3223C110.956 14.3223 111.18 14.4154 111.366 14.6018C111.553 14.7882 111.646 15.0126 111.646 15.2752C111.646 15.5378 111.553 15.7623 111.366 15.9486C111.18 16.135 110.956 16.2282 110.693 16.2282C110.43 16.2282 110.206 16.135 110.02 15.9486C109.833 15.7623 109.74 15.5378 109.74 15.2752C109.74 15.0126 109.829 14.7882 110.007 14.6018C110.193 14.4154 110.422 14.3223 110.693 14.3223ZM116.701 9.55757C117.565 9.55757 118.311 9.88368 118.938 10.5359C119.556 11.1797 119.865 11.9674 119.865 12.8992C119.865 13.8394 119.556 14.6314 118.938 15.2752C118.319 15.919 117.574 16.2409 116.701 16.2409C115.744 16.2409 115.003 15.8851 114.478 15.1736V18.6169H113.106V9.72274H114.478V10.6376C114.995 9.91757 115.736 9.55757 116.701 9.55757ZM115.05 14.3604C115.431 14.7416 115.909 14.9322 116.485 14.9322C117.061 14.9322 117.54 14.7416 117.921 14.3604C118.302 13.9707 118.493 13.4837 118.493 12.8992C118.493 12.3147 118.302 11.8319 117.921 11.4507C117.54 11.0611 117.061 10.8663 116.485 10.8663C115.909 10.8663 115.431 11.0611 115.05 11.4507C114.668 11.8319 114.478 12.3147 114.478 12.8992C114.478 13.4752 114.668 13.9623 115.05 14.3604ZM122.481 9.72274V10.79C122.828 10.0023 123.481 9.60839 124.438 9.60839V11.095C123.921 11.0611 123.464 11.1882 123.066 11.4762C122.676 11.7557 122.481 12.2216 122.481 12.8738V16.0757H121.109V9.72274H122.481ZM130.528 15.2752C129.885 15.919 129.093 16.2409 128.152 16.2409C127.212 16.2409 126.42 15.919 125.776 15.2752C125.124 14.623 124.798 13.831 124.798 12.8992C124.798 11.9674 125.124 11.1754 125.776 10.5232C126.42 9.87945 127.212 9.55757 128.152 9.55757C129.093 9.55757 129.885 9.87945 130.528 10.5232C131.181 11.1754 131.507 11.9674 131.507 12.8992C131.507 13.831 131.181 14.623 130.528 15.2752ZM126.17 12.8992C126.17 13.4752 126.361 13.9538 126.742 14.335C127.123 14.7162 127.593 14.9067 128.152 14.9067C128.712 14.9067 129.182 14.7162 129.563 14.335C129.944 13.9538 130.135 13.4752 130.135 12.8992C130.135 12.3232 129.944 11.8446 129.563 11.4634C129.182 11.0823 128.712 10.8917 128.152 10.8917C127.593 10.8917 127.123 11.0823 126.742 11.4634C126.361 11.8446 126.17 12.3232 126.17 12.8992Z" fill="black"/>
</svg>
