<svg width="393" height="600" viewBox="0 0 393 600" fill="none" xmlns="http://www.w3.org/2000/svg">
<g filter="url(#filter0_d_12_14)">
<rect y="28" width="393" height="544" rx="6.82292" fill="black"/>
</g>
<g filter="url(#filter1_b_12_14)">
<rect x="60" y="388" width="144" height="57" rx="10.9841" fill="#F258FF" fill-opacity="0.15"/>
<rect x="60" y="388" width="144" height="57" rx="10.9841" fill="white" fill-opacity="0.08"/>
<rect x="59.7504" y="387.75" width="144.499" height="57.4993" rx="11.2338" stroke="white" stroke-opacity="0.2" stroke-width="0.499279"/>
</g>
<g filter="url(#filter2_b_12_14)">
<rect x="205.541" y="254" width="127.459" height="57" rx="10.463" fill="#F258FF" fill-opacity="0.15"/>
<rect x="205.541" y="254" width="127.459" height="57" rx="10.463" fill="white" fill-opacity="0.08"/>
<rect x="205.303" y="253.762" width="127.934" height="57.4756" rx="10.7008" stroke="white" stroke-opacity="0.2" stroke-width="0.475592"/>
</g>
<g filter="url(#filter3_b_12_14)">
<rect x="192" y="321" width="141" height="57" rx="10" fill="#F258FF" fill-opacity="0.15"/>
<rect x="192" y="321" width="141" height="57" rx="10" fill="white" fill-opacity="0.08"/>
<rect x="191.72" y="320.72" width="141.56" height="57.5603" rx="10.2802" stroke="white" stroke-opacity="0.2" stroke-width="0.560317"/>
</g>
<g filter="url(#filter4_b_12_14)">
<rect x="60" y="458" width="154" height="57" rx="10.8522" fill="#F258FF" fill-opacity="0.15"/>
<rect x="60" y="458" width="154" height="57" rx="10.8522" fill="white" fill-opacity="0.08"/>
<rect x="59.7534" y="457.753" width="154.493" height="57.4933" rx="11.0988" stroke="white" stroke-opacity="0.2" stroke-width="0.493282"/>
</g>
<g filter="url(#filter5_b_12_14)">
<path d="M60 135.8C60 129.718 60 126.676 61.1838 124.353C62.225 122.31 63.8865 120.648 65.9301 119.607C68.2534 118.423 71.2947 118.423 77.3773 118.423H176.902C182.984 118.423 186.026 118.423 188.349 119.607C190.392 120.648 192.054 122.31 193.095 124.353C194.279 126.676 194.279 129.718 194.279 135.8V158.046C194.279 164.128 194.279 167.17 193.095 169.493C192.054 171.537 190.392 173.198 188.349 174.239C186.026 175.423 182.984 175.423 176.902 175.423H77.3773C71.2947 175.423 68.2534 175.423 65.9301 174.239C63.8865 173.198 62.225 171.537 61.1838 169.493C60 167.17 60 164.128 60 158.046V135.8Z" fill="#F258FF" fill-opacity="0.15"/>
<path d="M60 135.8C60 129.718 60 126.676 61.1838 124.353C62.225 122.31 63.8865 120.648 65.9301 119.607C68.2534 118.423 71.2947 118.423 77.3773 118.423H176.902C182.984 118.423 186.026 118.423 188.349 119.607C190.392 120.648 192.054 122.31 193.095 124.353C194.279 126.676 194.279 129.718 194.279 135.8V158.046C194.279 164.128 194.279 167.17 193.095 169.493C192.054 171.537 190.392 173.198 188.349 174.239C186.026 175.423 182.984 175.423 176.902 175.423H77.3773C71.2947 175.423 68.2534 175.423 65.9301 174.239C63.8865 173.198 62.225 171.537 61.1838 169.493C60 167.17 60 164.128 60 158.046V135.8Z" fill="white" fill-opacity="0.08"/>
<path d="M176.902 118.176H77.3773H77.3656C74.3342 118.176 72.0449 118.176 70.2238 118.325C68.3975 118.474 67.0203 118.774 65.818 119.387C63.728 120.452 62.0288 122.151 60.9638 124.241C60.3513 125.443 60.0512 126.821 59.902 128.647C59.7532 130.468 59.7532 132.757 59.7532 135.789V135.8V158.046V158.058C59.7532 161.089 59.7532 163.378 59.902 165.199C60.0512 167.026 60.3513 168.403 60.9638 169.605C62.0288 171.695 63.728 173.394 65.818 174.459C67.0203 175.072 68.3975 175.372 70.2238 175.521C72.045 175.67 74.3342 175.67 77.3657 175.67H77.3773H176.902H176.913C179.945 175.67 182.234 175.67 184.055 175.521C185.882 175.372 187.259 175.072 188.461 174.459C190.551 173.394 192.25 171.695 193.315 169.605C193.928 168.403 194.228 167.026 194.377 165.199C194.526 163.378 194.526 161.089 194.526 158.057V158.046V135.8V135.789C194.526 132.758 194.526 130.468 194.377 128.647C194.228 126.821 193.928 125.443 193.315 124.241C192.25 122.151 190.551 120.452 188.461 119.387C187.259 118.774 185.882 118.474 184.055 118.325C182.234 118.176 179.945 118.176 176.913 118.176H176.902Z" stroke="white" stroke-opacity="0.2" stroke-width="0.493673"/>
</g>
<g filter="url(#filter6_b_12_14)">
<rect x="204.151" y="118.423" width="128.849" height="57.7597" rx="10.8608" fill="#F258FF" fill-opacity="0.15"/>
<rect x="204.151" y="118.423" width="128.849" height="57.7597" rx="10.8608" fill="white" fill-opacity="0.08"/>
<rect x="203.905" y="118.176" width="129.342" height="58.2534" rx="11.1076" stroke="white" stroke-opacity="0.2" stroke-width="0.493673"/>
</g>
<g filter="url(#filter7_b_12_14)">
<rect x="60" y="254.679" width="135.068" height="57" rx="10.463" fill="#F258FF" fill-opacity="0.15"/>
<rect x="60" y="254.679" width="135.068" height="57" rx="10.463" fill="white" fill-opacity="0.08"/>
<rect x="59.7622" y="254.441" width="135.544" height="57.4756" rx="10.7008" stroke="white" stroke-opacity="0.2" stroke-width="0.475592"/>
</g>
<g filter="url(#filter8_b_12_14)">
<rect x="60" y="187" width="142.228" height="57" rx="10.5" fill="#F258FF" fill-opacity="0.15"/>
<rect x="60" y="187" width="142.228" height="57" rx="10.5" fill="white" fill-opacity="0.08"/>
<rect x="59.7614" y="186.762" width="142.705" height="57.4773" rx="10.7387" stroke="white" stroke-opacity="0.2" stroke-width="0.477274"/>
</g>
<g filter="url(#filter9_b_12_14)">
<rect x="60" y="321" width="121.028" height="57" rx="10" fill="#F258FF" fill-opacity="0.15"/>
<rect x="60" y="321" width="121.028" height="57" rx="10" fill="white" fill-opacity="0.08"/>
<rect x="59.7198" y="320.72" width="121.589" height="57.5603" rx="10.2802" stroke="white" stroke-opacity="0.2" stroke-width="0.560317"/>
</g>
<g filter="url(#filter10_b_12_14)">
<rect x="211.772" y="187" width="121.228" height="55.8411" rx="10.5" fill="#F258FF" fill-opacity="0.15"/>
<rect x="211.772" y="187" width="121.228" height="55.8411" rx="10.5" fill="white" fill-opacity="0.08"/>
<rect x="211.534" y="186.762" width="121.705" height="56.3184" rx="10.7387" stroke="white" stroke-opacity="0.2" stroke-width="0.477274"/>
</g>
<g filter="url(#filter11_b_12_14)">
<rect x="224.478" y="458.264" width="108.522" height="57" rx="10.8522" fill="#F258FF" fill-opacity="0.15"/>
<rect x="224.478" y="458.264" width="108.522" height="57" rx="10.8522" fill="white" fill-opacity="0.08"/>
<rect x="224.231" y="458.017" width="109.015" height="57.4933" rx="11.0988" stroke="white" stroke-opacity="0.2" stroke-width="0.493282"/>
</g>
<g filter="url(#filter12_b_12_14)">
<rect x="213.671" y="388.264" width="119.328" height="57" rx="10.9841" fill="#F258FF" fill-opacity="0.15"/>
<rect x="213.671" y="388.264" width="119.328" height="57" rx="10.9841" fill="white" fill-opacity="0.08"/>
<rect x="213.421" y="388.014" width="119.827" height="57.4993" rx="11.2338" stroke="white" stroke-opacity="0.2" stroke-width="0.499279"/>
</g>
<defs>
<filter id="filter0_d_12_14" x="-27.2917" y="0.708332" width="447.583" height="598.583" filterUnits="userSpaceOnUse" color-interpolation-filters="sRGB">
<feFlood flood-opacity="0" result="BackgroundImageFix"/>
<feColorMatrix in="SourceAlpha" type="matrix" values="0 0 0 0 0 0 0 0 0 0 0 0 0 0 0 0 0 0 127 0" result="hardAlpha"/>
<feOffset/>
<feGaussianBlur stdDeviation="13.6458"/>
<feComposite in2="hardAlpha" operator="out"/>
<feColorMatrix type="matrix" values="0 0 0 0 0 0 0 0 0 0 0 0 0 0 0 0 0 0 0.7 0"/>
<feBlend mode="normal" in2="BackgroundImageFix" result="effect1_dropShadow_12_14"/>
<feBlend mode="normal" in="SourceGraphic" in2="effect1_dropShadow_12_14" result="shape"/>
</filter>
<filter id="filter1_b_12_14" x="34.5368" y="362.537" width="194.926" height="107.927" filterUnits="userSpaceOnUse" color-interpolation-filters="sRGB">
<feFlood flood-opacity="0" result="BackgroundImageFix"/>
<feGaussianBlur in="BackgroundImageFix" stdDeviation="12.482"/>
<feComposite in2="SourceAlpha" operator="in" result="effect1_backgroundBlur_12_14"/>
<feBlend mode="normal" in="SourceGraphic" in2="effect1_backgroundBlur_12_14" result="shape"/>
</filter>
<filter id="filter2_b_12_14" x="181.286" y="229.745" width="175.969" height="105.51" filterUnits="userSpaceOnUse" color-interpolation-filters="sRGB">
<feFlood flood-opacity="0" result="BackgroundImageFix"/>
<feGaussianBlur in="BackgroundImageFix" stdDeviation="11.8898"/>
<feComposite in2="SourceAlpha" operator="in" result="effect1_backgroundBlur_12_14"/>
<feBlend mode="normal" in="SourceGraphic" in2="effect1_backgroundBlur_12_14" result="shape"/>
</filter>
<filter id="filter3_b_12_14" x="163.424" y="292.424" width="198.152" height="114.152" filterUnits="userSpaceOnUse" color-interpolation-filters="sRGB">
<feFlood flood-opacity="0" result="BackgroundImageFix"/>
<feGaussianBlur in="BackgroundImageFix" stdDeviation="14.0079"/>
<feComposite in2="SourceAlpha" operator="in" result="effect1_backgroundBlur_12_14"/>
<feBlend mode="normal" in="SourceGraphic" in2="effect1_backgroundBlur_12_14" result="shape"/>
</filter>
<filter id="filter4_b_12_14" x="34.8427" y="432.843" width="204.315" height="107.315" filterUnits="userSpaceOnUse" color-interpolation-filters="sRGB">
<feFlood flood-opacity="0" result="BackgroundImageFix"/>
<feGaussianBlur in="BackgroundImageFix" stdDeviation="12.332"/>
<feComposite in2="SourceAlpha" operator="in" result="effect1_backgroundBlur_12_14"/>
<feBlend mode="normal" in="SourceGraphic" in2="effect1_backgroundBlur_12_14" result="shape"/>
</filter>
<filter id="filter5_b_12_14" x="34.8227" y="93.2458" width="184.634" height="107.355" filterUnits="userSpaceOnUse" color-interpolation-filters="sRGB">
<feFlood flood-opacity="0" result="BackgroundImageFix"/>
<feGaussianBlur in="BackgroundImageFix" stdDeviation="12.3418"/>
<feComposite in2="SourceAlpha" operator="in" result="effect1_backgroundBlur_12_14"/>
<feBlend mode="normal" in="SourceGraphic" in2="effect1_backgroundBlur_12_14" result="shape"/>
</filter>
<filter id="filter6_b_12_14" x="178.974" y="93.2458" width="179.203" height="108.114" filterUnits="userSpaceOnUse" color-interpolation-filters="sRGB">
<feFlood flood-opacity="0" result="BackgroundImageFix"/>
<feGaussianBlur in="BackgroundImageFix" stdDeviation="12.3418"/>
<feComposite in2="SourceAlpha" operator="in" result="effect1_backgroundBlur_12_14"/>
<feBlend mode="normal" in="SourceGraphic" in2="effect1_backgroundBlur_12_14" result="shape"/>
</filter>
<filter id="filter7_b_12_14" x="35.7448" y="230.424" width="183.578" height="105.51" filterUnits="userSpaceOnUse" color-interpolation-filters="sRGB">
<feFlood flood-opacity="0" result="BackgroundImageFix"/>
<feGaussianBlur in="BackgroundImageFix" stdDeviation="11.8898"/>
<feComposite in2="SourceAlpha" operator="in" result="effect1_backgroundBlur_12_14"/>
<feBlend mode="normal" in="SourceGraphic" in2="effect1_backgroundBlur_12_14" result="shape"/>
</filter>
<filter id="filter8_b_12_14" x="35.659" y="162.659" width="190.91" height="105.682" filterUnits="userSpaceOnUse" color-interpolation-filters="sRGB">
<feFlood flood-opacity="0" result="BackgroundImageFix"/>
<feGaussianBlur in="BackgroundImageFix" stdDeviation="11.9319"/>
<feComposite in2="SourceAlpha" operator="in" result="effect1_backgroundBlur_12_14"/>
<feBlend mode="normal" in="SourceGraphic" in2="effect1_backgroundBlur_12_14" result="shape"/>
</filter>
<filter id="filter9_b_12_14" x="31.4239" y="292.424" width="178.181" height="114.152" filterUnits="userSpaceOnUse" color-interpolation-filters="sRGB">
<feFlood flood-opacity="0" result="BackgroundImageFix"/>
<feGaussianBlur in="BackgroundImageFix" stdDeviation="14.0079"/>
<feComposite in2="SourceAlpha" operator="in" result="effect1_backgroundBlur_12_14"/>
<feBlend mode="normal" in="SourceGraphic" in2="effect1_backgroundBlur_12_14" result="shape"/>
</filter>
<filter id="filter10_b_12_14" x="187.431" y="162.659" width="169.91" height="104.523" filterUnits="userSpaceOnUse" color-interpolation-filters="sRGB">
<feFlood flood-opacity="0" result="BackgroundImageFix"/>
<feGaussianBlur in="BackgroundImageFix" stdDeviation="11.9319"/>
<feComposite in2="SourceAlpha" operator="in" result="effect1_backgroundBlur_12_14"/>
<feBlend mode="normal" in="SourceGraphic" in2="effect1_backgroundBlur_12_14" result="shape"/>
</filter>
<filter id="filter11_b_12_14" x="199.32" y="433.107" width="158.836" height="107.315" filterUnits="userSpaceOnUse" color-interpolation-filters="sRGB">
<feFlood flood-opacity="0" result="BackgroundImageFix"/>
<feGaussianBlur in="BackgroundImageFix" stdDeviation="12.332"/>
<feComposite in2="SourceAlpha" operator="in" result="effect1_backgroundBlur_12_14"/>
<feBlend mode="normal" in="SourceGraphic" in2="effect1_backgroundBlur_12_14" result="shape"/>
</filter>
<filter id="filter12_b_12_14" x="188.208" y="362.801" width="170.254" height="107.927" filterUnits="userSpaceOnUse" color-interpolation-filters="sRGB">
<feFlood flood-opacity="0" result="BackgroundImageFix"/>
<feGaussianBlur in="BackgroundImageFix" stdDeviation="12.482"/>
<feComposite in2="SourceAlpha" operator="in" result="effect1_backgroundBlur_12_14"/>
<feBlend mode="normal" in="SourceGraphic" in2="effect1_backgroundBlur_12_14" result="shape"/>
</filter>
</defs>
</svg>
