<svg width="166" height="41" viewBox="0 0 166 41" fill="none" xmlns="http://www.w3.org/2000/svg">
<g filter="url(#filter0_b_8_2)">
<rect x="1" y="1" width="164" height="39" rx="19.5" fill="url(#paint0_linear_8_2)"/>
</g>
<g filter="url(#filter1_b_8_2)">
<path d="M1 20.5C1 9.73045 9.73045 1 20.5 1H145.5C156.27 1 165 9.73045 165 20.5C165 31.2696 156.254 40 145.485 40C99.2448 40 66.7551 40 20.5155 40C9.7459 40 1 31.2696 1 20.5Z" fill="white" fill-opacity="0.27"/>
<path d="M20.5 0.5C9.45431 0.5 0.5 9.45431 0.5 20.5C0.5 31.5462 9.47027 40.5 20.5155 40.5H20.7862H21.0567H21.3268H21.5967H21.8662H22.1354H22.4044H22.673H22.9413H23.2093H23.477H23.7444H24.0115H24.2783H24.5448H24.811H25.0769H25.3425H25.6078H25.8729H26.1376H26.4021H26.6662H26.9301H27.1937H27.457H27.72H27.9828H28.2452H28.5074H28.7693H29.031H29.2923H29.5534H29.8142H30.0748H30.335H30.595H30.8548H31.1142H31.3734H31.6324H31.891H32.1494H32.4076H32.6655H32.9231H33.1805H33.4376H33.6945H33.9511H34.2074H34.4635H34.7194H34.975H35.2304H35.4855H35.7404H35.995H36.2494H36.5035H36.7574H37.0111H37.2645H37.5177H37.7707H38.0234H38.2759H38.5281H38.7802H39.032H39.2836H39.5349H39.786H40.0369H40.2876H40.5381H40.7883H41.0383H41.2881H41.5377H41.7871H42.0362H42.2852H42.5339H42.7824H43.0308H43.2789H43.5268H43.7744H44.0219H44.2692H44.5163H44.7632H45.0099H45.2564H45.5026H45.7487H45.9946H46.2403H46.4859H46.7312H46.9763H47.2213H47.466H47.7106H47.955H48.1992H48.4432H48.6871H48.9307H49.1742H49.4175H49.6607H49.9036H50.1464H50.389H50.6315H50.8738H51.1159H51.3578H51.5996H51.8412H52.0826H52.3239H52.565H52.806H53.0468H53.2874H53.5279H53.7682H54.0084H54.2485H54.4883H54.7281H54.9676H55.2071H55.4464H55.6855H55.9245H56.1633H56.4021H56.6406H56.8791H57.1173H57.3555H57.5935H57.8314H58.0692H58.3068H58.5443H58.7817H59.0189H59.256H59.493H59.7299H59.9666H60.2032H60.4397H60.6761H60.9123H61.1485H61.3845H61.6204H61.8562H62.0919H62.3275H62.5629H62.7983H63.0336H63.2687H63.5037H63.7387H63.9735H64.2083H64.4429H64.6774H64.9119H65.1462H65.3805H65.6146H65.8487H66.0826H66.3165H66.5503H66.784H67.0177H67.2512H67.4846H67.718H67.9513H68.1845H68.4176H68.6507H68.8837H69.1166H69.3494H69.5822H69.8149H70.0475H70.28H70.5125H70.7449H70.9772H71.2095H71.4418H71.6739H71.906H72.1381H72.37H72.602H72.8338H73.0656H73.2974H73.5291H73.7608H73.9924H74.224H74.4555H74.6869H74.9184H75.1497H75.3811H75.6124H75.8437H76.0749H76.3061H76.5372H76.7683H76.9994H77.2305H77.4615H77.6925H77.9235H78.1544H78.3853H78.6162H78.8471H79.0779H79.3087H79.5395H79.7703H80.0011H80.2318H80.4625H80.6933H80.924H81.1547H81.3854H81.616H81.8467H82.0774H82.308H82.5387H82.7693H83H83.2306H83.4613H83.692H83.9226H84.1533H84.3839H84.6146H84.8453H85.076H85.3067H85.5374H85.7682H85.9989H86.2297H86.4605H86.6913H86.9221H87.1529H87.3838H87.6147H87.8456H88.0765H88.3075H88.5385H88.7695H89.0006H89.2316H89.4628H89.6939H89.9251H90.1563H90.3876H90.6189H90.8502H91.0816H91.313H91.5445H91.776H92.0076H92.2392H92.4709H92.7026H92.9343H93.1662H93.398H93.63H93.8619H94.094H94.3261H94.5582H94.7905H95.0227H95.2551H95.4875H95.72H95.9525H96.1851H96.4178H96.6506H96.8834H97.1163H97.3493H97.5823H97.8155H98.0487H98.282H98.5153H98.7488H98.9823H99.2159H99.4497H99.6834H99.9173H100.151H100.385H100.62H100.854H101.088H101.323H101.557H101.792H102.026H102.261H102.496H102.731H102.966H103.202H103.437H103.673H103.908H104.144H104.38H104.615H104.852H105.088H105.324H105.56H105.797H106.033H106.27H106.507H106.744H106.981H107.218H107.456H107.693H107.931H108.169H108.406H108.644H108.883H109.121H109.359H109.598H109.837H110.075H110.314H110.554H110.793H111.032H111.272H111.512H111.752H111.992H112.232H112.472H112.713H112.953H113.194H113.435H113.676H113.917H114.159H114.4H114.642H114.884H115.126H115.369H115.611H115.854H116.096H116.339H116.582H116.826H117.069H117.313H117.557H117.801H118.045H118.289H118.534H118.779H119.024H119.269H119.514H119.76H120.005H120.251H120.497H120.744H120.99H121.237H121.484H121.731H121.978H122.226H122.473H122.721H122.969H123.218H123.466H123.715H123.964H124.213H124.462H124.712H124.962H125.212H125.462H125.712H125.963H126.214H126.465H126.716H126.968H127.22H127.472H127.724H127.977H128.229H128.482H128.735H128.989H129.243H129.496H129.751H130.005H130.26H130.514H130.77H131.025H131.281H131.536H131.793H132.049H132.306H132.562H132.82H133.077H133.335H133.592H133.851H134.109H134.368H134.627H134.886H135.145H135.405H135.665H135.925H136.186H136.447H136.708H136.969H137.231H137.493H137.755H138.017H138.28H138.543H138.806H139.07H139.334H139.598H139.862H140.127H140.392H140.657H140.923H141.189H141.455H141.722H141.989H142.256H142.523H142.791H143.059H143.327H143.596H143.865H144.134H144.403H144.673H144.943H145.214H145.485C156.53 40.5 165.5 31.5462 165.5 20.5C165.5 9.45431 156.546 0.5 145.5 0.5H20.5Z" stroke="url(#paint1_linear_8_2)"/>
</g>
<defs>
<filter id="filter0_b_8_2" x="-29" y="-29" width="224" height="99" filterUnits="userSpaceOnUse" color-interpolation-filters="sRGB">
<feFlood flood-opacity="0" result="BackgroundImageFix"/>
<feGaussianBlur in="BackgroundImageFix" stdDeviation="15"/>
<feComposite in2="SourceAlpha" operator="in" result="effect1_backgroundBlur_8_2"/>
<feBlend mode="normal" in="SourceGraphic" in2="effect1_backgroundBlur_8_2" result="shape"/>
</filter>
<filter id="filter1_b_8_2" x="-83" y="-83" width="332" height="207" filterUnits="userSpaceOnUse" color-interpolation-filters="sRGB">
<feFlood flood-opacity="0" result="BackgroundImageFix"/>
<feGaussianBlur in="BackgroundImageFix" stdDeviation="41.5"/>
<feComposite in2="SourceAlpha" operator="in" result="effect1_backgroundBlur_8_2"/>
<feBlend mode="normal" in="SourceGraphic" in2="effect1_backgroundBlur_8_2" result="shape"/>
</filter>
<linearGradient id="paint0_linear_8_2" x1="1" y1="20" x2="165" y2="20" gradientUnits="userSpaceOnUse">
<stop stop-color="#030205"/>
<stop offset="0.895833" stop-color="#9C5FFE"/>
</linearGradient>
<linearGradient id="paint1_linear_8_2" x1="14.5828" y1="7.3587" x2="160.031" y2="39.1701" gradientUnits="userSpaceOnUse">
<stop stop-color="white" stop-opacity="0.3"/>
<stop offset="1" stop-color="white" stop-opacity="0.6"/>
</linearGradient>
</defs>
</svg>
