<svg width="330" height="25" viewBox="0 0 330 25" fill="none" xmlns="http://www.w3.org/2000/svg">
<path d="M19.12 1.4H23.2V2.28H21.624V7H20.704V2.28H19.12V1.4ZM28.2563 1.4H29.2403V7H28.3203V3.008L26.6163 5.824H26.5043L24.8003 3V7H23.8803V1.4H24.8723L26.5603 4.2L28.2563 1.4Z" fill="white" fill-opacity="0.5"/>
<path d="M19.5154 13.7635C20.0144 13.5689 20.2659 13.0031 20.0157 12.5295C19.2552 11.0899 18.0933 9.89239 16.6618 9.08854C14.9471 8.1257 12.9516 7.78718 11.0153 8.13067C9.07902 8.47416 7.32174 9.47841 6.04287 10.9723C4.76401 12.4662 4.0427 14.3573 4.00184 16.3234C3.96097 18.2895 4.60309 20.2089 5.81879 21.7547C7.03448 23.3004 8.74852 24.3768 10.6689 24.8004C12.5892 25.2241 14.597 24.9687 16.3502 24.078C17.8139 23.3343 19.0246 22.1861 19.8442 20.7793C20.1139 20.3165 19.8861 19.7408 19.3956 19.5256C18.9051 19.3104 18.3388 19.5386 18.0537 19.9921C17.4252 20.9916 16.535 21.8085 15.4716 22.3487C14.1185 23.0362 12.5689 23.2333 11.0867 22.9063C9.60458 22.5793 8.28167 21.7486 7.34339 20.5556C6.40512 19.3626 5.90952 17.8811 5.94106 16.3637C5.9726 14.8462 6.52931 13.3867 7.51635 12.2337C8.50338 11.0807 9.85967 10.3056 11.3541 10.0405C12.8485 9.77539 14.3887 10.0367 15.7121 10.7798C16.752 11.3638 17.6076 12.2169 18.194 13.2417C18.46 13.7066 19.0164 13.9581 19.5154 13.7635Z" fill="white" fill-opacity="0.5"/>
<path d="M1.1358 14H1.56261C2.35981 14 3.00275 14.6525 2.99103 15.4496L2.92163 20.1689C2.9172 20.4698 3.15988 20.716 3.46078 20.716C3.75858 20.716 4 20.9575 4 21.2553V21.358C4 21.7126 3.71258 22 3.35802 22H3.01235H1.1358H0.790124C0.435571 22 0.148148 21.7126 0.148148 21.358V21.2099C0.148148 20.9371 0.369242 20.716 0.641975 20.716C0.914708 20.716 1.1358 20.495 1.1358 20.2222V15.9012C1.1358 15.5876 0.881544 15.3333 0.567901 15.3333C0.254258 15.3333 0 15.0791 0 14.7654V14.6914C0 14.3095 0.309532 14 0.691358 14H1.1358Z" fill="white" fill-opacity="0.5"/>
<circle cx="2" cy="12" r="1" fill="white" fill-opacity="0.5"/>
<path d="M46.848 21.156C45.568 21.156 44.516 20.736 43.692 19.896C42.868 19.064 42.456 18.032 42.456 16.8C42.456 15.568 42.868 14.536 43.692 13.704C44.516 12.864 45.568 12.444 46.848 12.444C47.608 12.444 48.312 12.628 48.96 12.996C49.608 13.364 50.112 13.86 50.472 14.484L49.5 15.048C49.26 14.584 48.9 14.216 48.42 13.944C47.948 13.664 47.424 13.524 46.848 13.524C45.872 13.524 45.08 13.836 44.472 14.46C43.864 15.076 43.56 15.856 43.56 16.8C43.56 17.736 43.864 18.512 44.472 19.128C45.08 19.752 45.872 20.064 46.848 20.064C47.424 20.064 47.948 19.928 48.42 19.656C48.9 19.376 49.26 19.008 49.5 18.552L50.472 19.104C50.12 19.728 49.62 20.228 48.972 20.604C48.332 20.972 47.624 21.156 46.848 21.156ZM56.6685 20.244C56.0605 20.852 55.3125 21.156 54.4245 21.156C53.5365 21.156 52.7885 20.852 52.1805 20.244C51.5725 19.636 51.2685 18.888 51.2685 18C51.2685 17.112 51.5725 16.364 52.1805 15.756C52.7885 15.148 53.5365 14.844 54.4245 14.844C55.3125 14.844 56.0605 15.148 56.6685 15.756C57.2845 16.372 57.5925 17.12 57.5925 18C57.5925 18.88 57.2845 19.628 56.6685 20.244ZM54.4245 20.136C55.0245 20.136 55.5285 19.932 55.9365 19.524C56.3445 19.116 56.5485 18.608 56.5485 18C56.5485 17.392 56.3445 16.884 55.9365 16.476C55.5285 16.068 55.0245 15.864 54.4245 15.864C53.8325 15.864 53.3325 16.068 52.9245 16.476C52.5165 16.884 52.3125 17.392 52.3125 18C52.3125 18.608 52.5165 19.116 52.9245 19.524C53.3325 19.932 53.8325 20.136 54.4245 20.136ZM62.1353 14.844C62.9753 14.844 63.6913 15.152 64.2833 15.768C64.8753 16.384 65.1713 17.128 65.1713 18C65.1713 18.88 64.8753 19.628 64.2833 20.244C63.6993 20.852 62.9833 21.156 62.1353 21.156C61.1433 21.156 60.3873 20.76 59.8673 19.968V23.4H58.8232V15H59.8673V16.032C60.3873 15.24 61.1433 14.844 62.1353 14.844ZM62.0033 20.148C62.6033 20.148 63.1073 19.944 63.5153 19.536C63.9233 19.112 64.1273 18.6 64.1273 18C64.1273 17.392 63.9233 16.884 63.5153 16.476C63.1073 16.06 62.6033 15.852 62.0033 15.852C61.3953 15.852 60.8873 16.06 60.4793 16.476C60.0713 16.884 59.8673 17.392 59.8673 18C59.8673 18.6 60.0713 19.112 60.4793 19.536C60.8873 19.944 61.3953 20.148 62.0033 20.148ZM68.6426 19.704L70.3706 15H71.4866L69.0386 21.372C68.7746 22.052 68.4106 22.568 67.9466 22.92C67.4906 23.28 66.9666 23.44 66.3746 23.4V22.428C67.1106 22.484 67.6506 22.076 67.9946 21.204L68.1026 20.976L65.4866 15H66.6026L68.6426 19.704ZM73.4024 15V16.008C73.7464 15.264 74.3704 14.892 75.2744 14.892V15.984C74.7624 15.96 74.3224 16.096 73.9544 16.392C73.5864 16.688 73.4024 17.164 73.4024 17.82V21H72.3584V15H73.4024ZM76.8239 13.908C76.6239 13.908 76.4559 13.84 76.3199 13.704C76.1839 13.568 76.1159 13.404 76.1159 13.212C76.1159 13.02 76.1839 12.856 76.3199 12.72C76.4559 12.576 76.6239 12.504 76.8239 12.504C77.0159 12.504 77.1799 12.576 77.3159 12.72C77.4519 12.856 77.5199 13.02 77.5199 13.212C77.5199 13.404 77.4519 13.568 77.3159 13.704C77.1799 13.84 77.0159 13.908 76.8239 13.908ZM77.3399 21H76.2959V15H77.3399V21ZM83.9126 16.032V15H84.9446V20.748C84.9446 21.636 84.6446 22.324 84.0446 22.812C83.4366 23.308 82.7166 23.556 81.8846 23.556C81.2126 23.556 80.6326 23.428 80.1446 23.172C79.6566 22.924 79.2886 22.564 79.0406 22.092L79.9526 21.576C80.2806 22.248 80.9326 22.584 81.9086 22.584C82.5326 22.584 83.0206 22.42 83.3726 22.092C83.7326 21.764 83.9126 21.316 83.9126 20.748V19.896C83.3846 20.696 82.6326 21.096 81.6566 21.096C80.7926 21.096 80.0686 20.792 79.4846 20.184C78.8926 19.568 78.5966 18.828 78.5966 17.964C78.5966 17.1 78.8926 16.364 79.4846 15.756C80.0686 15.148 80.7926 14.844 81.6566 14.844C82.6406 14.844 83.3926 15.24 83.9126 16.032ZM83.9126 17.964C83.9126 17.364 83.7086 16.86 83.3006 16.452C82.8926 16.044 82.3846 15.84 81.7766 15.84C81.1686 15.84 80.6606 16.044 80.2526 16.452C79.8446 16.86 79.6406 17.364 79.6406 17.964C79.6406 18.572 79.8446 19.08 80.2526 19.488C80.6606 19.896 81.1686 20.1 81.7766 20.1C82.3846 20.1 82.8926 19.896 83.3006 19.488C83.7086 19.08 83.9126 18.572 83.9126 17.964ZM89.5144 14.844C90.2184 14.844 90.7824 15.068 91.2064 15.516C91.6304 15.956 91.8424 16.556 91.8424 17.316V21H90.7984V17.376C90.7984 16.896 90.6664 16.52 90.4024 16.248C90.1384 15.976 89.7744 15.84 89.3104 15.84C88.7744 15.84 88.3504 16.008 88.0384 16.344C87.7264 16.672 87.5704 17.164 87.5704 17.82V21H86.5264V12.6H87.5704V15.864C87.9864 15.184 88.6344 14.844 89.5144 14.844ZM96.5638 15V16.008H94.9678V19.26C94.9678 19.556 95.0238 19.768 95.1358 19.896C95.2558 20.016 95.4358 20.08 95.6758 20.088C95.9158 20.088 96.2118 20.08 96.5638 20.064V21C95.6438 21.12 94.9718 21.044 94.5478 20.772C94.1318 20.5 93.9238 19.996 93.9238 19.26V16.008H92.7358V15H93.9238V13.632L94.9678 13.32V15H96.5638ZM105.899 21H100.475V20.088L103.439 17.064C104.231 16.272 104.627 15.592 104.627 15.024C104.627 14.56 104.483 14.196 104.195 13.932C103.915 13.66 103.563 13.524 103.139 13.524C102.347 13.524 101.771 13.9 101.411 14.652L100.475 14.1C100.731 13.564 101.091 13.156 101.555 12.876C102.019 12.588 102.543 12.444 103.127 12.444C103.839 12.444 104.451 12.676 104.963 13.14C105.483 13.612 105.743 14.236 105.743 15.012C105.743 15.86 105.243 16.784 104.243 17.784L102.095 19.92H105.899V21ZM112.422 19.968C111.862 20.76 111.066 21.156 110.034 21.156C109.002 21.156 108.206 20.76 107.646 19.968C107.078 19.168 106.794 18.112 106.794 16.8C106.794 15.488 107.078 14.432 107.646 13.632C108.206 12.84 109.002 12.444 110.034 12.444C111.066 12.444 111.862 12.84 112.422 13.632C112.99 14.432 113.274 15.488 113.274 16.8C113.274 18.112 112.99 19.168 112.422 19.968ZM107.91 16.8C107.91 17.84 108.094 18.644 108.462 19.212C108.83 19.78 109.354 20.064 110.034 20.064C110.714 20.064 111.238 19.78 111.606 19.212C111.982 18.644 112.17 17.84 112.17 16.8C112.17 15.76 111.982 14.956 111.606 14.388C111.238 13.812 110.714 13.524 110.034 13.524C109.354 13.524 108.83 13.808 108.462 14.376C108.094 14.944 107.91 15.752 107.91 16.8ZM119.516 21H114.092V20.088L117.056 17.064C117.848 16.272 118.244 15.592 118.244 15.024C118.244 14.56 118.1 14.196 117.812 13.932C117.532 13.66 117.18 13.524 116.756 13.524C115.964 13.524 115.388 13.9 115.028 14.652L114.092 14.1C114.348 13.564 114.708 13.156 115.172 12.876C115.636 12.588 116.16 12.444 116.744 12.444C117.456 12.444 118.068 12.676 118.58 13.14C119.1 13.612 119.36 14.236 119.36 15.012C119.36 15.86 118.86 16.784 117.86 17.784L115.712 19.92H119.516V21ZM125.844 21H120.42V20.088L123.384 17.064C124.176 16.272 124.572 15.592 124.572 15.024C124.572 14.56 124.428 14.196 124.14 13.932C123.86 13.66 123.508 13.524 123.084 13.524C122.292 13.524 121.716 13.9 121.356 14.652L120.42 14.1C120.676 13.564 121.036 13.156 121.5 12.876C121.964 12.588 122.488 12.444 123.072 12.444C123.784 12.444 124.396 12.676 124.908 13.14C125.428 13.612 125.688 14.236 125.688 15.012C125.688 15.86 125.188 16.784 124.188 17.784L122.04 19.92H125.844V21ZM130.636 13.908C130.436 13.908 130.268 13.84 130.132 13.704C129.996 13.568 129.928 13.404 129.928 13.212C129.928 13.02 129.996 12.856 130.132 12.72C130.268 12.576 130.436 12.504 130.636 12.504C130.828 12.504 130.992 12.576 131.128 12.72C131.264 12.856 131.332 13.02 131.332 13.212C131.332 13.404 131.264 13.568 131.128 13.704C130.992 13.84 130.828 13.908 130.636 13.908ZM131.152 21H130.108V15H131.152V21ZM136.009 15V16.008H134.413V19.26C134.413 19.556 134.469 19.768 134.581 19.896C134.701 20.016 134.881 20.08 135.121 20.088C135.361 20.088 135.657 20.08 136.009 20.064V21C135.089 21.12 134.417 21.044 133.993 20.772C133.577 20.5 133.369 19.996 133.369 19.26V16.008H132.181V15H133.369V13.632L134.413 13.32V15H136.009ZM141.336 21.156C140.056 21.156 139.004 20.736 138.18 19.896C137.356 19.064 136.944 18.032 136.944 16.8C136.944 15.568 137.356 14.536 138.18 13.704C139.004 12.864 140.056 12.444 141.336 12.444C142.096 12.444 142.8 12.628 143.448 12.996C144.096 13.364 144.6 13.86 144.96 14.484L143.988 15.048C143.748 14.584 143.388 14.216 142.908 13.944C142.436 13.664 141.912 13.524 141.336 13.524C140.36 13.524 139.568 13.836 138.96 14.46C138.352 15.076 138.048 15.856 138.048 16.8C138.048 17.736 138.352 18.512 138.96 19.128C139.568 19.752 140.36 20.064 141.336 20.064C141.912 20.064 142.436 19.928 142.908 19.656C143.388 19.376 143.748 19.008 143.988 18.552L144.96 19.104C144.608 19.728 144.108 20.228 143.46 20.604C142.82 20.972 142.112 21.156 141.336 21.156ZM151.157 20.244C150.549 20.852 149.801 21.156 148.913 21.156C148.025 21.156 147.277 20.852 146.669 20.244C146.061 19.636 145.757 18.888 145.757 18C145.757 17.112 146.061 16.364 146.669 15.756C147.277 15.148 148.025 14.844 148.913 14.844C149.801 14.844 150.549 15.148 151.157 15.756C151.773 16.372 152.081 17.12 152.081 18C152.081 18.88 151.773 19.628 151.157 20.244ZM148.913 20.136C149.513 20.136 150.017 19.932 150.425 19.524C150.833 19.116 151.037 18.608 151.037 18C151.037 17.392 150.833 16.884 150.425 16.476C150.017 16.068 149.513 15.864 148.913 15.864C148.321 15.864 147.821 16.068 147.413 16.476C147.005 16.884 146.801 17.392 146.801 18C146.801 18.608 147.005 19.116 147.413 19.524C147.821 19.932 148.321 20.136 148.913 20.136ZM156.3 14.844C157.004 14.844 157.568 15.068 157.992 15.516C158.416 15.956 158.628 16.556 158.628 17.316V21H157.584V17.376C157.584 16.896 157.452 16.52 157.188 16.248C156.924 15.976 156.56 15.84 156.096 15.84C155.56 15.84 155.136 16.008 154.824 16.344C154.512 16.672 154.356 17.164 154.356 17.82V21H153.312V15H154.356V15.864C154.772 15.184 155.42 14.844 156.3 14.844ZM163.349 15V16.008H161.753V19.26C161.753 19.556 161.809 19.768 161.921 19.896C162.041 20.016 162.221 20.08 162.461 20.088C162.701 20.088 162.997 20.08 163.349 20.064V21C162.429 21.12 161.757 21.044 161.333 20.772C160.917 20.5 160.709 19.996 160.709 19.26V16.008H159.521V15H160.709V13.632L161.753 13.32V15H163.349ZM165.113 13.908C164.913 13.908 164.745 13.84 164.609 13.704C164.473 13.568 164.405 13.404 164.405 13.212C164.405 13.02 164.473 12.856 164.609 12.72C164.745 12.576 164.913 12.504 165.113 12.504C165.305 12.504 165.469 12.576 165.605 12.72C165.741 12.856 165.809 13.02 165.809 13.212C165.809 13.404 165.741 13.568 165.605 13.704C165.469 13.84 165.305 13.908 165.113 13.908ZM165.629 21H164.585V15H165.629V21ZM170.21 14.844C170.914 14.844 171.478 15.068 171.902 15.516C172.326 15.956 172.538 16.556 172.538 17.316V21H171.494V17.376C171.494 16.896 171.362 16.52 171.098 16.248C170.834 15.976 170.47 15.84 170.006 15.84C169.47 15.84 169.046 16.008 168.734 16.344C168.422 16.672 168.266 17.164 168.266 17.82V21H167.222V15H168.266V15.864C168.682 15.184 169.33 14.844 170.21 14.844ZM179.755 18.48H174.727C174.831 19.008 175.075 19.424 175.459 19.728C175.843 20.024 176.323 20.172 176.899 20.172C177.691 20.172 178.267 19.88 178.627 19.296L179.515 19.8C178.923 20.704 178.043 21.156 176.875 21.156C175.931 21.156 175.155 20.86 174.547 20.268C173.955 19.66 173.659 18.904 173.659 18C173.659 17.088 173.951 16.336 174.535 15.744C175.119 15.144 175.875 14.844 176.803 14.844C177.683 14.844 178.399 15.156 178.951 15.78C179.511 16.388 179.791 17.132 179.791 18.012C179.791 18.164 179.779 18.32 179.755 18.48ZM176.803 15.828C176.251 15.828 175.787 15.984 175.411 16.296C175.043 16.608 174.815 17.032 174.727 17.568H178.735C178.647 17.016 178.427 16.588 178.075 16.284C177.723 15.98 177.299 15.828 176.803 15.828ZM183.979 14.844C184.683 14.844 185.247 15.068 185.671 15.516C186.095 15.956 186.307 16.556 186.307 17.316V21H185.263V17.376C185.263 16.896 185.131 16.52 184.867 16.248C184.603 15.976 184.239 15.84 183.775 15.84C183.239 15.84 182.815 16.008 182.503 16.344C182.191 16.672 182.035 17.164 182.035 17.82V21H180.991V15H182.035V15.864C182.451 15.184 183.099 14.844 183.979 14.844ZM191.029 15V16.008H189.433V19.26C189.433 19.556 189.489 19.768 189.601 19.896C189.721 20.016 189.901 20.08 190.141 20.088C190.381 20.088 190.677 20.08 191.029 20.064V21C190.109 21.12 189.437 21.044 189.013 20.772C188.597 20.5 188.389 19.996 188.389 19.26V16.008H187.201V15H188.389V13.632L189.433 13.32V15H191.029ZM196.928 16.032V15H197.972V21H196.928V19.968C196.416 20.76 195.66 21.156 194.66 21.156C193.812 21.156 193.096 20.852 192.512 20.244C191.92 19.628 191.624 18.88 191.624 18C191.624 17.128 191.92 16.384 192.512 15.768C193.104 15.152 193.82 14.844 194.66 14.844C195.66 14.844 196.416 15.24 196.928 16.032ZM194.792 20.148C195.4 20.148 195.908 19.944 196.316 19.536C196.724 19.112 196.928 18.6 196.928 18C196.928 17.392 196.724 16.884 196.316 16.476C195.908 16.06 195.4 15.852 194.792 15.852C194.192 15.852 193.688 16.06 193.28 16.476C192.872 16.884 192.668 17.392 192.668 18C192.668 18.6 192.872 19.112 193.28 19.536C193.688 19.944 194.192 20.148 194.792 20.148ZM200.598 21H199.554V12.24H200.598V21ZM205.298 21V12.6H206.414V21H205.298ZM211.096 14.844C211.8 14.844 212.364 15.068 212.788 15.516C213.212 15.956 213.424 16.556 213.424 17.316V21H212.38V17.376C212.38 16.896 212.248 16.52 211.984 16.248C211.72 15.976 211.356 15.84 210.892 15.84C210.356 15.84 209.932 16.008 209.62 16.344C209.308 16.672 209.152 17.164 209.152 17.82V21H208.108V15H209.152V15.864C209.568 15.184 210.216 14.844 211.096 14.844ZM217.702 21.156C216.798 21.156 216.046 20.856 215.446 20.256C214.846 19.648 214.546 18.896 214.546 18C214.546 17.104 214.846 16.356 215.446 15.756C216.046 15.148 216.798 14.844 217.702 14.844C218.294 14.844 218.826 14.988 219.298 15.276C219.77 15.556 220.122 15.936 220.354 16.416L219.478 16.92C219.326 16.6 219.09 16.344 218.77 16.152C218.458 15.96 218.102 15.864 217.702 15.864C217.102 15.864 216.598 16.068 216.19 16.476C215.79 16.892 215.59 17.4 215.59 18C215.59 18.592 215.79 19.096 216.19 19.512C216.598 19.92 217.102 20.124 217.702 20.124C218.102 20.124 218.462 20.032 218.782 19.848C219.102 19.656 219.346 19.4 219.514 19.08L220.402 19.596C220.138 20.076 219.766 20.456 219.286 20.736C218.806 21.016 218.278 21.156 217.702 21.156ZM221.729 21.132C221.513 21.132 221.329 21.056 221.177 20.904C221.025 20.752 220.949 20.568 220.949 20.352C220.949 20.136 221.025 19.952 221.177 19.8C221.329 19.648 221.513 19.572 221.729 19.572C221.953 19.572 222.137 19.648 222.281 19.8C222.433 19.952 222.509 20.136 222.509 20.352C222.509 20.568 222.433 20.752 222.281 20.904C222.137 21.056 221.953 21.132 221.729 21.132ZM233.815 21H232.627L231.943 19.116H228.163L227.479 21H226.291L229.423 12.6H230.683L233.815 21ZM230.047 13.932L228.547 18.072H231.559L230.047 13.932ZM235.742 21H234.698V12.24H235.742V21ZM238.379 21H237.335V12.24H238.379V21ZM249.296 21H248.06L246.176 17.784H244.196V21H243.08V12.6H246.44C247.16 12.6 247.776 12.856 248.288 13.368C248.8 13.872 249.056 14.484 249.056 15.204C249.056 15.748 248.892 16.244 248.564 16.692C248.228 17.148 247.812 17.464 247.316 17.64L249.296 21ZM246.44 13.644H244.196V16.776H246.44C246.856 16.776 247.208 16.624 247.496 16.32C247.792 16.016 247.94 15.644 247.94 15.204C247.94 14.764 247.792 14.396 247.496 14.1C247.208 13.796 246.856 13.644 246.44 13.644ZM250.836 13.908C250.636 13.908 250.468 13.84 250.332 13.704C250.196 13.568 250.128 13.404 250.128 13.212C250.128 13.02 250.196 12.856 250.332 12.72C250.468 12.576 250.636 12.504 250.836 12.504C251.028 12.504 251.192 12.576 251.328 12.72C251.464 12.856 251.532 13.02 251.532 13.212C251.532 13.404 251.464 13.568 251.328 13.704C251.192 13.84 251.028 13.908 250.836 13.908ZM251.352 21H250.308V15H251.352V21ZM257.924 16.032V15H258.956V20.748C258.956 21.636 258.656 22.324 258.056 22.812C257.448 23.308 256.728 23.556 255.896 23.556C255.224 23.556 254.644 23.428 254.156 23.172C253.668 22.924 253.3 22.564 253.052 22.092L253.964 21.576C254.292 22.248 254.944 22.584 255.92 22.584C256.544 22.584 257.032 22.42 257.384 22.092C257.744 21.764 257.924 21.316 257.924 20.748V19.896C257.396 20.696 256.644 21.096 255.668 21.096C254.804 21.096 254.08 20.792 253.496 20.184C252.904 19.568 252.608 18.828 252.608 17.964C252.608 17.1 252.904 16.364 253.496 15.756C254.08 15.148 254.804 14.844 255.668 14.844C256.652 14.844 257.404 15.24 257.924 16.032ZM257.924 17.964C257.924 17.364 257.72 16.86 257.312 16.452C256.904 16.044 256.396 15.84 255.788 15.84C255.18 15.84 254.672 16.044 254.264 16.452C253.856 16.86 253.652 17.364 253.652 17.964C253.652 18.572 253.856 19.08 254.264 19.488C254.672 19.896 255.18 20.1 255.788 20.1C256.396 20.1 256.904 19.896 257.312 19.488C257.72 19.08 257.924 18.572 257.924 17.964ZM263.526 14.844C264.23 14.844 264.794 15.068 265.218 15.516C265.642 15.956 265.854 16.556 265.854 17.316V21H264.81V17.376C264.81 16.896 264.678 16.52 264.414 16.248C264.15 15.976 263.786 15.84 263.322 15.84C262.786 15.84 262.362 16.008 262.05 16.344C261.738 16.672 261.582 17.164 261.582 17.82V21H260.538V12.6H261.582V15.864C261.998 15.184 262.646 14.844 263.526 14.844ZM270.576 15V16.008H268.98V19.26C268.98 19.556 269.036 19.768 269.148 19.896C269.268 20.016 269.448 20.08 269.688 20.088C269.928 20.088 270.224 20.08 270.576 20.064V21C269.656 21.12 268.984 21.044 268.56 20.772C268.144 20.5 267.936 19.996 267.936 19.26V16.008H266.748V15H267.936V13.632L268.98 13.32V15H270.576ZM272.419 16.62C272.419 17.004 272.815 17.304 273.607 17.52C273.903 17.584 274.151 17.652 274.351 17.724C274.559 17.788 274.783 17.888 275.023 18.024C275.271 18.16 275.459 18.34 275.587 18.564C275.715 18.788 275.779 19.052 275.779 19.356C275.779 19.9 275.567 20.336 275.143 20.664C274.719 20.992 274.183 21.156 273.535 21.156C272.959 21.156 272.459 21.032 272.035 20.784C271.619 20.528 271.323 20.184 271.147 19.752L272.047 19.236C272.143 19.524 272.323 19.752 272.587 19.92C272.851 20.088 273.167 20.172 273.535 20.172C273.895 20.172 274.183 20.104 274.399 19.968C274.615 19.832 274.723 19.628 274.723 19.356C274.723 18.948 274.327 18.652 273.535 18.468C273.271 18.396 273.071 18.34 272.935 18.3C272.799 18.26 272.611 18.188 272.371 18.084C272.139 17.98 271.963 17.872 271.843 17.76C271.723 17.64 271.611 17.484 271.507 17.292C271.411 17.092 271.363 16.872 271.363 16.632C271.363 16.112 271.563 15.684 271.963 15.348C272.371 15.012 272.879 14.844 273.487 14.844C273.975 14.844 274.407 14.956 274.783 15.18C275.167 15.396 275.455 15.7 275.647 16.092L274.771 16.584C274.555 16.072 274.127 15.816 273.487 15.816C273.183 15.816 272.927 15.888 272.719 16.032C272.519 16.176 272.419 16.372 272.419 16.62ZM286.339 21H285.103L283.219 17.784H281.239V21H280.123V12.6H283.483C284.203 12.6 284.819 12.856 285.331 13.368C285.843 13.872 286.099 14.484 286.099 15.204C286.099 15.748 285.935 16.244 285.607 16.692C285.271 17.148 284.855 17.464 284.359 17.64L286.339 21ZM283.483 13.644H281.239V16.776H283.483C283.899 16.776 284.251 16.624 284.539 16.32C284.835 16.016 284.983 15.644 284.983 15.204C284.983 14.764 284.835 14.396 284.539 14.1C284.251 13.796 283.899 13.644 283.483 13.644ZM292.806 18.48H287.778C287.882 19.008 288.126 19.424 288.51 19.728C288.894 20.024 289.374 20.172 289.95 20.172C290.742 20.172 291.318 19.88 291.678 19.296L292.566 19.8C291.974 20.704 291.094 21.156 289.926 21.156C288.982 21.156 288.206 20.86 287.598 20.268C287.006 19.66 286.71 18.904 286.71 18C286.71 17.088 287.002 16.336 287.586 15.744C288.17 15.144 288.926 14.844 289.854 14.844C290.734 14.844 291.45 15.156 292.002 15.78C292.562 16.388 292.842 17.132 292.842 18.012C292.842 18.164 292.83 18.32 292.806 18.48ZM289.854 15.828C289.302 15.828 288.838 15.984 288.462 16.296C288.094 16.608 287.866 17.032 287.778 17.568H291.786C291.698 17.016 291.478 16.588 291.126 16.284C290.774 15.98 290.35 15.828 289.854 15.828ZM294.708 16.62C294.708 17.004 295.104 17.304 295.896 17.52C296.192 17.584 296.44 17.652 296.64 17.724C296.848 17.788 297.072 17.888 297.312 18.024C297.56 18.16 297.748 18.34 297.876 18.564C298.004 18.788 298.068 19.052 298.068 19.356C298.068 19.9 297.856 20.336 297.432 20.664C297.008 20.992 296.472 21.156 295.824 21.156C295.248 21.156 294.748 21.032 294.324 20.784C293.908 20.528 293.612 20.184 293.436 19.752L294.336 19.236C294.432 19.524 294.612 19.752 294.876 19.92C295.14 20.088 295.456 20.172 295.824 20.172C296.184 20.172 296.472 20.104 296.688 19.968C296.904 19.832 297.012 19.628 297.012 19.356C297.012 18.948 296.616 18.652 295.824 18.468C295.56 18.396 295.36 18.34 295.224 18.3C295.088 18.26 294.9 18.188 294.66 18.084C294.428 17.98 294.252 17.872 294.132 17.76C294.012 17.64 293.9 17.484 293.796 17.292C293.7 17.092 293.652 16.872 293.652 16.632C293.652 16.112 293.852 15.684 294.252 15.348C294.66 15.012 295.168 14.844 295.776 14.844C296.264 14.844 296.696 14.956 297.072 15.18C297.456 15.396 297.744 15.7 297.936 16.092L297.06 16.584C296.844 16.072 296.416 15.816 295.776 15.816C295.472 15.816 295.216 15.888 295.008 16.032C294.808 16.176 294.708 16.372 294.708 16.62ZM304.9 18.48H299.872C299.976 19.008 300.22 19.424 300.604 19.728C300.988 20.024 301.468 20.172 302.044 20.172C302.836 20.172 303.412 19.88 303.772 19.296L304.66 19.8C304.068 20.704 303.188 21.156 302.02 21.156C301.076 21.156 300.3 20.86 299.692 20.268C299.1 19.66 298.804 18.904 298.804 18C298.804 17.088 299.096 16.336 299.68 15.744C300.264 15.144 301.02 14.844 301.948 14.844C302.828 14.844 303.544 15.156 304.096 15.78C304.656 16.388 304.936 17.132 304.936 18.012C304.936 18.164 304.924 18.32 304.9 18.48ZM301.948 15.828C301.396 15.828 300.932 15.984 300.556 16.296C300.188 16.608 299.96 17.032 299.872 17.568H303.88C303.792 17.016 303.572 16.588 303.22 16.284C302.868 15.98 302.444 15.828 301.948 15.828ZM307.18 15V16.008C307.524 15.264 308.148 14.892 309.052 14.892V15.984C308.54 15.96 308.1 16.096 307.732 16.392C307.364 16.688 307.18 17.164 307.18 17.82V21H306.136V15H307.18ZM312.389 19.884L314.273 15H315.401L313.001 21H311.777L309.377 15H310.505L312.389 19.884ZM321.81 18.48H316.782C316.886 19.008 317.13 19.424 317.514 19.728C317.898 20.024 318.378 20.172 318.954 20.172C319.746 20.172 320.322 19.88 320.682 19.296L321.57 19.8C320.978 20.704 320.098 21.156 318.93 21.156C317.986 21.156 317.21 20.86 316.602 20.268C316.01 19.66 315.714 18.904 315.714 18C315.714 17.088 316.006 16.336 316.59 15.744C317.174 15.144 317.93 14.844 318.858 14.844C319.738 14.844 320.454 15.156 321.006 15.78C321.566 16.388 321.846 17.132 321.846 18.012C321.846 18.164 321.834 18.32 321.81 18.48ZM318.858 15.828C318.306 15.828 317.842 15.984 317.466 16.296C317.098 16.608 316.87 17.032 316.782 17.568H320.79C320.702 17.016 320.482 16.588 320.13 16.284C319.778 15.98 319.354 15.828 318.858 15.828ZM328.002 16.032V12.6H329.046V21H328.002V19.968C327.49 20.76 326.734 21.156 325.734 21.156C324.886 21.156 324.17 20.852 323.586 20.244C322.994 19.628 322.698 18.88 322.698 18C322.698 17.128 322.994 16.384 323.586 15.768C324.178 15.152 324.894 14.844 325.734 14.844C326.734 14.844 327.49 15.24 328.002 16.032ZM325.866 20.148C326.474 20.148 326.982 19.944 327.39 19.536C327.798 19.112 328.002 18.6 328.002 18C328.002 17.392 327.798 16.884 327.39 16.476C326.982 16.06 326.474 15.852 325.866 15.852C325.266 15.852 324.762 16.06 324.354 16.476C323.946 16.884 323.742 17.392 323.742 18C323.742 18.6 323.946 19.112 324.354 19.536C324.762 19.944 325.266 20.148 325.866 20.148Z" fill="white" fill-opacity="0.5"/>
</svg>
