<svg width="16" height="29" viewBox="0 0 16 29" fill="none" xmlns="http://www.w3.org/2000/svg">
<path d="M7.32113 28.2136C7.69606 28.5885 8.30394 28.5885 8.67887 28.2136L14.7887 22.1038C15.1636 21.7288 15.1636 21.1209 14.7887 20.746C14.4138 20.3711 13.8059 20.3711 13.431 20.746L8 26.177L2.56903 20.746C2.1941 20.3711 1.58621 20.3711 1.21128 20.746C0.836353 21.1209 0.836353 21.7288 1.21128 22.1038L7.32113 28.2136ZM7.03993 26.0337L7.03993 27.5347L8.96007 27.5347L8.96007 26.0337L7.03993 26.0337Z" fill="#9C60FF" fill-opacity="0.75"/>
<path d="M7.32113 18.1953C7.69606 18.5702 8.30394 18.5702 8.67887 18.1953L14.7887 12.0854C15.1636 11.7105 15.1636 11.1026 14.7887 10.7277C14.4138 10.3528 13.8059 10.3528 13.431 10.7277L8 16.1587L2.56903 10.7277C2.1941 10.3528 1.58621 10.3528 1.21128 10.7277C0.836353 11.1026 0.836353 11.7105 1.21128 12.0855L7.32113 18.1953ZM7.03993 16.0154L7.03993 17.5164L8.96007 17.5164L8.96007 16.0154L7.03993 16.0154Z" fill="#9C60FF" fill-opacity="0.4"/>
<path d="M7.32113 8.17991C7.69606 8.55484 8.30394 8.55484 8.67887 8.17991L14.7887 2.07007C15.1636 1.69514 15.1636 1.08726 14.7887 0.712324C14.4138 0.337394 13.8059 0.337394 13.431 0.712324L8 6.1433L2.56903 0.712325C2.1941 0.337394 1.58621 0.337395 1.21128 0.712325C0.836353 1.08726 0.836353 1.69514 1.21128 2.07007L7.32113 8.17991ZM7.03993 6L7.03993 7.50104L8.96007 7.50104L8.96007 6L7.03993 6Z" fill="#9C60FF" fill-opacity="0.2"/>
</svg>
