<svg width="1440" height="861" viewBox="0 0 1440 861" fill="none" xmlns="http://www.w3.org/2000/svg">
<path d="M-53.034 180.135L134.385 290.315C182.065 318.345 237.171 331.136 292.322 326.974V326.974C344.024 323.073 395.76 334.066 441.409 358.651L668.125 480.754C699.238 497.511 732.434 510.071 766.847 518.106L1187.89 616.412C1206.46 620.749 1225.32 623.751 1244.32 625.397L1512.84 648.653" stroke="#3455FF" stroke-opacity="0.1"/>
<path d="M-51.4065 859.575L264.321 761.354C302.873 749.361 343.019 743.273 383.394 743.298L687.406 743.489C740.187 743.523 792.451 733.11 841.189 712.852L1181.68 571.323C1236.82 548.401 1296.4 538.118 1356.03 541.227L1509.95 549.253" stroke="#3455FF" stroke-opacity="0.1"/>
<path d="M1729.5 47.3677L1358.7 148.538C1324.39 157.9 1288.98 162.644 1253.41 162.644L1176.84 162.644C1104.33 162.644 1033.35 141.81 972.349 102.621V102.621C916.019 66.4343 851.094 45.8438 784.204 42.9517L530.237 31.971C467.839 29.2732 406.94 12.0014 352.417 -18.4611L325.5 -33.5L141.865 -138.767C105.914 -159.375 66.9793 -174.272 26.4539 -182.924L-62.1702 -201.846" stroke="#3455FF" stroke-opacity="0.1"/>
</svg>
