<svg width="14" height="14" viewBox="0 0 14 14" fill="none" xmlns="http://www.w3.org/2000/svg">
<path d="M11.6666 4.66658L6.99996 7.58325L2.33329 4.66658V3.49992L6.99996 6.41658L11.6666 3.49992M11.6666 2.33325H2.33329C1.68579 2.33325 1.16663 2.85242 1.16663 3.49992V10.4999C1.16663 10.8093 1.28954 11.1061 1.50833 11.3249C1.72713 11.5437 2.02387 11.6666 2.33329 11.6666H11.6666C11.976 11.6666 12.2728 11.5437 12.4916 11.3249C12.7104 11.1061 12.8333 10.8093 12.8333 10.4999V3.49992C12.8333 3.1905 12.7104 2.89375 12.4916 2.67496C12.2728 2.45617 11.976 2.33325 11.6666 2.33325Z" fill="white" fill-opacity="0.5"/>
</svg>
