<svg width="393" height="614" viewBox="0 0 393 614" fill="none" xmlns="http://www.w3.org/2000/svg">
<g filter="url(#filter0_d_10_3)">
<rect y="28" width="393" height="558" rx="6.82292" fill="white"/>
</g>
<path d="M38.45 64H53.75V67.3H47.84V85H44.39V67.3H38.45V64ZM67.8859 78.88H55.9459C56.1859 80 56.7259 80.87 57.5659 81.49C58.4259 82.11 59.4859 82.42 60.7459 82.42C62.4459 82.42 63.7359 81.8 64.6159 80.56L67.2859 82.12C65.8259 84.3 63.6359 85.39 60.7159 85.39C58.2959 85.39 56.3259 84.65 54.8059 83.17C53.3059 81.67 52.5559 79.78 52.5559 77.5C52.5559 75.28 53.2959 73.41 54.7759 71.89C56.2359 70.37 58.1359 69.61 60.4759 69.61C62.6559 69.61 64.4559 70.38 65.8759 71.92C67.2959 73.46 68.0059 75.33 68.0059 77.53C68.0059 77.93 67.9659 78.38 67.8859 78.88ZM55.9159 76.24H64.7359C64.5159 75.06 64.0159 74.15 63.2359 73.51C62.4759 72.87 61.5459 72.55 60.4459 72.55C59.2459 72.55 58.2459 72.88 57.4459 73.54C56.6459 74.2 56.1359 75.1 55.9159 76.24ZM77.8489 85.39C75.5889 85.39 73.6989 84.63 72.1789 83.11C70.6789 81.57 69.9289 79.7 69.9289 77.5C69.9289 75.26 70.6789 73.39 72.1789 71.89C73.6989 70.37 75.5889 69.61 77.8489 69.61C79.3089 69.61 80.6389 69.96 81.8389 70.66C83.0389 71.36 83.9389 72.3 84.5389 73.48L81.7489 75.1C81.4089 74.38 80.8889 73.82 80.1889 73.42C79.5089 73 78.7189 72.79 77.8189 72.79C76.4989 72.79 75.3889 73.24 74.4889 74.14C73.6089 75.06 73.1689 76.18 73.1689 77.5C73.1689 78.82 73.6089 79.94 74.4889 80.86C75.3889 81.76 76.4989 82.21 77.8189 82.21C78.6989 82.21 79.4889 82.01 80.1889 81.61C80.9089 81.19 81.4489 80.62 81.8089 79.9L84.5989 81.49C83.9589 82.69 83.0289 83.64 81.8089 84.34C80.6089 85.04 79.2889 85.39 77.8489 85.39ZM94.8308 69.61C96.5708 69.61 97.9608 70.17 99.0008 71.29C100.061 72.39 100.591 73.89 100.591 75.79V85H97.3508V76.12C97.3508 75 97.0508 74.14 96.4508 73.54C95.8508 72.94 95.0308 72.64 93.9908 72.64C92.8108 72.64 91.8808 73.01 91.2008 73.75C90.5208 74.47 90.1808 75.54 90.1808 76.96V85H86.9408V64H90.1808V71.92C91.1808 70.38 92.7308 69.61 94.8308 69.61ZM111.969 69.61C113.709 69.61 115.099 70.17 116.139 71.29C117.199 72.39 117.729 73.89 117.729 75.79V85H114.489V76.12C114.489 75 114.189 74.14 113.589 73.54C112.989 72.94 112.169 72.64 111.129 72.64C109.949 72.64 109.019 73.01 108.339 73.75C107.659 74.47 107.319 75.54 107.319 76.96V85H104.079V70H107.319V71.92C108.319 70.38 109.869 69.61 111.969 69.61ZM133.908 83.11C132.388 84.63 130.518 85.39 128.298 85.39C126.078 85.39 124.208 84.63 122.688 83.11C121.148 81.57 120.378 79.7 120.378 77.5C120.378 75.3 121.148 73.43 122.688 71.89C124.208 70.37 126.078 69.61 128.298 69.61C130.518 69.61 132.388 70.37 133.908 71.89C135.448 73.43 136.218 75.3 136.218 77.5C136.218 79.7 135.448 81.57 133.908 83.11ZM123.618 77.5C123.618 78.86 124.068 79.99 124.968 80.89C125.868 81.79 126.978 82.24 128.298 82.24C129.618 82.24 130.728 81.79 131.628 80.89C132.528 79.99 132.978 78.86 132.978 77.5C132.978 76.14 132.528 75.01 131.628 74.11C130.728 73.21 129.618 72.76 128.298 72.76C126.978 72.76 125.868 73.21 124.968 74.11C124.068 75.01 123.618 76.14 123.618 77.5ZM142.388 85H139.148V63.1H142.388V85ZM158.84 83.11C157.32 84.63 155.45 85.39 153.23 85.39C151.01 85.39 149.14 84.63 147.62 83.11C146.08 81.57 145.31 79.7 145.31 77.5C145.31 75.3 146.08 73.43 147.62 71.89C149.14 70.37 151.01 69.61 153.23 69.61C155.45 69.61 157.32 70.37 158.84 71.89C160.38 73.43 161.15 75.3 161.15 77.5C161.15 79.7 160.38 81.57 158.84 83.11ZM148.55 77.5C148.55 78.86 149 79.99 149.9 80.89C150.8 81.79 151.91 82.24 153.23 82.24C154.55 82.24 155.66 81.79 156.56 80.89C157.46 79.99 157.91 78.86 157.91 77.5C157.91 76.14 157.46 75.01 156.56 74.11C155.66 73.21 154.55 72.76 153.23 72.76C151.91 72.76 150.8 73.21 149.9 74.11C149 75.01 148.55 76.14 148.55 77.5ZM176.019 72.22V70H179.199V84.31C179.199 86.59 178.449 88.34 176.949 89.56C175.469 90.78 173.649 91.39 171.489 91.39C168.029 91.39 165.659 90.18 164.379 87.76L167.169 86.14C167.949 87.68 169.409 88.45 171.549 88.45C172.949 88.45 174.039 88.08 174.819 87.34C175.619 86.62 176.019 85.61 176.019 84.31V82.48C174.799 84.22 173.059 85.09 170.799 85.09C168.699 85.09 166.909 84.34 165.429 82.84C163.969 81.32 163.239 79.49 163.239 77.35C163.239 75.19 163.969 73.37 165.429 71.89C166.889 70.37 168.679 69.61 170.799 69.61C173.059 69.61 174.799 70.48 176.019 72.22ZM167.829 80.71C168.749 81.61 169.889 82.06 171.249 82.06C172.609 82.06 173.739 81.61 174.639 80.71C175.559 79.81 176.019 78.69 176.019 77.35C176.019 76.01 175.559 74.89 174.639 73.99C173.739 73.09 172.609 72.64 171.249 72.64C169.889 72.64 168.749 73.09 167.829 73.99C166.929 74.89 166.479 76.01 166.479 77.35C166.479 78.69 166.929 79.81 167.829 80.71ZM186.036 67.15C185.636 67.55 185.156 67.75 184.596 67.75C184.036 67.75 183.546 67.55 183.126 67.15C182.726 66.73 182.526 66.24 182.526 65.68C182.526 65.12 182.726 64.64 183.126 64.24C183.526 63.82 184.016 63.61 184.596 63.61C185.176 63.61 185.666 63.82 186.066 64.24C186.466 64.64 186.666 65.12 186.666 65.68C186.666 66.24 186.456 66.73 186.036 67.15ZM186.216 85H182.976V70H186.216V85ZM204.468 78.88H192.528C192.768 80 193.308 80.87 194.148 81.49C195.008 82.11 196.068 82.42 197.328 82.42C199.028 82.42 200.318 81.8 201.198 80.56L203.868 82.12C202.408 84.3 200.218 85.39 197.298 85.39C194.878 85.39 192.908 84.65 191.388 83.17C189.888 81.67 189.138 79.78 189.138 77.5C189.138 75.28 189.878 73.41 191.358 71.89C192.818 70.37 194.718 69.61 197.058 69.61C199.238 69.61 201.038 70.38 202.458 71.92C203.878 73.46 204.588 75.33 204.588 77.53C204.588 77.93 204.548 78.38 204.468 78.88ZM192.498 76.24H201.318C201.098 75.06 200.598 74.15 199.818 73.51C199.058 72.87 198.128 72.55 197.028 72.55C195.828 72.55 194.828 72.88 194.028 73.54C193.228 74.2 192.718 75.1 192.498 76.24ZM209.763 74.14C209.763 74.6 210.003 74.98 210.483 75.28C210.963 75.56 211.663 75.83 212.583 76.09C213.283 76.25 213.893 76.42 214.413 76.6C214.933 76.78 215.483 77.05 216.063 77.41C216.643 77.75 217.083 78.21 217.383 78.79C217.703 79.35 217.853 80.01 217.833 80.77C217.833 82.21 217.273 83.34 216.153 84.16C215.033 84.98 213.643 85.39 211.983 85.39C210.503 85.39 209.233 85.08 208.173 84.46C207.113 83.84 206.343 82.98 205.863 81.88L208.653 80.26C209.153 81.7 210.263 82.42 211.983 82.42C213.683 82.42 214.533 81.86 214.533 80.74C214.533 79.92 213.583 79.28 211.683 78.82C210.963 78.64 210.353 78.46 209.853 78.28C209.373 78.1 208.833 77.84 208.233 77.5C207.653 77.16 207.203 76.71 206.883 76.15C206.583 75.59 206.443 74.94 206.463 74.2C206.463 72.82 206.983 71.71 208.023 70.87C209.083 70.03 210.393 69.61 211.953 69.61C213.193 69.61 214.293 69.89 215.253 70.45C216.233 70.99 216.983 71.75 217.503 72.73L214.773 74.26C214.273 73.12 213.333 72.55 211.953 72.55C211.313 72.55 210.783 72.69 210.363 72.97C209.963 73.25 209.763 73.64 209.763 74.14Z" fill="black"/>
<g filter="url(#filter1_b_10_3)">
<rect x="60" y="137" width="143.789" height="57" rx="11.0607" fill="#F258FF" fill-opacity="0.15"/>
<rect x="60" y="137" width="143.789" height="57" rx="11.0607" fill="#2E0C3F" fill-opacity="0.6"/>
<rect x="59.7486" y="136.749" width="144.292" height="57.5028" rx="11.3121" stroke="white" stroke-opacity="0.2" stroke-width="0.50276"/>
</g>
<g filter="url(#filter2_b_10_3)">
<rect x="60" y="274" width="120" height="57" rx="10" fill="#F258FF" fill-opacity="0.15"/>
<rect x="60" y="274" width="120" height="57" rx="10" fill="#2E0C3F" fill-opacity="0.6"/>
<rect x="59.7318" y="273.732" width="120.536" height="57.5363" rx="10.2682" stroke="white" stroke-opacity="0.2" stroke-width="0.536344"/>
</g>
<g filter="url(#filter3_b_10_3)">
<rect x="222" y="206" width="111" height="57" rx="10.2491" fill="#F258FF" fill-opacity="0.15"/>
<rect x="222" y="206" width="111" height="57" rx="10.2491" fill="#2E0C3F" fill-opacity="0.6"/>
<rect x="221.767" y="205.767" width="111.466" height="57.4659" rx="10.482" stroke="white" stroke-opacity="0.2" stroke-width="0.465869"/>
</g>
<g filter="url(#filter4_b_10_3)">
<rect x="233" y="475.264" width="100" height="57" rx="8" fill="#F258FF" fill-opacity="0.15"/>
<rect x="233" y="475.264" width="100" height="57" rx="8" fill="#2E0C3F" fill-opacity="0.6"/>
<rect x="232.677" y="474.941" width="100.645" height="57.6454" rx="8.3227" stroke="white" stroke-opacity="0.2" stroke-width="0.645392"/>
</g>
<g filter="url(#filter5_b_10_3)">
<rect x="60" y="343" width="127" height="57" rx="9.68712" fill="#F258FF" fill-opacity="0.15"/>
<rect x="60" y="343" width="127" height="57" rx="9.68712" fill="#2E0C3F" fill-opacity="0.6"/>
<rect x="59.7798" y="342.78" width="127.44" height="57.4403" rx="9.90728" stroke="white" stroke-opacity="0.2" stroke-width="0.440323"/>
</g>
<g filter="url(#filter6_b_10_3)">
<rect x="60" y="409" width="145" height="57" rx="8.5071" fill="#F258FF" fill-opacity="0.15"/>
<rect x="60" y="409" width="145" height="57" rx="8.5071" fill="#2E0C3F" fill-opacity="0.6"/>
<rect x="59.8067" y="408.807" width="145.387" height="57.3867" rx="8.70045" stroke="white" stroke-opacity="0.2" stroke-width="0.386686"/>
</g>
<g filter="url(#filter7_b_10_3)">
<rect x="215" y="409.264" width="118" height="57" rx="8.5071" fill="#F258FF" fill-opacity="0.15"/>
<rect x="215" y="409.264" width="118" height="57" rx="8.5071" fill="#2E0C3F" fill-opacity="0.6"/>
<rect x="214.807" y="409.071" width="118.387" height="57.3867" rx="8.70045" stroke="white" stroke-opacity="0.2" stroke-width="0.386686"/>
</g>
<g filter="url(#filter8_b_10_3)">
<rect x="60" y="206" width="153" height="57" rx="10.2491" fill="#F258FF" fill-opacity="0.15"/>
<rect x="60" y="206" width="153" height="57" rx="10.2491" fill="#2E0C3F" fill-opacity="0.6"/>
<rect x="59.7671" y="205.767" width="153.466" height="57.4659" rx="10.482" stroke="white" stroke-opacity="0.2" stroke-width="0.465869"/>
</g>
<g filter="url(#filter9_b_10_3)">
<rect x="213.845" y="137" width="119.154" height="57" rx="11.0607" fill="#F258FF" fill-opacity="0.15"/>
<rect x="213.845" y="137" width="119.154" height="57" rx="11.0607" fill="#2E0C3F" fill-opacity="0.6"/>
<rect x="213.593" y="136.749" width="119.657" height="57.5028" rx="11.3121" stroke="white" stroke-opacity="0.2" stroke-width="0.50276"/>
</g>
<path d="M98.0343 169.619H96.2997L93.2455 160.821H94.8292L97.167 167.872L99.5174 160.821H101.089L98.0343 169.619ZM102.977 162.14C102.81 162.308 102.608 162.392 102.374 162.392C102.139 162.392 101.934 162.308 101.758 162.14C101.59 161.964 101.507 161.759 101.507 161.524C101.507 161.29 101.59 161.089 101.758 160.921C101.926 160.745 102.131 160.657 102.374 160.657C102.617 160.657 102.822 160.745 102.99 160.921C103.157 161.089 103.241 161.29 103.241 161.524C103.241 161.759 103.153 161.964 102.977 162.14ZM103.053 169.619H101.695V163.334H103.053V169.619ZM105.986 163.334V164.39C106.33 163.611 106.975 163.221 107.922 163.221V164.692C107.411 164.658 106.958 164.784 106.564 165.069C106.179 165.345 105.986 165.806 105.986 166.452V169.619H104.629V163.334H105.986ZM112.591 163.334V164.642H111.032V167.658C111.032 167.918 111.091 168.106 111.208 168.224C111.326 168.333 111.498 168.396 111.724 168.412C111.958 168.421 112.247 168.416 112.591 168.4V169.619C111.552 169.745 110.806 169.657 110.354 169.355C109.901 169.045 109.675 168.479 109.675 167.658V164.642H108.519V163.334H109.675V161.977L111.032 161.575V163.334H112.591ZM118.119 166.703V163.334H119.477V169.619H118.119V168.814C117.7 169.46 117.051 169.782 116.171 169.782C115.442 169.782 114.856 169.552 114.411 169.091C113.976 168.622 113.758 167.989 113.758 167.193V163.334H115.115V167.055C115.115 167.524 115.241 167.884 115.492 168.136C115.744 168.387 116.087 168.513 116.523 168.513C117.017 168.513 117.407 168.362 117.692 168.06C117.977 167.75 118.119 167.298 118.119 166.703ZM126.041 164.227V163.334H127.399V169.619H126.041V168.714C125.53 169.426 124.797 169.782 123.842 169.782C122.979 169.782 122.241 169.464 121.63 168.827C121.018 168.19 120.712 167.407 120.712 166.477C120.712 165.547 121.018 164.763 121.63 164.126C122.241 163.489 122.979 163.171 123.842 163.171C124.797 163.171 125.53 163.523 126.041 164.227ZM122.635 167.922C123.012 168.299 123.486 168.488 124.056 168.488C124.625 168.488 125.099 168.299 125.476 167.922C125.853 167.537 126.041 167.055 126.041 166.477C126.041 165.898 125.853 165.421 125.476 165.044C125.099 164.658 124.625 164.466 124.056 164.466C123.486 164.466 123.012 164.658 122.635 165.044C122.258 165.421 122.07 165.898 122.07 166.477C122.07 167.046 122.258 167.528 122.635 167.922ZM130.339 169.619H128.981V160.444H130.339V169.619ZM133.197 162.14C133.029 162.308 132.828 162.392 132.593 162.392C132.359 162.392 132.154 162.308 131.978 162.14C131.81 161.964 131.726 161.759 131.726 161.524C131.726 161.29 131.81 161.089 131.978 160.921C132.145 160.745 132.35 160.657 132.593 160.657C132.836 160.657 133.042 160.745 133.209 160.921C133.377 161.089 133.461 161.29 133.461 161.524C133.461 161.759 133.373 161.964 133.197 162.14ZM133.272 169.619H131.915V163.334H133.272V169.619ZM139.398 164.239L136.47 168.337H139.524V169.619H134.622V168.714L137.563 164.616H134.748V163.334H139.398V164.239ZM145.386 164.227V163.334H146.743V169.619H145.386V168.714C144.875 169.426 144.142 169.782 143.186 169.782C142.323 169.782 141.586 169.464 140.974 168.827C140.363 168.19 140.057 167.407 140.057 166.477C140.057 165.547 140.363 164.763 140.974 164.126C141.586 163.489 142.323 163.171 143.186 163.171C144.142 163.171 144.875 163.523 145.386 164.227ZM141.98 167.922C142.357 168.299 142.83 168.488 143.4 168.488C143.97 168.488 144.443 168.299 144.82 167.922C145.197 167.537 145.386 167.055 145.386 166.477C145.386 165.898 145.197 165.421 144.82 165.044C144.443 164.658 143.97 164.466 143.4 164.466C142.83 164.466 142.357 164.658 141.98 165.044C141.603 165.421 141.414 165.898 141.414 166.477C141.414 167.046 141.603 167.528 141.98 167.922ZM151.832 163.334V164.642H150.274V167.658C150.274 167.918 150.332 168.106 150.45 168.224C150.567 168.333 150.739 168.396 150.965 168.412C151.2 168.421 151.489 168.416 151.832 168.4V169.619C150.793 169.745 150.048 169.657 149.595 169.355C149.143 169.045 148.916 168.479 148.916 167.658V164.642H147.76V163.334H148.916V161.977L150.274 161.575V163.334H151.832ZM154.346 162.14C154.178 162.308 153.977 162.392 153.742 162.392C153.508 162.392 153.302 162.308 153.126 162.14C152.959 161.964 152.875 161.759 152.875 161.524C152.875 161.29 152.959 161.089 153.126 160.921C153.294 160.745 153.499 160.657 153.742 160.657C153.985 160.657 154.191 160.745 154.358 160.921C154.526 161.089 154.61 161.29 154.61 161.524C154.61 161.759 154.522 161.964 154.346 162.14ZM154.421 169.619H153.064V163.334H154.421V169.619ZM161.314 168.827C160.677 169.464 159.894 169.782 158.963 169.782C158.033 169.782 157.25 169.464 156.613 168.827C155.968 168.182 155.645 167.398 155.645 166.477C155.645 165.555 155.968 164.771 156.613 164.126C157.25 163.489 158.033 163.171 158.963 163.171C159.894 163.171 160.677 163.489 161.314 164.126C161.959 164.771 162.282 165.555 162.282 166.477C162.282 167.398 161.959 168.182 161.314 168.827ZM157.003 166.477C157.003 167.046 157.191 167.52 157.568 167.897C157.945 168.274 158.41 168.463 158.963 168.463C159.516 168.463 159.982 168.274 160.359 167.897C160.736 167.52 160.924 167.046 160.924 166.477C160.924 165.907 160.736 165.433 160.359 165.056C159.982 164.679 159.516 164.491 158.963 164.491C158.41 164.491 157.945 164.679 157.568 165.056C157.191 165.433 157.003 165.907 157.003 166.477ZM166.815 163.171C167.544 163.171 168.126 163.406 168.562 163.875C169.006 164.336 169.228 164.964 169.228 165.76V169.619H167.871V165.898C167.871 165.429 167.745 165.069 167.493 164.818C167.242 164.566 166.899 164.44 166.463 164.44C165.968 164.44 165.579 164.595 165.294 164.906C165.009 165.207 164.867 165.655 164.867 166.25V169.619H163.509V163.334H164.867V164.139C165.286 163.494 165.935 163.171 166.815 163.171Z" fill="white"/>
<path d="M247.907 160.821H251.364C252.57 160.821 253.572 161.244 254.368 162.09C255.172 162.936 255.574 163.98 255.574 165.22C255.574 166.452 255.172 167.495 254.368 168.349C253.572 169.196 252.57 169.619 251.364 169.619H247.907V160.821ZM249.353 168.236H251.364C252.193 168.236 252.868 167.951 253.387 167.382C253.915 166.812 254.179 166.091 254.179 165.22C254.179 164.348 253.915 163.628 253.387 163.058C252.868 162.488 252.193 162.203 251.364 162.203H249.353V168.236ZM262.875 167.055H257.872C257.973 167.524 258.199 167.889 258.551 168.148C258.911 168.408 259.356 168.538 259.883 168.538C260.596 168.538 261.136 168.278 261.505 167.759L262.624 168.412C262.012 169.326 261.094 169.782 259.871 169.782C258.857 169.782 258.032 169.472 257.395 168.852C256.766 168.224 256.452 167.432 256.452 166.477C256.452 165.547 256.762 164.763 257.382 164.126C257.994 163.489 258.79 163.171 259.77 163.171C260.684 163.171 261.438 163.494 262.033 164.139C262.628 164.784 262.925 165.567 262.925 166.489C262.925 166.657 262.908 166.845 262.875 167.055ZM257.86 165.949H261.555C261.463 165.454 261.254 165.073 260.927 164.805C260.608 164.537 260.219 164.403 259.758 164.403C259.255 164.403 258.836 164.541 258.501 164.818C258.166 165.094 257.952 165.471 257.86 165.949ZM266.388 168.111L268.135 163.334H269.618L267.167 169.619H265.596L263.145 163.334H264.628L266.388 168.111ZM274.971 166.452H270.32V165.144H274.971V166.452ZM284.08 168.463C283.201 169.342 282.124 169.782 280.85 169.782C279.577 169.782 278.496 169.342 277.607 168.463C276.728 167.574 276.288 166.493 276.288 165.22C276.288 163.946 276.728 162.869 277.607 161.99C278.496 161.101 279.577 160.657 280.85 160.657C282.124 160.657 283.201 161.101 284.08 161.99C284.969 162.869 285.413 163.946 285.413 165.22C285.413 166.493 284.969 167.574 284.08 168.463ZM278.625 167.482C279.237 168.077 279.979 168.375 280.85 168.375C281.73 168.375 282.467 168.077 283.062 167.482C283.666 166.879 283.967 166.125 283.967 165.22C283.967 164.315 283.666 163.565 283.062 162.97C282.467 162.367 281.73 162.065 280.85 162.065C279.97 162.065 279.229 162.367 278.625 162.97C278.031 163.565 277.733 164.315 277.733 165.22C277.733 166.116 278.031 166.87 278.625 167.482ZM290.2 163.171C291.055 163.171 291.792 163.494 292.412 164.139C293.024 164.776 293.33 165.555 293.33 166.477C293.33 167.407 293.024 168.19 292.412 168.827C291.801 169.464 291.063 169.782 290.2 169.782C289.253 169.782 288.52 169.43 288.001 168.726V172.133H286.643V163.334H288.001V164.239C288.512 163.527 289.245 163.171 290.2 163.171ZM288.566 167.922C288.943 168.299 289.417 168.488 289.987 168.488C290.556 168.488 291.03 168.299 291.407 167.922C291.784 167.537 291.972 167.055 291.972 166.477C291.972 165.898 291.784 165.421 291.407 165.044C291.03 164.658 290.556 164.466 289.987 164.466C289.417 164.466 288.943 164.658 288.566 165.044C288.189 165.421 288.001 165.898 288.001 166.477C288.001 167.046 288.189 167.528 288.566 167.922ZM295.657 165.069C295.657 165.262 295.757 165.421 295.958 165.547C296.159 165.664 296.453 165.777 296.838 165.886C297.131 165.953 297.387 166.024 297.605 166.1C297.823 166.175 298.053 166.288 298.296 166.439C298.539 166.581 298.723 166.774 298.849 167.017C298.983 167.252 299.046 167.528 299.038 167.847C299.038 168.45 298.803 168.923 298.334 169.267C297.865 169.611 297.282 169.782 296.587 169.782C295.967 169.782 295.435 169.652 294.99 169.393C294.546 169.133 294.224 168.773 294.023 168.312L295.192 167.633C295.401 168.236 295.866 168.538 296.587 168.538C297.299 168.538 297.655 168.303 297.655 167.834C297.655 167.491 297.257 167.222 296.461 167.03C296.159 166.954 295.904 166.879 295.694 166.803C295.493 166.728 295.267 166.619 295.016 166.477C294.773 166.334 294.584 166.146 294.45 165.911C294.324 165.676 294.266 165.404 294.274 165.094C294.274 164.516 294.492 164.051 294.928 163.699C295.372 163.347 295.921 163.171 296.574 163.171C297.094 163.171 297.555 163.288 297.957 163.523C298.367 163.749 298.682 164.068 298.899 164.478L297.756 165.119C297.546 164.642 297.152 164.403 296.574 164.403C296.306 164.403 296.084 164.461 295.908 164.579C295.74 164.696 295.657 164.859 295.657 165.069Z" fill="white"/>
<path d="M96.2158 375.264H94.8508L94.3114 373.712H91.031L90.4916 375.264H89.1156L91.9116 367.558H93.4308L96.2158 375.264ZM92.6712 369.044L91.4493 372.523H93.8931L92.6712 369.044ZM100.083 369.617C100.831 369.617 101.477 369.899 102.02 370.464C102.556 371.022 102.824 371.705 102.824 372.512C102.824 373.326 102.556 374.013 102.02 374.57C101.484 375.128 100.839 375.407 100.083 375.407C99.2534 375.407 98.6112 375.099 98.1562 374.482V377.466H96.9674V369.76H98.1562V370.552C98.6039 369.929 99.246 369.617 100.083 369.617ZM98.6516 373.778C98.9818 374.108 99.3965 374.273 99.8955 374.273C100.395 374.273 100.809 374.108 101.139 373.778C101.47 373.44 101.635 373.018 101.635 372.512C101.635 372.006 101.47 371.587 101.139 371.257C100.809 370.919 100.395 370.751 99.8955 370.751C99.3965 370.751 98.9818 370.919 98.6516 371.257C98.3214 371.587 98.1562 372.006 98.1562 372.512C98.1562 373.011 98.3214 373.433 98.6516 373.778ZM107.016 369.617C107.765 369.617 108.411 369.899 108.954 370.464C109.49 371.022 109.757 371.705 109.757 372.512C109.757 373.326 109.49 374.013 108.954 374.57C108.418 375.128 107.772 375.407 107.016 375.407C106.187 375.407 105.545 375.099 105.09 374.482V377.466H103.901V369.76H105.09V370.552C105.538 369.929 106.18 369.617 107.016 369.617ZM105.585 373.778C105.916 374.108 106.33 374.273 106.829 374.273C107.328 374.273 107.743 374.108 108.073 373.778C108.403 373.44 108.569 373.018 108.569 372.512C108.569 372.006 108.403 371.587 108.073 371.257C107.743 370.919 107.328 370.751 106.829 370.751C106.33 370.751 105.916 370.919 105.585 371.257C105.255 371.587 105.09 372.006 105.09 372.512C105.09 373.011 105.255 373.433 105.585 373.778ZM120.104 374.251C119.333 375.022 118.39 375.407 117.275 375.407C116.159 375.407 115.213 375.022 114.435 374.251C113.664 373.473 113.279 372.527 113.279 371.411C113.279 370.296 113.664 369.353 114.435 368.582C115.213 367.804 116.159 367.415 117.275 367.415C118.39 367.415 119.333 367.804 120.104 368.582C120.882 369.353 121.271 370.296 121.271 371.411C121.271 372.527 120.882 373.473 120.104 374.251ZM115.326 373.393C115.862 373.914 116.511 374.174 117.275 374.174C118.045 374.174 118.691 373.914 119.212 373.393C119.741 372.864 120.005 372.204 120.005 371.411C120.005 370.619 119.741 369.962 119.212 369.441C118.691 368.912 118.045 368.648 117.275 368.648C116.504 368.648 115.855 368.912 115.326 369.441C114.805 369.962 114.545 370.619 114.545 371.411C114.545 372.196 114.805 372.857 115.326 373.393ZM125.464 369.617C126.212 369.617 126.858 369.899 127.401 370.464C127.937 371.022 128.205 371.705 128.205 372.512C128.205 373.326 127.937 374.013 127.401 374.57C126.865 375.128 126.219 375.407 125.464 375.407C124.634 375.407 123.992 375.099 123.537 374.482V377.466H122.348V369.76H123.537V370.552C123.985 369.929 124.627 369.617 125.464 369.617ZM124.033 373.778C124.363 374.108 124.777 374.273 125.276 374.273C125.775 374.273 126.19 374.108 126.52 373.778C126.851 373.44 127.016 373.018 127.016 372.512C127.016 372.006 126.851 371.587 126.52 371.257C126.19 370.919 125.775 370.751 125.276 370.751C124.777 370.751 124.363 370.919 124.033 371.257C123.702 371.587 123.537 372.006 123.537 372.512C123.537 373.011 123.702 373.433 124.033 373.778ZM132.246 369.76V370.905H130.881V373.547C130.881 373.774 130.932 373.939 131.035 374.042C131.138 374.137 131.288 374.192 131.486 374.207C131.692 374.214 131.945 374.211 132.246 374.196V375.264C131.336 375.374 130.683 375.297 130.286 375.033C129.89 374.761 129.692 374.266 129.692 373.547V370.905H128.679V369.76H129.692V368.571L130.881 368.219V369.76H132.246ZM134.447 368.714C134.3 368.861 134.124 368.934 133.919 368.934C133.713 368.934 133.533 368.861 133.379 368.714C133.232 368.56 133.159 368.38 133.159 368.175C133.159 367.969 133.232 367.793 133.379 367.646C133.526 367.492 133.706 367.415 133.919 367.415C134.131 367.415 134.311 367.492 134.458 367.646C134.605 367.793 134.678 367.969 134.678 368.175C134.678 368.38 134.601 368.56 134.447 368.714ZM134.513 375.264H133.324V369.76H134.513V375.264ZM141.904 369.617C142.528 369.617 143.03 369.819 143.412 370.222C143.794 370.626 143.984 371.169 143.984 371.851V375.264H142.795V371.928C142.795 371.554 142.7 371.261 142.509 371.048C142.318 370.835 142.058 370.729 141.728 370.729C141.353 370.729 141.06 370.853 140.847 371.103C140.634 371.345 140.528 371.705 140.528 372.182V375.264H139.339V371.928C139.339 371.547 139.247 371.253 139.064 371.048C138.888 370.835 138.634 370.729 138.304 370.729C137.937 370.729 137.64 370.853 137.413 371.103C137.192 371.352 137.082 371.712 137.082 372.182V375.264H135.893V369.76H137.082V370.42C137.435 369.885 137.959 369.617 138.656 369.617C139.361 369.617 139.882 369.907 140.22 370.486C140.579 369.907 141.141 369.617 141.904 369.617ZM146.38 368.714C146.233 368.861 146.057 368.934 145.851 368.934C145.646 368.934 145.466 368.861 145.312 368.714C145.165 368.56 145.092 368.38 145.092 368.175C145.092 367.969 145.165 367.793 145.312 367.646C145.459 367.492 145.638 367.415 145.851 367.415C146.064 367.415 146.244 367.492 146.391 367.646C146.537 367.793 146.611 367.969 146.611 368.175C146.611 368.38 146.534 368.56 146.38 368.714ZM146.446 375.264H145.257V369.76H146.446V375.264ZM151.811 370.552L149.246 374.141H151.921V375.264H147.628V374.471L150.204 370.883H147.738V369.76H151.811V370.552ZM158.013 373.018H153.631C153.72 373.429 153.918 373.748 154.226 373.976C154.541 374.203 154.93 374.317 155.393 374.317C156.017 374.317 156.49 374.09 156.813 373.635L157.793 374.207C157.257 375.007 156.453 375.407 155.382 375.407C154.494 375.407 153.771 375.135 153.213 374.592C152.663 374.042 152.388 373.349 152.388 372.512C152.388 371.697 152.659 371.011 153.202 370.453C153.738 369.896 154.435 369.617 155.294 369.617C156.094 369.617 156.754 369.899 157.275 370.464C157.796 371.029 158.057 371.716 158.057 372.523C158.057 372.67 158.042 372.835 158.013 373.018ZM153.62 372.05H156.857C156.776 371.617 156.593 371.283 156.306 371.048C156.028 370.813 155.686 370.696 155.283 370.696C154.842 370.696 154.475 370.817 154.182 371.059C153.888 371.301 153.701 371.631 153.62 372.05Z" fill="white"/>
<path d="M91.8051 441.264H90.6064L90.1327 439.901H87.2519L86.7782 441.264H85.5698L88.0253 434.497H89.3593L91.8051 441.264ZM88.6923 435.802L87.6193 438.857H89.7654L88.6923 435.802ZM95.6663 439.021V436.43H96.7104V441.264H95.6663V440.645C95.3441 441.141 94.8446 441.39 94.1679 441.39C93.6072 441.39 93.1561 441.212 92.8145 440.858C92.4794 440.497 92.3118 440.01 92.3118 439.398V436.43H93.3559V439.292C93.3559 439.653 93.4526 439.93 93.6459 440.123C93.8392 440.317 94.1035 440.413 94.4386 440.413C94.8189 440.413 95.1185 440.297 95.3377 440.065C95.5568 439.827 95.6663 439.479 95.6663 439.021ZM100.628 436.43V437.436H99.4297V439.756C99.4297 439.956 99.4748 440.101 99.565 440.191C99.6552 440.275 99.7873 440.323 99.9614 440.336C100.142 440.342 100.364 440.339 100.628 440.326V441.264C99.8292 441.361 99.2557 441.293 98.9076 441.061C98.5596 440.822 98.3856 440.387 98.3856 439.756V437.436H97.4962V436.43H98.3856V435.386L99.4297 435.077V436.43H100.628ZM105.466 440.655C104.976 441.145 104.374 441.39 103.659 441.39C102.943 441.39 102.341 441.145 101.851 440.655C101.355 440.159 101.106 439.556 101.106 438.847C101.106 438.138 101.355 437.536 101.851 437.039C102.341 436.55 102.943 436.305 103.659 436.305C104.374 436.305 104.976 436.55 105.466 437.039C105.963 437.536 106.211 438.138 106.211 438.847C106.211 439.556 105.963 440.159 105.466 440.655ZM102.15 438.847C102.15 439.285 102.295 439.649 102.585 439.94C102.875 440.23 103.233 440.375 103.659 440.375C104.084 440.375 104.442 440.23 104.732 439.94C105.022 439.649 105.167 439.285 105.167 438.847C105.167 438.409 105.022 438.045 104.732 437.755C104.442 437.465 104.084 437.32 103.659 437.32C103.233 437.32 102.875 437.465 102.585 437.755C102.295 438.045 102.15 438.409 102.15 438.847ZM112.433 436.305C112.981 436.305 113.422 436.482 113.757 436.836C114.093 437.191 114.26 437.668 114.26 438.267V441.264H113.216V438.335C113.216 438.006 113.132 437.748 112.965 437.561C112.797 437.374 112.568 437.281 112.278 437.281C111.95 437.281 111.692 437.391 111.505 437.61C111.318 437.822 111.225 438.138 111.225 438.557V441.264H110.181V438.335C110.181 438 110.1 437.742 109.939 437.561C109.784 437.374 109.562 437.281 109.272 437.281C108.95 437.281 108.689 437.391 108.489 437.61C108.295 437.829 108.199 438.145 108.199 438.557V441.264H107.155V436.43H108.199V437.01C108.508 436.54 108.969 436.305 109.581 436.305C110.2 436.305 110.657 436.559 110.954 437.068C111.27 436.559 111.763 436.305 112.433 436.305ZM119.206 437.117V436.43H120.25V441.264H119.206V440.568C118.813 441.116 118.249 441.39 117.514 441.39C116.85 441.39 116.283 441.145 115.812 440.655C115.342 440.165 115.107 439.562 115.107 438.847C115.107 438.132 115.342 437.529 115.812 437.039C116.283 436.55 116.85 436.305 117.514 436.305C118.249 436.305 118.813 436.575 119.206 437.117ZM116.586 439.959C116.876 440.249 117.24 440.394 117.678 440.394C118.116 440.394 118.481 440.249 118.771 439.959C119.061 439.662 119.206 439.292 119.206 438.847C119.206 438.402 119.061 438.035 118.771 437.745C118.481 437.449 118.116 437.3 117.678 437.3C117.24 437.3 116.876 437.449 116.586 437.745C116.296 438.035 116.151 438.402 116.151 438.847C116.151 439.285 116.296 439.656 116.586 439.959ZM124.164 436.43V437.436H122.965V439.756C122.965 439.956 123.01 440.101 123.1 440.191C123.191 440.275 123.323 440.323 123.497 440.336C123.677 440.342 123.9 440.339 124.164 440.326V441.264C123.365 441.361 122.791 441.293 122.443 441.061C122.095 440.822 121.921 440.387 121.921 439.756V437.436H121.032V436.43H121.921V435.386L122.965 435.077V436.43H124.164ZM126.097 435.512C125.968 435.641 125.813 435.705 125.633 435.705C125.452 435.705 125.294 435.641 125.159 435.512C125.03 435.377 124.966 435.219 124.966 435.038C124.966 434.858 125.03 434.703 125.159 434.574C125.288 434.439 125.446 434.371 125.633 434.371C125.82 434.371 125.978 434.439 126.106 434.574C126.235 434.703 126.3 434.858 126.3 435.038C126.3 435.219 126.232 435.377 126.097 435.512ZM126.155 441.264H125.111V436.43H126.155V441.264ZM131.456 440.655C130.966 441.145 130.364 441.39 129.648 441.39C128.933 441.39 128.33 441.145 127.841 440.655C127.344 440.159 127.096 439.556 127.096 438.847C127.096 438.138 127.344 437.536 127.841 437.039C128.33 436.55 128.933 436.305 129.648 436.305C130.364 436.305 130.966 436.55 131.456 437.039C131.952 437.536 132.201 438.138 132.201 438.847C132.201 439.556 131.952 440.159 131.456 440.655ZM128.14 438.847C128.14 439.285 128.285 439.649 128.575 439.94C128.865 440.23 129.223 440.375 129.648 440.375C130.074 440.375 130.431 440.23 130.722 439.94C131.012 439.649 131.157 439.285 131.157 438.847C131.157 438.409 131.012 438.045 130.722 437.755C130.431 437.465 130.074 437.32 129.648 437.32C129.223 437.32 128.865 437.465 128.575 437.755C128.285 438.045 128.14 438.409 128.14 438.847ZM135.687 436.305C136.248 436.305 136.696 436.485 137.031 436.846C137.372 437.2 137.543 437.684 137.543 438.296V441.264H136.499V438.402C136.499 438.042 136.402 437.764 136.209 437.571C136.016 437.378 135.752 437.281 135.416 437.281C135.036 437.281 134.737 437.4 134.517 437.639C134.298 437.871 134.189 438.216 134.189 438.673V441.264H133.145V436.43H134.189V437.049C134.511 436.553 135.01 436.305 135.687 436.305ZM143.404 441.39C142.753 441.39 142.199 441.245 141.742 440.955C141.29 440.658 140.975 440.249 140.794 439.727L141.751 439.166C142.022 439.927 142.583 440.307 143.433 440.307C143.846 440.307 144.158 440.226 144.371 440.065C144.584 439.904 144.69 439.688 144.69 439.417C144.69 439.147 144.577 438.937 144.352 438.789C144.126 438.641 143.727 438.48 143.153 438.306C142.566 438.132 142.093 437.926 141.732 437.687C141.294 437.378 141.075 436.923 141.075 436.324C141.075 435.725 141.287 435.251 141.713 434.903C142.131 434.548 142.644 434.371 143.25 434.371C143.785 434.371 144.255 434.503 144.661 434.768C145.073 435.025 145.389 435.39 145.608 435.86L144.671 436.401C144.387 435.77 143.913 435.454 143.25 435.454C142.927 435.454 142.67 435.531 142.476 435.686C142.283 435.834 142.186 436.037 142.186 436.295C142.186 436.546 142.283 436.746 142.476 436.894C142.67 437.036 143.027 437.188 143.549 437.349C143.872 437.458 144.058 437.523 144.11 437.542C144.194 437.568 144.361 437.632 144.613 437.735C144.819 437.819 144.983 437.909 145.106 438.006C145.608 438.399 145.84 438.863 145.802 439.398C145.802 440.01 145.579 440.497 145.135 440.858C144.703 441.212 144.126 441.39 143.404 441.39ZM150.913 440.655C150.423 441.145 149.821 441.39 149.106 441.39C148.39 441.39 147.788 441.145 147.298 440.655C146.801 440.159 146.553 439.556 146.553 438.847C146.553 438.138 146.801 437.536 147.298 437.039C147.788 436.55 148.39 436.305 149.106 436.305C149.821 436.305 150.423 436.55 150.913 437.039C151.41 437.536 151.658 438.138 151.658 438.847C151.658 439.556 151.41 440.159 150.913 440.655ZM147.597 438.847C147.597 439.285 147.742 439.649 148.032 439.94C148.322 440.23 148.68 440.375 149.106 440.375C149.531 440.375 149.889 440.23 150.179 439.94C150.469 439.649 150.614 439.285 150.614 438.847C150.614 438.409 150.469 438.045 150.179 437.755C149.889 437.465 149.531 437.32 149.106 437.32C148.68 437.32 148.322 437.465 148.032 437.755C147.742 438.045 147.597 438.409 147.597 438.847ZM154.965 434.371V435.377C154.204 435.312 153.824 435.631 153.824 436.334V436.43H154.965V437.436H153.824V441.264H152.78V437.436H152.045V436.43H152.78V436.334C152.78 435.663 152.967 435.157 153.34 434.816C153.714 434.474 154.256 434.326 154.965 434.371ZM158.443 436.43V437.436H157.244V439.756C157.244 439.956 157.289 440.101 157.379 440.191C157.469 440.275 157.602 440.323 157.776 440.336C157.956 440.342 158.178 440.339 158.443 440.326V441.264C157.643 441.361 157.07 441.293 156.722 441.061C156.374 440.822 156.2 440.387 156.2 439.756V437.436H155.31V436.43H156.2V435.386L157.244 435.077V436.43H158.443ZM164.058 439.766L165.005 436.43H166.107L164.589 441.264H163.565L162.559 438.006L161.544 441.264H160.519L159.002 436.43H160.104L161.041 439.766L162.056 436.43H163.052L164.058 439.766ZM170.515 437.117V436.43H171.559V441.264H170.515V440.568C170.122 441.116 169.558 441.39 168.823 441.39C168.16 441.39 167.593 441.145 167.122 440.655C166.652 440.165 166.416 439.562 166.416 438.847C166.416 438.132 166.652 437.529 167.122 437.039C167.593 436.55 168.16 436.305 168.823 436.305C169.558 436.305 170.122 436.575 170.515 437.117ZM167.895 439.959C168.185 440.249 168.55 440.394 168.988 440.394C169.426 440.394 169.79 440.249 170.08 439.959C170.37 439.662 170.515 439.292 170.515 438.847C170.515 438.402 170.37 438.035 170.08 437.745C169.79 437.449 169.426 437.3 168.988 437.3C168.55 437.3 168.185 437.449 167.895 437.745C167.605 438.035 167.46 438.402 167.46 438.847C167.46 439.285 167.605 439.656 167.895 439.959ZM173.82 436.43V437.242C174.085 436.643 174.581 436.343 175.309 436.343V437.474C174.916 437.449 174.568 437.545 174.265 437.764C173.969 437.977 173.82 438.332 173.82 438.828V441.264H172.776V436.43H173.82ZM180.523 439.292H176.676C176.753 439.653 176.927 439.933 177.198 440.133C177.475 440.333 177.816 440.433 178.222 440.433C178.77 440.433 179.186 440.233 179.469 439.833L180.33 440.336C179.859 441.038 179.154 441.39 178.213 441.39C177.433 441.39 176.798 441.151 176.308 440.674C175.825 440.191 175.583 439.582 175.583 438.847C175.583 438.132 175.822 437.529 176.299 437.039C176.769 436.55 177.381 436.305 178.135 436.305C178.838 436.305 179.418 436.553 179.875 437.049C180.333 437.545 180.562 438.148 180.562 438.857C180.562 438.986 180.549 439.131 180.523 439.292ZM176.666 438.441H179.508C179.437 438.061 179.276 437.768 179.025 437.561C178.78 437.355 178.48 437.252 178.126 437.252C177.739 437.252 177.417 437.358 177.159 437.571C176.901 437.784 176.737 438.074 176.666 438.441Z" fill="white"/>
<path d="M240.872 441.264V434.497H241.984V441.264H240.872ZM245.811 436.305C246.371 436.305 246.819 436.485 247.155 436.846C247.496 437.2 247.667 437.684 247.667 438.296V441.264H246.623V438.402C246.623 438.042 246.526 437.764 246.333 437.571C246.139 437.378 245.875 437.281 245.54 437.281C245.16 437.281 244.86 437.4 244.641 437.639C244.422 437.871 244.312 438.216 244.312 438.673V441.264H243.268V436.43H244.312V437.049C244.635 436.553 245.134 436.305 245.811 436.305ZM251.488 436.43V437.436H250.289V439.756C250.289 439.956 250.335 440.101 250.425 440.191C250.515 440.275 250.647 440.323 250.821 440.336C251.002 440.342 251.224 440.339 251.488 440.326V441.264C250.689 441.361 250.115 441.293 249.767 441.061C249.419 440.822 249.245 440.387 249.245 439.756V437.436H248.356V436.43H249.245V435.386L250.289 435.077V436.43H251.488ZM256.906 439.292H253.059C253.136 439.653 253.31 439.933 253.581 440.133C253.858 440.333 254.199 440.433 254.605 440.433C255.153 440.433 255.569 440.233 255.852 439.833L256.713 440.336C256.242 441.038 255.537 441.39 254.596 441.39C253.816 441.39 253.181 441.151 252.691 440.674C252.208 440.191 251.966 439.582 251.966 438.847C251.966 438.132 252.205 437.529 252.682 437.039C253.152 436.55 253.764 436.305 254.518 436.305C255.221 436.305 255.801 436.553 256.258 437.049C256.716 437.545 256.945 438.148 256.945 438.857C256.945 438.986 256.932 439.131 256.906 439.292ZM253.049 438.441H255.891C255.82 438.061 255.659 437.768 255.408 437.561C255.163 437.355 254.863 437.252 254.509 437.252C254.122 437.252 253.8 437.358 253.542 437.571C253.284 437.784 253.12 438.074 253.049 438.441ZM258.908 436.43V437.242C259.172 436.643 259.668 436.343 260.396 436.343V437.474C260.003 437.449 259.655 437.545 259.352 437.764C259.056 437.977 258.908 438.332 258.908 438.828V441.264H257.863V436.43H258.908ZM263.71 436.305C264.271 436.305 264.719 436.485 265.054 436.846C265.395 437.2 265.566 437.684 265.566 438.296V441.264H264.522V438.402C264.522 438.042 264.426 437.764 264.232 437.571C264.039 437.378 263.775 437.281 263.439 437.281C263.059 437.281 262.76 437.4 262.54 437.639C262.321 437.871 262.212 438.216 262.212 438.673V441.264H261.168V436.43H262.212V437.049C262.534 436.553 263.033 436.305 263.71 436.305ZM271.36 439.292H267.512C267.589 439.653 267.763 439.933 268.034 440.133C268.311 440.333 268.653 440.433 269.059 440.433C269.607 440.433 270.022 440.233 270.306 439.833L271.166 440.336C270.696 441.038 269.99 441.39 269.049 441.39C268.269 441.39 267.635 441.151 267.145 440.674C266.661 440.191 266.42 439.582 266.42 438.847C266.42 438.132 266.658 437.529 267.135 437.039C267.606 436.55 268.218 436.305 268.972 436.305C269.674 436.305 270.254 436.553 270.712 437.049C271.17 437.545 271.398 438.148 271.398 438.857C271.398 438.986 271.385 439.131 271.36 439.292ZM267.502 438.441H270.345C270.274 438.061 270.113 437.768 269.861 437.561C269.616 437.355 269.317 437.252 268.962 437.252C268.576 437.252 268.253 437.358 267.996 437.571C267.738 437.784 267.573 438.074 267.502 438.441ZM274.863 436.43V437.436H273.664V439.756C273.664 439.956 273.71 440.101 273.8 440.191C273.89 440.275 274.022 440.323 274.196 440.336C274.377 440.342 274.599 440.339 274.863 440.326V441.264C274.064 441.361 273.49 441.293 273.142 441.061C272.794 440.822 272.62 440.387 272.62 439.756V437.436H271.731V436.43H272.62V435.386L273.664 435.077V436.43H274.863ZM277.81 434.497H282.74V435.56H280.836V441.264H279.724V435.56H277.81V434.497ZM286.037 436.305C286.598 436.305 287.046 436.485 287.381 436.846C287.722 437.2 287.893 437.684 287.893 438.296V441.264H286.849V438.402C286.849 438.042 286.753 437.764 286.559 437.571C286.366 437.378 286.102 437.281 285.766 437.281C285.386 437.281 285.087 437.4 284.867 437.639C284.648 437.871 284.539 438.216 284.539 438.673V441.264H283.495V434.497H284.539V437.049C284.861 436.553 285.36 436.305 286.037 436.305ZM290.003 435.512C289.875 435.641 289.72 435.705 289.539 435.705C289.359 435.705 289.201 435.641 289.066 435.512C288.937 435.377 288.872 435.219 288.872 435.038C288.872 434.858 288.937 434.703 289.066 434.574C289.195 434.439 289.353 434.371 289.539 434.371C289.726 434.371 289.884 434.439 290.013 434.574C290.142 434.703 290.206 434.858 290.206 435.038C290.206 435.219 290.139 435.377 290.003 435.512ZM290.061 441.264H289.017V436.43H290.061V441.264ZM293.816 436.305C294.377 436.305 294.825 436.485 295.16 436.846C295.501 437.2 295.672 437.684 295.672 438.296V441.264H294.628V438.402C294.628 438.042 294.532 437.764 294.338 437.571C294.145 437.378 293.881 437.281 293.546 437.281C293.165 437.281 292.866 437.4 292.646 437.639C292.427 437.871 292.318 438.216 292.318 438.673V441.264H291.274V436.43H292.318V437.049C292.64 436.553 293.139 436.305 293.816 436.305ZM300.644 437.146V436.43H301.669V441.042C301.669 441.776 301.427 442.34 300.944 442.733C300.467 443.126 299.88 443.323 299.184 443.323C298.069 443.323 297.306 442.933 296.893 442.153L297.792 441.631C298.044 442.128 298.514 442.376 299.204 442.376C299.655 442.376 300.006 442.256 300.257 442.018C300.515 441.786 300.644 441.46 300.644 441.042V440.452C300.251 441.013 299.69 441.293 298.962 441.293C298.285 441.293 297.708 441.051 297.231 440.568C296.761 440.078 296.526 439.488 296.526 438.799C296.526 438.103 296.761 437.516 297.231 437.039C297.702 436.55 298.279 436.305 298.962 436.305C299.69 436.305 300.251 436.585 300.644 437.146ZM298.005 439.882C298.301 440.172 298.669 440.317 299.107 440.317C299.545 440.317 299.909 440.172 300.199 439.882C300.496 439.591 300.644 439.231 300.644 438.799C300.644 438.367 300.496 438.006 300.199 437.716C299.909 437.426 299.545 437.281 299.107 437.281C298.669 437.281 298.301 437.426 298.005 437.716C297.715 438.006 297.57 438.367 297.57 438.799C297.57 439.231 297.715 439.591 298.005 439.882ZM303.795 437.764C303.795 437.913 303.872 438.035 304.027 438.132C304.182 438.222 304.407 438.309 304.704 438.393C304.929 438.444 305.126 438.499 305.293 438.557C305.461 438.615 305.638 438.702 305.825 438.818C306.012 438.928 306.154 439.076 306.251 439.263C306.354 439.443 306.402 439.656 306.396 439.901C306.396 440.365 306.215 440.729 305.854 440.993C305.493 441.257 305.045 441.39 304.51 441.39C304.033 441.39 303.624 441.29 303.283 441.09C302.941 440.89 302.693 440.613 302.538 440.259L303.437 439.737C303.598 440.201 303.956 440.433 304.51 440.433C305.058 440.433 305.332 440.252 305.332 439.891C305.332 439.627 305.026 439.421 304.414 439.272C304.182 439.214 303.985 439.156 303.824 439.098C303.669 439.04 303.495 438.957 303.302 438.847C303.115 438.738 302.97 438.593 302.867 438.412C302.77 438.232 302.725 438.022 302.732 437.784C302.732 437.339 302.899 436.981 303.234 436.711C303.576 436.44 303.998 436.305 304.501 436.305C304.9 436.305 305.255 436.395 305.564 436.575C305.88 436.749 306.122 436.994 306.289 437.31L305.409 437.803C305.248 437.436 304.945 437.252 304.501 437.252C304.295 437.252 304.124 437.297 303.988 437.387C303.859 437.478 303.795 437.603 303.795 437.764Z" fill="white"/>
<path d="M95.4184 238.151C94.1916 238.151 93.1744 237.748 92.3669 236.94C91.5594 236.117 91.1557 235.112 91.1557 233.924C91.1557 232.728 91.5594 231.726 92.3669 230.919C93.1667 230.104 94.1838 229.696 95.4184 229.696C96.156 229.696 96.8354 229.871 97.4566 230.22C98.0855 230.569 98.5746 231.043 98.924 231.641L97.7594 232.316C97.542 231.913 97.2236 231.594 96.8043 231.361C96.3928 231.121 95.9308 231 95.4184 231C94.5565 231 93.85 231.276 93.2987 231.827C92.7629 232.371 92.4951 233.07 92.4951 233.924C92.4951 234.778 92.7629 235.477 93.2987 236.02C93.85 236.571 94.5565 236.847 95.4184 236.847C95.9308 236.847 96.3967 236.731 96.816 236.498C97.2353 236.257 97.5497 235.935 97.7594 235.531L98.924 236.195C98.5902 236.785 98.1049 237.262 97.4682 237.627C96.8548 237.977 96.1715 238.151 95.4184 238.151ZM101.27 238H100.012V229.498H101.27V238ZM107.657 237.266C107.067 237.856 106.341 238.151 105.479 238.151C104.617 238.151 103.891 237.856 103.301 237.266C102.703 236.668 102.404 235.942 102.404 235.088C102.404 234.234 102.703 233.508 103.301 232.91C103.891 232.32 104.617 232.025 105.479 232.025C106.341 232.025 107.067 232.32 107.657 232.91C108.255 233.508 108.554 234.234 108.554 235.088C108.554 235.942 108.255 236.668 107.657 237.266ZM103.662 235.088C103.662 235.616 103.837 236.055 104.186 236.404C104.536 236.754 104.967 236.929 105.479 236.929C105.992 236.929 106.422 236.754 106.772 236.404C107.121 236.055 107.296 235.616 107.296 235.088C107.296 234.56 107.121 234.122 106.772 233.772C106.422 233.423 105.992 233.248 105.479 233.248C104.967 233.248 104.536 233.423 104.186 233.772C103.837 234.122 103.662 234.56 103.662 235.088ZM113.616 235.298V232.177H114.874V238H113.616V237.255C113.228 237.852 112.626 238.151 111.811 238.151C111.135 238.151 110.592 237.938 110.18 237.511C109.777 237.076 109.575 236.49 109.575 235.752V232.177H110.833V235.624C110.833 236.059 110.949 236.393 111.182 236.626C111.415 236.859 111.733 236.975 112.137 236.975C112.595 236.975 112.956 236.835 113.22 236.556C113.484 236.269 113.616 235.849 113.616 235.298ZM120.957 233.004V229.847H122.215V238H120.957V237.161C120.483 237.821 119.804 238.151 118.919 238.151C118.119 238.151 117.436 237.856 116.869 237.266C116.302 236.676 116.019 235.95 116.019 235.088C116.019 234.226 116.302 233.5 116.869 232.91C117.436 232.32 118.119 232.025 118.919 232.025C119.804 232.025 120.483 232.351 120.957 233.004ZM117.801 236.428C118.15 236.777 118.589 236.952 119.117 236.952C119.645 236.952 120.083 236.777 120.433 236.428C120.782 236.071 120.957 235.624 120.957 235.088C120.957 234.553 120.782 234.11 120.433 233.761C120.083 233.403 119.645 233.225 119.117 233.225C118.589 233.225 118.15 233.403 117.801 233.761C117.451 234.11 117.277 234.553 117.277 235.088C117.277 235.616 117.451 236.063 117.801 236.428ZM133.045 229.847H134.477V238H133.138V232.188L130.657 236.288H130.494L128.013 232.177V238H126.674V229.847H128.118L130.576 233.924L133.045 229.847ZM137.209 231.07C137.054 231.225 136.868 231.303 136.65 231.303C136.433 231.303 136.243 231.225 136.08 231.07C135.924 230.907 135.847 230.717 135.847 230.5C135.847 230.282 135.924 230.096 136.08 229.94C136.235 229.777 136.425 229.696 136.65 229.696C136.875 229.696 137.066 229.777 137.221 229.94C137.376 230.096 137.454 230.282 137.454 230.5C137.454 230.717 137.372 230.907 137.209 231.07ZM137.279 238H136.021V232.177H137.279V238ZM143.375 233.038V232.177H144.61V237.732C144.61 238.617 144.319 239.297 143.736 239.77C143.162 240.244 142.455 240.481 141.616 240.481C140.273 240.481 139.353 240.011 138.856 239.071L139.939 238.443C140.242 239.04 140.809 239.339 141.64 239.339C142.183 239.339 142.606 239.196 142.909 238.908C143.22 238.629 143.375 238.237 143.375 237.732V237.022C142.901 237.697 142.226 238.035 141.349 238.035C140.533 238.035 139.838 237.744 139.264 237.161C138.697 236.571 138.414 235.861 138.414 235.03C138.414 234.192 138.697 233.485 139.264 232.91C139.831 232.32 140.526 232.025 141.349 232.025C142.226 232.025 142.901 232.363 143.375 233.038ZM140.196 236.335C140.553 236.684 140.995 236.859 141.523 236.859C142.051 236.859 142.49 236.684 142.839 236.335C143.197 235.985 143.375 235.55 143.375 235.03C143.375 234.51 143.197 234.075 142.839 233.726C142.49 233.376 142.051 233.202 141.523 233.202C140.995 233.202 140.553 233.376 140.196 233.726C139.846 234.075 139.671 234.51 139.671 235.03C139.671 235.55 139.846 235.985 140.196 236.335ZM147.334 232.177V233.155C147.652 232.433 148.25 232.072 149.127 232.072V233.434C148.654 233.403 148.234 233.52 147.869 233.784C147.512 234.04 147.334 234.467 147.334 235.065V238H146.076V232.177H147.334ZM154.396 233.004V232.177H155.654V238H154.396V237.161C153.922 237.821 153.243 238.151 152.358 238.151C151.558 238.151 150.875 237.856 150.308 237.266C149.741 236.676 149.458 235.95 149.458 235.088C149.458 234.226 149.741 233.5 150.308 232.91C150.875 232.32 151.558 232.025 152.358 232.025C153.243 232.025 153.922 232.351 154.396 233.004ZM151.239 236.428C151.589 236.777 152.028 236.952 152.556 236.952C153.084 236.952 153.522 236.777 153.872 236.428C154.221 236.071 154.396 235.624 154.396 235.088C154.396 234.553 154.221 234.11 153.872 233.761C153.522 233.403 153.084 233.225 152.556 233.225C152.028 233.225 151.589 233.403 151.239 233.761C150.89 234.11 150.715 234.553 150.715 235.088C150.715 235.616 150.89 236.063 151.239 236.428ZM160.369 232.177V233.388H158.925V236.183C158.925 236.424 158.979 236.599 159.088 236.707C159.197 236.808 159.356 236.866 159.566 236.882C159.783 236.89 160.051 236.886 160.369 236.87V238C159.406 238.116 158.715 238.035 158.296 237.755C157.877 237.468 157.667 236.944 157.667 236.183V233.388H156.596V232.177H157.667V230.919L158.925 230.546V232.177H160.369ZM162.698 231.07C162.543 231.225 162.356 231.303 162.139 231.303C161.921 231.303 161.731 231.225 161.568 231.07C161.413 230.907 161.335 230.717 161.335 230.5C161.335 230.282 161.413 230.096 161.568 229.94C161.723 229.777 161.914 229.696 162.139 229.696C162.364 229.696 162.554 229.777 162.71 229.94C162.865 230.096 162.943 230.282 162.943 230.5C162.943 230.717 162.861 230.907 162.698 231.07ZM162.768 238H161.51V232.177H162.768V238ZM169.155 237.266C168.565 237.856 167.839 238.151 166.977 238.151C166.115 238.151 165.389 237.856 164.799 237.266C164.201 236.668 163.902 235.942 163.902 235.088C163.902 234.234 164.201 233.508 164.799 232.91C165.389 232.32 166.115 232.025 166.977 232.025C167.839 232.025 168.565 232.32 169.155 232.91C169.753 233.508 170.052 234.234 170.052 235.088C170.052 235.942 169.753 236.668 169.155 237.266ZM165.16 235.088C165.16 235.616 165.335 236.055 165.684 236.404C166.034 236.754 166.464 236.929 166.977 236.929C167.489 236.929 167.92 236.754 168.27 236.404C168.619 236.055 168.794 235.616 168.794 235.088C168.794 234.56 168.619 234.122 168.27 233.772C167.92 233.423 167.489 233.248 166.977 233.248C166.464 233.248 166.034 233.423 165.684 233.772C165.335 234.122 165.16 234.56 165.16 235.088ZM174.252 232.025C174.928 232.025 175.467 232.243 175.871 232.677C176.283 233.104 176.488 233.687 176.488 234.424V238H175.23V234.553C175.23 234.118 175.114 233.784 174.881 233.551C174.648 233.318 174.33 233.202 173.926 233.202C173.468 233.202 173.107 233.345 172.843 233.632C172.579 233.912 172.447 234.327 172.447 234.879V238H171.189V232.177H172.447V232.922C172.835 232.324 173.437 232.025 174.252 232.025ZM178.972 233.784C178.972 233.962 179.066 234.11 179.252 234.226C179.438 234.335 179.71 234.44 180.067 234.541C180.339 234.603 180.576 234.669 180.778 234.739C180.98 234.809 181.193 234.914 181.418 235.053C181.643 235.185 181.814 235.364 181.931 235.589C182.055 235.807 182.113 236.063 182.105 236.358C182.105 236.917 181.888 237.356 181.453 237.674C181.018 237.992 180.479 238.151 179.834 238.151C179.26 238.151 178.767 238.031 178.355 237.79C177.944 237.55 177.645 237.216 177.458 236.789L178.541 236.16C178.736 236.719 179.167 236.998 179.834 236.998C180.494 236.998 180.824 236.781 180.824 236.346C180.824 236.028 180.455 235.779 179.718 235.601C179.438 235.531 179.201 235.461 179.007 235.391C178.821 235.321 178.611 235.22 178.378 235.088C178.153 234.956 177.979 234.782 177.854 234.564C177.738 234.347 177.684 234.094 177.691 233.807C177.691 233.271 177.893 232.841 178.297 232.514C178.708 232.188 179.217 232.025 179.823 232.025C180.304 232.025 180.731 232.134 181.104 232.351C181.484 232.561 181.775 232.856 181.977 233.236L180.917 233.83C180.723 233.388 180.358 233.167 179.823 233.167C179.574 233.167 179.368 233.221 179.205 233.33C179.05 233.438 178.972 233.59 178.972 233.784Z" fill="white"/>
<path d="M101.578 297.253V298.669H97.7808V301.192H101.449V302.608H97.7808V306.264H96.3005V297.253H101.578ZM104.186 298.605C104.014 298.777 103.808 298.862 103.568 298.862C103.328 298.862 103.117 298.777 102.937 298.605C102.765 298.425 102.68 298.214 102.68 297.974C102.68 297.734 102.765 297.528 102.937 297.356C103.109 297.176 103.319 297.086 103.568 297.086C103.817 297.086 104.027 297.176 104.199 297.356C104.37 297.528 104.456 297.734 104.456 297.974C104.456 298.214 104.366 298.425 104.186 298.605ZM104.263 306.264H102.873V299.828H104.263V306.264ZM109.263 299.66C110.009 299.66 110.606 299.901 111.052 300.381C111.507 300.853 111.734 301.497 111.734 302.312V306.264H110.344V302.454C110.344 301.973 110.215 301.604 109.958 301.347C109.7 301.089 109.348 300.961 108.902 300.961C108.396 300.961 107.997 301.119 107.705 301.437C107.413 301.746 107.267 302.205 107.267 302.814V306.264H105.877V299.828H107.267V300.652C107.696 299.991 108.361 299.66 109.263 299.66ZM115.831 297.253H122.396V298.669H119.86V306.264H118.38V298.669H115.831V297.253ZM128.461 303.638H123.338C123.441 304.119 123.673 304.492 124.033 304.758C124.402 305.024 124.857 305.157 125.398 305.157C126.127 305.157 126.681 304.891 127.058 304.359L128.204 305.028C127.577 305.964 126.638 306.431 125.385 306.431C124.346 306.431 123.501 306.114 122.849 305.479C122.205 304.835 121.884 304.024 121.884 303.046C121.884 302.093 122.201 301.291 122.836 300.639C123.463 299.987 124.278 299.66 125.282 299.66C126.217 299.66 126.99 299.991 127.599 300.652C128.208 301.312 128.513 302.115 128.513 303.059C128.513 303.23 128.496 303.423 128.461 303.638ZM123.325 302.505H127.11C127.015 301.999 126.801 301.608 126.466 301.334C126.14 301.059 125.741 300.922 125.269 300.922C124.754 300.922 124.325 301.064 123.982 301.347C123.638 301.63 123.42 302.016 123.325 302.505ZM132.736 306.431C131.766 306.431 130.956 306.105 130.303 305.453C129.66 304.792 129.338 303.99 129.338 303.046C129.338 302.085 129.66 301.282 130.303 300.639C130.956 299.987 131.766 299.66 132.736 299.66C133.363 299.66 133.933 299.811 134.448 300.111C134.963 300.411 135.349 300.815 135.607 301.321L134.41 302.016C134.264 301.707 134.041 301.467 133.74 301.295C133.448 301.115 133.109 301.025 132.723 301.025C132.157 301.025 131.681 301.218 131.295 301.604C130.917 301.999 130.728 302.479 130.728 303.046C130.728 303.612 130.917 304.093 131.295 304.488C131.681 304.874 132.157 305.067 132.723 305.067C133.101 305.067 133.44 304.981 133.74 304.809C134.049 304.629 134.281 304.385 134.435 304.076L135.632 304.758C135.358 305.273 134.959 305.68 134.435 305.981C133.92 306.281 133.354 306.431 132.736 306.431ZM140.023 299.66C140.769 299.66 141.366 299.901 141.812 300.381C142.267 300.853 142.494 301.497 142.494 302.312V306.264H141.104V302.454C141.104 301.973 140.975 301.604 140.718 301.347C140.46 301.089 140.109 300.961 139.662 300.961C139.156 300.961 138.757 301.119 138.465 301.437C138.173 301.746 138.028 302.205 138.028 302.814V306.264H136.637V297.253H138.028V300.652C138.457 299.991 139.122 299.66 140.023 299.66Z" fill="white"/>
<path d="M285.15 507.264H283.786L283.247 505.713H279.969L279.43 507.264H278.055L280.849 499.564H282.367L285.15 507.264ZM281.608 501.049L280.387 504.525H282.829L281.608 501.049ZM287.023 500.719C286.876 500.866 286.7 500.939 286.495 500.939C286.29 500.939 286.11 500.866 285.956 500.719C285.809 500.565 285.736 500.385 285.736 500.18C285.736 499.975 285.809 499.799 285.956 499.652C286.103 499.498 286.282 499.421 286.495 499.421C286.708 499.421 286.887 499.498 287.034 499.652C287.181 499.799 287.254 499.975 287.254 500.18C287.254 500.385 287.177 500.565 287.023 500.719ZM287.089 507.264H285.901V501.764H287.089V507.264Z" fill="white"/>
<path d="M260.44 238H258.995L258.425 236.358H254.954L254.383 238H252.927L255.886 229.847H257.493L260.44 238ZM256.689 231.42L255.396 235.1H257.982L256.689 231.42ZM265.722 233.038V232.177H266.957V237.732C266.957 238.617 266.666 239.297 266.083 239.77C265.509 240.244 264.802 240.481 263.964 240.481C262.62 240.481 261.7 240.011 261.203 239.071L262.286 238.443C262.589 239.04 263.156 239.339 263.987 239.339C264.53 239.339 264.954 239.196 265.256 238.908C265.567 238.629 265.722 238.237 265.722 237.732V237.022C265.249 237.697 264.573 238.035 263.696 238.035C262.88 238.035 262.185 237.744 261.611 237.161C261.044 236.571 260.761 235.861 260.761 235.03C260.761 234.192 261.044 233.485 261.611 232.91C262.178 232.32 262.873 232.025 263.696 232.025C264.573 232.025 265.249 232.363 265.722 233.038ZM262.543 236.335C262.9 236.684 263.342 236.859 263.87 236.859C264.398 236.859 264.837 236.684 265.186 236.335C265.544 235.985 265.722 235.55 265.722 235.03C265.722 234.51 265.544 234.075 265.186 233.726C264.837 233.376 264.398 233.202 263.87 233.202C263.342 233.202 262.9 233.376 262.543 233.726C262.193 234.075 262.019 234.51 262.019 235.03C262.019 235.55 262.193 235.985 262.543 236.335ZM269.681 232.177V233.155C269.999 232.433 270.597 232.072 271.474 232.072V233.434C271.001 233.403 270.581 233.52 270.216 233.784C269.859 234.04 269.681 234.467 269.681 235.065V238H268.423V232.177H269.681ZM273.592 231.07C273.436 231.225 273.25 231.303 273.033 231.303C272.815 231.303 272.625 231.225 272.462 231.07C272.307 230.907 272.229 230.717 272.229 230.5C272.229 230.282 272.307 230.096 272.462 229.94C272.617 229.777 272.807 229.696 273.033 229.696C273.258 229.696 273.448 229.777 273.603 229.94C273.759 230.096 273.836 230.282 273.836 230.5C273.836 230.717 273.755 230.907 273.592 231.07ZM273.662 238H272.404V232.177H273.662V238ZM277.475 229.847H283.414V231.128H281.12V238H279.781V231.128H277.475V229.847ZM288.902 235.624H284.267C284.36 236.059 284.57 236.397 284.896 236.637C285.23 236.878 285.641 236.998 286.13 236.998C286.79 236.998 287.291 236.758 287.633 236.276L288.669 236.882C288.103 237.728 287.252 238.151 286.119 238.151C285.179 238.151 284.414 237.864 283.824 237.29C283.242 236.707 282.951 235.973 282.951 235.088C282.951 234.226 283.238 233.5 283.813 232.91C284.38 232.32 285.117 232.025 286.026 232.025C286.872 232.025 287.571 232.324 288.122 232.922C288.673 233.52 288.949 234.246 288.949 235.1C288.949 235.255 288.933 235.43 288.902 235.624ZM284.255 234.599H287.679C287.594 234.141 287.4 233.788 287.097 233.539C286.802 233.291 286.441 233.167 286.014 233.167C285.548 233.167 285.16 233.295 284.849 233.551C284.539 233.807 284.341 234.157 284.255 234.599ZM292.77 238.151C291.893 238.151 291.159 237.856 290.569 237.266C289.987 236.668 289.696 235.942 289.696 235.088C289.696 234.219 289.987 233.493 290.569 232.91C291.159 232.32 291.893 232.025 292.77 232.025C293.337 232.025 293.853 232.161 294.319 232.433C294.785 232.705 295.135 233.07 295.367 233.528L294.284 234.157C294.152 233.877 293.95 233.66 293.679 233.504C293.415 233.341 293.108 233.26 292.759 233.26C292.246 233.26 291.815 233.434 291.466 233.784C291.124 234.141 290.953 234.576 290.953 235.088C290.953 235.601 291.124 236.036 291.466 236.393C291.815 236.742 292.246 236.917 292.759 236.917C293.1 236.917 293.407 236.839 293.679 236.684C293.958 236.521 294.168 236.3 294.308 236.02L295.391 236.637C295.142 237.103 294.781 237.472 294.308 237.744C293.842 238.016 293.329 238.151 292.77 238.151ZM299.363 232.025C300.039 232.025 300.578 232.243 300.982 232.677C301.393 233.104 301.599 233.687 301.599 234.424V238H300.341V234.553C300.341 234.118 300.225 233.784 299.992 233.551C299.759 233.318 299.441 233.202 299.037 233.202C298.579 233.202 298.218 233.345 297.954 233.632C297.69 233.912 297.558 234.327 297.558 234.879V238H296.3V229.847H297.558V232.922C297.946 232.324 298.548 232.025 299.363 232.025Z" fill="white"/>
<g filter="url(#filter10_b_10_3)">
<rect x="60" y="476" width="163" height="57" rx="8" fill="#F258FF" fill-opacity="0.15"/>
<rect x="60" y="476" width="163" height="57" rx="8" fill="#2E0C3F" fill-opacity="0.6"/>
<rect x="59.6773" y="475.677" width="163.645" height="57.6454" rx="8.3227" stroke="white" stroke-opacity="0.2" stroke-width="0.645392"/>
</g>
<path d="M115.77 500.564H118.795C119.851 500.564 120.727 500.934 121.424 501.675C122.128 502.416 122.48 503.329 122.48 504.414C122.48 505.492 122.128 506.405 121.424 507.153C120.727 507.894 119.851 508.264 118.795 508.264H115.77V500.564ZM117.035 507.054H118.795C119.521 507.054 120.111 506.805 120.566 506.306C121.028 505.807 121.259 505.177 121.259 504.414C121.259 503.651 121.028 503.021 120.566 502.522C120.111 502.023 119.521 501.774 118.795 501.774H117.035V507.054ZM127.912 503.545V502.764H129.1V508.264H127.912V507.472C127.465 508.095 126.823 508.407 125.987 508.407C125.232 508.407 124.587 508.128 124.051 507.571C123.516 507.014 123.248 506.328 123.248 505.514C123.248 504.7 123.516 504.014 124.051 503.457C124.587 502.9 125.232 502.621 125.987 502.621C126.823 502.621 127.465 502.929 127.912 503.545ZM124.931 506.779C125.261 507.109 125.676 507.274 126.174 507.274C126.673 507.274 127.087 507.109 127.417 506.779C127.747 506.442 127.912 506.02 127.912 505.514C127.912 505.008 127.747 504.59 127.417 504.26C127.087 503.923 126.673 503.754 126.174 503.754C125.676 503.754 125.261 503.923 124.931 504.26C124.601 504.59 124.436 505.008 124.436 505.514C124.436 506.013 124.601 506.434 124.931 506.779ZM133.554 502.764V503.908H132.19V506.548C132.19 506.775 132.241 506.94 132.344 507.043C132.447 507.138 132.597 507.193 132.795 507.208C133 507.215 133.253 507.212 133.554 507.197V508.264C132.645 508.374 131.992 508.297 131.596 508.033C131.2 507.762 131.002 507.267 131.002 506.548V503.908H129.99V502.764H131.002V501.576L132.19 501.224V502.764H133.554ZM138.762 503.545V502.764H139.95V508.264H138.762V507.472C138.315 508.095 137.673 508.407 136.837 508.407C136.082 508.407 135.436 508.128 134.901 507.571C134.366 507.014 134.098 506.328 134.098 505.514C134.098 504.7 134.366 504.014 134.901 503.457C135.436 502.9 136.082 502.621 136.837 502.621C137.673 502.621 138.315 502.929 138.762 503.545ZM135.781 506.779C136.111 507.109 136.525 507.274 137.024 507.274C137.523 507.274 137.937 507.109 138.267 506.779C138.597 506.442 138.762 506.02 138.762 505.514C138.762 505.008 138.597 504.59 138.267 504.26C137.937 503.923 137.523 503.754 137.024 503.754C136.525 503.754 136.111 503.923 135.781 504.26C135.451 504.59 135.286 505.008 135.286 505.514C135.286 506.013 135.451 506.434 135.781 506.779ZM150.597 507.252C149.827 508.022 148.884 508.407 147.77 508.407C146.655 508.407 145.709 508.022 144.932 507.252C144.162 506.475 143.777 505.529 143.777 504.414C143.777 503.299 144.162 502.357 144.932 501.587C145.709 500.81 146.655 500.421 147.77 500.421C148.884 500.421 149.827 500.81 150.597 501.587C151.374 502.357 151.763 503.299 151.763 504.414C151.763 505.529 151.374 506.475 150.597 507.252ZM145.823 506.394C146.358 506.915 147.007 507.175 147.77 507.175C148.54 507.175 149.185 506.915 149.706 506.394C150.234 505.866 150.498 505.206 150.498 504.414C150.498 503.622 150.234 502.966 149.706 502.445C149.185 501.917 148.54 501.653 147.77 501.653C147 501.653 146.351 501.917 145.823 502.445C145.302 502.966 145.042 503.622 145.042 504.414C145.042 505.199 145.302 505.859 145.823 506.394ZM155.952 502.621C156.7 502.621 157.346 502.903 157.888 503.468C158.424 504.025 158.691 504.707 158.691 505.514C158.691 506.328 158.424 507.014 157.888 507.571C157.353 508.128 156.708 508.407 155.952 508.407C155.124 508.407 154.482 508.099 154.027 507.483V510.464H152.839V502.764H154.027V503.556C154.475 502.933 155.116 502.621 155.952 502.621ZM154.522 506.779C154.852 507.109 155.267 507.274 155.765 507.274C156.264 507.274 156.678 507.109 157.008 506.779C157.338 506.442 157.503 506.02 157.503 505.514C157.503 505.008 157.338 504.59 157.008 504.26C156.678 503.923 156.264 503.754 155.765 503.754C155.267 503.754 154.852 503.923 154.522 504.26C154.192 504.59 154.027 505.008 154.027 505.514C154.027 506.013 154.192 506.434 154.522 506.779ZM160.728 504.282C160.728 504.451 160.816 504.59 160.992 504.7C161.168 504.803 161.424 504.902 161.762 504.997C162.018 505.056 162.242 505.118 162.433 505.184C162.623 505.25 162.825 505.349 163.038 505.481C163.25 505.606 163.412 505.774 163.522 505.987C163.639 506.192 163.694 506.434 163.687 506.713C163.687 507.241 163.481 507.655 163.071 507.956C162.66 508.257 162.15 508.407 161.542 508.407C160.999 508.407 160.533 508.293 160.145 508.066C159.756 507.839 159.474 507.523 159.298 507.12L160.321 506.526C160.504 507.054 160.911 507.318 161.542 507.318C162.165 507.318 162.477 507.113 162.477 506.702C162.477 506.401 162.128 506.167 161.432 505.998C161.168 505.932 160.944 505.866 160.761 505.8C160.585 505.734 160.387 505.639 160.167 505.514C159.954 505.389 159.789 505.224 159.672 505.019C159.562 504.814 159.51 504.575 159.518 504.304C159.518 503.798 159.708 503.391 160.09 503.083C160.478 502.775 160.959 502.621 161.531 502.621C161.985 502.621 162.389 502.724 162.741 502.929C163.1 503.127 163.375 503.406 163.566 503.765L162.565 504.326C162.381 503.908 162.037 503.699 161.531 503.699C161.296 503.699 161.102 503.75 160.948 503.853C160.801 503.956 160.728 504.099 160.728 504.282Z" fill="white"/>
<g filter="url(#filter11_b_10_3)">
<rect x="190" y="274.264" width="143" height="57" rx="10" fill="#F258FF" fill-opacity="0.15"/>
<rect x="190" y="274.264" width="143" height="57" rx="10" fill="#2E0C3F" fill-opacity="0.6"/>
<rect x="189.732" y="273.996" width="143.536" height="57.5363" rx="10.2682" stroke="white" stroke-opacity="0.2" stroke-width="0.536344"/>
</g>
<g filter="url(#filter12_b_10_3)">
<rect x="197" y="343.264" width="136" height="57" rx="9.68712" fill="#F258FF" fill-opacity="0.15"/>
<rect x="197" y="343.264" width="136" height="57" rx="9.68712" fill="#2E0C3F" fill-opacity="0.6"/>
<rect x="196.78" y="343.044" width="136.44" height="57.4403" rx="9.90728" stroke="white" stroke-opacity="0.2" stroke-width="0.440323"/>
</g>
<path d="M230.856 375.408C229.696 375.408 228.735 375.026 227.972 374.263C227.208 373.485 226.827 372.534 226.827 371.412C226.827 370.281 227.208 369.335 227.972 368.571C228.727 367.801 229.689 367.416 230.856 367.416C231.553 367.416 232.195 367.581 232.782 367.911C233.377 368.241 233.839 368.689 234.169 369.254L233.068 369.892C232.863 369.511 232.562 369.21 232.166 368.99C231.777 368.762 231.34 368.649 230.856 368.649C230.041 368.649 229.373 368.909 228.852 369.43C228.346 369.944 228.093 370.604 228.093 371.412C228.093 372.219 228.346 372.879 228.852 373.393C229.373 373.914 230.041 374.175 230.856 374.175C231.34 374.175 231.78 374.065 232.177 373.844C232.573 373.617 232.87 373.312 233.068 372.931L234.169 373.558C233.854 374.116 233.395 374.567 232.793 374.912C232.213 375.242 231.568 375.408 230.856 375.408ZM236.441 375.264H235.253V367.229H236.441V375.264ZM242.533 374.571C241.976 375.129 241.289 375.408 240.475 375.408C239.66 375.408 238.974 375.129 238.416 374.571C237.851 374.006 237.569 373.32 237.569 372.512C237.569 371.705 237.851 371.019 238.416 370.454C238.974 369.896 239.66 369.617 240.475 369.617C241.289 369.617 241.976 369.896 242.533 370.454C243.098 371.019 243.381 371.705 243.381 372.512C243.381 373.32 243.098 374.006 242.533 374.571ZM238.757 372.512C238.757 373.011 238.923 373.426 239.253 373.756C239.583 374.087 239.99 374.252 240.475 374.252C240.959 374.252 241.366 374.087 241.697 373.756C242.027 373.426 242.192 373.011 242.192 372.512C242.192 372.013 242.027 371.599 241.697 371.268C241.366 370.938 240.959 370.773 240.475 370.773C239.99 370.773 239.583 370.938 239.253 371.268C238.923 371.599 238.757 372.013 238.757 372.512ZM248.221 372.711V369.76H249.41V375.264H248.221V374.56C247.854 375.125 247.285 375.408 246.514 375.408C245.876 375.408 245.362 375.206 244.973 374.802C244.592 374.391 244.401 373.837 244.401 373.14V369.76H245.59V373.019C245.59 373.43 245.7 373.745 245.92 373.965C246.14 374.186 246.441 374.296 246.823 374.296C247.256 374.296 247.597 374.164 247.846 373.899C248.096 373.628 248.221 373.232 248.221 372.711ZM255.214 370.542V367.559H256.403V375.264H255.214V374.472C254.766 375.096 254.124 375.408 253.288 375.408C252.532 375.408 251.886 375.129 251.35 374.571C250.814 374.013 250.547 373.327 250.547 372.512C250.547 371.698 250.814 371.012 251.35 370.454C251.886 369.896 252.532 369.617 253.288 369.617C254.124 369.617 254.766 369.925 255.214 370.542ZM252.231 373.778C252.561 374.109 252.976 374.274 253.475 374.274C253.974 374.274 254.388 374.109 254.719 373.778C255.049 373.441 255.214 373.019 255.214 372.512C255.214 372.006 255.049 371.588 254.719 371.257C254.388 370.92 253.974 370.751 253.475 370.751C252.976 370.751 252.561 370.92 252.231 371.257C251.901 371.588 251.735 372.006 251.735 372.512C251.735 373.011 251.901 373.433 252.231 373.778ZM260.728 367.559H263.568C264.294 367.559 264.9 367.801 265.384 368.285C265.876 368.77 266.122 369.371 266.122 370.091C266.122 370.802 265.876 371.404 265.384 371.896C264.9 372.38 264.294 372.622 263.568 372.622H261.994V375.264H260.728V367.559ZM261.994 371.434H263.568C263.942 371.434 264.25 371.309 264.492 371.059C264.735 370.802 264.856 370.48 264.856 370.091C264.856 369.702 264.735 369.382 264.492 369.133C264.25 368.876 263.942 368.748 263.568 368.748H261.994V371.434ZM268.388 375.264H267.199V367.229H268.388V375.264ZM274.182 370.542V369.76H275.371V375.264H274.182V374.472C273.735 375.096 273.092 375.408 272.256 375.408C271.5 375.408 270.854 375.129 270.318 374.571C269.783 374.013 269.515 373.327 269.515 372.512C269.515 371.698 269.783 371.012 270.318 370.454C270.854 369.896 271.5 369.617 272.256 369.617C273.092 369.617 273.735 369.925 274.182 370.542ZM271.199 373.778C271.529 374.109 271.944 374.274 272.443 374.274C272.942 374.274 273.357 374.109 273.687 373.778C274.017 373.441 274.182 373.019 274.182 372.512C274.182 372.006 274.017 371.588 273.687 371.257C273.357 370.92 272.942 370.751 272.443 370.751C271.944 370.751 271.529 370.92 271.199 371.257C270.869 371.588 270.704 372.006 270.704 372.512C270.704 373.011 270.869 373.433 271.199 373.778ZM279.883 369.76V370.905H278.518V373.547C278.518 373.775 278.57 373.94 278.672 374.043C278.775 374.138 278.925 374.193 279.124 374.208C279.329 374.215 279.582 374.211 279.883 374.197V375.264C278.973 375.374 278.32 375.297 277.924 375.033C277.527 374.762 277.329 374.266 277.329 373.547V370.905H276.317V369.76H277.329V368.571L278.518 368.219V369.76H279.883ZM283.61 367.416V368.56C282.744 368.487 282.311 368.85 282.311 369.65V369.76H283.61V370.905H282.311V375.264H281.123V370.905H280.286V369.76H281.123V369.65C281.123 368.887 281.335 368.311 281.761 367.922C282.187 367.533 282.803 367.364 283.61 367.416ZM288.759 374.571C288.202 375.129 287.516 375.408 286.701 375.408C285.886 375.408 285.2 375.129 284.642 374.571C284.077 374.006 283.795 373.32 283.795 372.512C283.795 371.705 284.077 371.019 284.642 370.454C285.2 369.896 285.886 369.617 286.701 369.617C287.516 369.617 288.202 369.896 288.759 370.454C289.325 371.019 289.607 371.705 289.607 372.512C289.607 373.32 289.325 374.006 288.759 374.571ZM284.984 372.512C284.984 373.011 285.149 373.426 285.479 373.756C285.809 374.087 286.217 374.252 286.701 374.252C287.185 374.252 287.593 374.087 287.923 373.756C288.253 373.426 288.418 373.011 288.418 372.512C288.418 372.013 288.253 371.599 287.923 371.268C287.593 370.938 287.185 370.773 286.701 370.773C286.217 370.773 285.809 370.938 285.479 371.268C285.149 371.599 284.984 372.013 284.984 372.512ZM291.926 369.76V370.685C292.227 370.003 292.792 369.661 293.621 369.661V370.949C293.174 370.92 292.777 371.03 292.432 371.279C292.095 371.522 291.926 371.925 291.926 372.49V375.264H290.737V369.76H291.926ZM300.565 369.617C301.189 369.617 301.692 369.819 302.073 370.223C302.455 370.626 302.646 371.169 302.646 371.852V375.264H301.457V371.929C301.457 371.555 301.361 371.261 301.171 371.048C300.98 370.835 300.719 370.729 300.389 370.729C300.015 370.729 299.721 370.854 299.508 371.103C299.296 371.346 299.189 371.705 299.189 372.182V375.264H298V371.929C298 371.547 297.909 371.254 297.725 371.048C297.549 370.835 297.296 370.729 296.965 370.729C296.599 370.729 296.301 370.854 296.074 371.103C295.854 371.353 295.744 371.712 295.744 372.182V375.264H294.555V369.76H295.744V370.421C296.096 369.885 296.621 369.617 297.318 369.617C298.022 369.617 298.543 369.907 298.881 370.487C299.24 369.907 299.802 369.617 300.565 369.617Z" fill="white"/>
<path d="M232.821 297.549H236.064C237.196 297.549 238.135 297.946 238.882 298.74C239.637 299.534 240.014 300.513 240.014 301.676C240.014 302.832 239.637 303.81 238.882 304.612C238.135 305.406 237.196 305.803 236.064 305.803H232.821V297.549ZM234.177 304.506H236.064C236.842 304.506 237.475 304.239 237.963 303.704C238.458 303.17 238.705 302.494 238.705 301.676C238.705 300.858 238.458 300.182 237.963 299.648C237.475 299.113 236.842 298.846 236.064 298.846H234.177V304.506ZM246.863 303.398H242.17C242.265 303.838 242.477 304.18 242.807 304.423C243.145 304.667 243.562 304.789 244.057 304.789C244.725 304.789 245.232 304.545 245.578 304.058L246.627 304.671C246.054 305.528 245.193 305.956 244.045 305.956C243.094 305.956 242.32 305.665 241.722 305.084C241.133 304.494 240.838 303.751 240.838 302.855C240.838 301.983 241.129 301.248 241.71 300.65C242.284 300.053 243.031 299.754 243.951 299.754C244.808 299.754 245.515 300.057 246.073 300.662C246.631 301.267 246.91 302.002 246.91 302.867C246.91 303.024 246.895 303.201 246.863 303.398ZM242.158 302.36H245.625C245.539 301.896 245.342 301.538 245.036 301.287C244.737 301.035 244.371 300.91 243.939 300.91C243.467 300.91 243.074 301.039 242.76 301.299C242.445 301.558 242.245 301.912 242.158 302.36ZM253.692 303.398H248.999C249.093 303.838 249.305 304.18 249.635 304.423C249.973 304.667 250.39 304.789 250.885 304.789C251.553 304.789 252.06 304.545 252.406 304.058L253.456 304.671C252.882 305.528 252.021 305.956 250.873 305.956C249.922 305.956 249.148 305.665 248.551 305.084C247.961 304.494 247.666 303.751 247.666 302.855C247.666 301.983 247.957 301.248 248.539 300.65C249.113 300.053 249.859 299.754 250.779 299.754C251.636 299.754 252.343 300.057 252.902 300.662C253.46 301.267 253.739 302.002 253.739 302.867C253.739 303.024 253.723 303.201 253.692 303.398ZM248.987 302.36H252.453C252.367 301.896 252.17 301.538 251.864 301.287C251.565 301.035 251.2 300.91 250.767 300.91C250.296 300.91 249.903 301.039 249.588 301.299C249.274 301.558 249.073 301.912 248.987 302.36ZM258.196 299.754C258.998 299.754 259.69 300.057 260.272 300.662C260.845 301.259 261.132 301.99 261.132 302.855C261.132 303.728 260.845 304.463 260.272 305.06C259.698 305.658 259.006 305.956 258.196 305.956C257.308 305.956 256.62 305.626 256.133 304.966V308.161H254.859V299.907H256.133V300.756C256.612 300.088 257.3 299.754 258.196 299.754ZM256.663 304.211C257.017 304.565 257.461 304.742 257.996 304.742C258.53 304.742 258.974 304.565 259.328 304.211C259.682 303.85 259.859 303.398 259.859 302.855C259.859 302.313 259.682 301.865 259.328 301.511C258.974 301.149 258.53 300.969 257.996 300.969C257.461 300.969 257.017 301.149 256.663 301.511C256.31 301.865 256.133 302.313 256.133 302.855C256.133 303.39 256.31 303.842 256.663 304.211ZM264.668 297.549H270.682V298.846H268.359V305.803H267.003V298.846H264.668V297.549ZM276.238 303.398H271.545C271.639 303.838 271.852 304.18 272.182 304.423C272.52 304.667 272.936 304.789 273.432 304.789C274.1 304.789 274.607 304.545 274.953 304.058L276.002 304.671C275.428 305.528 274.568 305.956 273.42 305.956C272.469 305.956 271.694 305.665 271.097 305.084C270.507 304.494 270.213 303.751 270.213 302.855C270.213 301.983 270.503 301.248 271.085 300.65C271.659 300.053 272.406 299.754 273.326 299.754C274.182 299.754 274.89 300.057 275.448 300.662C276.006 301.267 276.285 302.002 276.285 302.867C276.285 303.024 276.269 303.201 276.238 303.398ZM271.533 302.36H275C274.913 301.896 274.717 301.538 274.41 301.287C274.112 301.035 273.746 300.91 273.314 300.91C272.842 300.91 272.449 301.039 272.135 301.299C271.82 301.558 271.62 301.912 271.533 302.36ZM280.154 305.956C279.266 305.956 278.523 305.658 277.925 305.06C277.336 304.455 277.041 303.72 277.041 302.855C277.041 301.975 277.336 301.24 277.925 300.65C278.523 300.053 279.266 299.754 280.154 299.754C280.728 299.754 281.251 299.892 281.722 300.167C282.194 300.442 282.548 300.811 282.783 301.275L281.687 301.912C281.553 301.629 281.349 301.409 281.074 301.252C280.806 301.086 280.496 301.004 280.142 301.004C279.623 301.004 279.187 301.181 278.833 301.534C278.487 301.896 278.314 302.336 278.314 302.855C278.314 303.374 278.487 303.814 278.833 304.176C279.187 304.53 279.623 304.706 280.142 304.706C280.488 304.706 280.799 304.628 281.074 304.471C281.357 304.305 281.569 304.081 281.71 303.798L282.807 304.423C282.555 304.895 282.19 305.268 281.71 305.544C281.239 305.819 280.72 305.956 280.154 305.956ZM286.829 299.754C287.512 299.754 288.059 299.974 288.468 300.414C288.884 300.847 289.093 301.436 289.093 302.183V305.803H287.819V302.313C287.819 301.873 287.701 301.534 287.465 301.299C287.229 301.063 286.907 300.945 286.498 300.945C286.035 300.945 285.669 301.09 285.402 301.381C285.135 301.664 285.001 302.085 285.001 302.643V305.803H283.727V297.549H285.001V300.662C285.394 300.057 286.003 299.754 286.829 299.754Z" fill="white"/>
<defs>
<filter id="filter0_d_10_3" x="-27.2917" y="0.708332" width="447.583" height="612.583" filterUnits="userSpaceOnUse" color-interpolation-filters="sRGB">
<feFlood flood-opacity="0" result="BackgroundImageFix"/>
<feColorMatrix in="SourceAlpha" type="matrix" values="0 0 0 0 0 0 0 0 0 0 0 0 0 0 0 0 0 0 127 0" result="hardAlpha"/>
<feOffset/>
<feGaussianBlur stdDeviation="13.6458"/>
<feComposite in2="hardAlpha" operator="out"/>
<feColorMatrix type="matrix" values="0 0 0 0 0 0 0 0 0 0 0 0 0 0 0 0 0 0 0.7 0"/>
<feBlend mode="normal" in2="BackgroundImageFix" result="effect1_dropShadow_10_3"/>
<feBlend mode="normal" in="SourceGraphic" in2="effect1_dropShadow_10_3" result="shape"/>
</filter>
<filter id="filter1_b_10_3" x="34.3593" y="111.359" width="195.071" height="108.282" filterUnits="userSpaceOnUse" color-interpolation-filters="sRGB">
<feFlood flood-opacity="0" result="BackgroundImageFix"/>
<feGaussianBlur in="BackgroundImageFix" stdDeviation="12.569"/>
<feComposite in2="SourceAlpha" operator="in" result="effect1_backgroundBlur_10_3"/>
<feBlend mode="normal" in="SourceGraphic" in2="effect1_backgroundBlur_10_3" result="shape"/>
</filter>
<filter id="filter2_b_10_3" x="32.6464" y="246.646" width="174.707" height="111.707" filterUnits="userSpaceOnUse" color-interpolation-filters="sRGB">
<feFlood flood-opacity="0" result="BackgroundImageFix"/>
<feGaussianBlur in="BackgroundImageFix" stdDeviation="13.4086"/>
<feComposite in2="SourceAlpha" operator="in" result="effect1_backgroundBlur_10_3"/>
<feBlend mode="normal" in="SourceGraphic" in2="effect1_backgroundBlur_10_3" result="shape"/>
</filter>
<filter id="filter3_b_10_3" x="198.241" y="182.241" width="158.519" height="104.519" filterUnits="userSpaceOnUse" color-interpolation-filters="sRGB">
<feFlood flood-opacity="0" result="BackgroundImageFix"/>
<feGaussianBlur in="BackgroundImageFix" stdDeviation="11.6467"/>
<feComposite in2="SourceAlpha" operator="in" result="effect1_backgroundBlur_10_3"/>
<feBlend mode="normal" in="SourceGraphic" in2="effect1_backgroundBlur_10_3" result="shape"/>
</filter>
<filter id="filter4_b_10_3" x="200.085" y="442.349" width="165.83" height="122.83" filterUnits="userSpaceOnUse" color-interpolation-filters="sRGB">
<feFlood flood-opacity="0" result="BackgroundImageFix"/>
<feGaussianBlur in="BackgroundImageFix" stdDeviation="16.1348"/>
<feComposite in2="SourceAlpha" operator="in" result="effect1_backgroundBlur_10_3"/>
<feBlend mode="normal" in="SourceGraphic" in2="effect1_backgroundBlur_10_3" result="shape"/>
</filter>
<filter id="filter5_b_10_3" x="37.5434" y="320.544" width="171.913" height="101.913" filterUnits="userSpaceOnUse" color-interpolation-filters="sRGB">
<feFlood flood-opacity="0" result="BackgroundImageFix"/>
<feGaussianBlur in="BackgroundImageFix" stdDeviation="11.0081"/>
<feComposite in2="SourceAlpha" operator="in" result="effect1_backgroundBlur_10_3"/>
<feBlend mode="normal" in="SourceGraphic" in2="effect1_backgroundBlur_10_3" result="shape"/>
</filter>
<filter id="filter6_b_10_3" x="40.279" y="389.279" width="184.442" height="96.442" filterUnits="userSpaceOnUse" color-interpolation-filters="sRGB">
<feFlood flood-opacity="0" result="BackgroundImageFix"/>
<feGaussianBlur in="BackgroundImageFix" stdDeviation="9.66716"/>
<feComposite in2="SourceAlpha" operator="in" result="effect1_backgroundBlur_10_3"/>
<feBlend mode="normal" in="SourceGraphic" in2="effect1_backgroundBlur_10_3" result="shape"/>
</filter>
<filter id="filter7_b_10_3" x="195.279" y="389.543" width="157.442" height="96.442" filterUnits="userSpaceOnUse" color-interpolation-filters="sRGB">
<feFlood flood-opacity="0" result="BackgroundImageFix"/>
<feGaussianBlur in="BackgroundImageFix" stdDeviation="9.66716"/>
<feComposite in2="SourceAlpha" operator="in" result="effect1_backgroundBlur_10_3"/>
<feBlend mode="normal" in="SourceGraphic" in2="effect1_backgroundBlur_10_3" result="shape"/>
</filter>
<filter id="filter8_b_10_3" x="36.2407" y="182.241" width="200.519" height="104.519" filterUnits="userSpaceOnUse" color-interpolation-filters="sRGB">
<feFlood flood-opacity="0" result="BackgroundImageFix"/>
<feGaussianBlur in="BackgroundImageFix" stdDeviation="11.6467"/>
<feComposite in2="SourceAlpha" operator="in" result="effect1_backgroundBlur_10_3"/>
<feBlend mode="normal" in="SourceGraphic" in2="effect1_backgroundBlur_10_3" result="shape"/>
</filter>
<filter id="filter9_b_10_3" x="188.204" y="111.359" width="170.436" height="108.282" filterUnits="userSpaceOnUse" color-interpolation-filters="sRGB">
<feFlood flood-opacity="0" result="BackgroundImageFix"/>
<feGaussianBlur in="BackgroundImageFix" stdDeviation="12.569"/>
<feComposite in2="SourceAlpha" operator="in" result="effect1_backgroundBlur_10_3"/>
<feBlend mode="normal" in="SourceGraphic" in2="effect1_backgroundBlur_10_3" result="shape"/>
</filter>
<filter id="filter10_b_10_3" x="27.0849" y="443.085" width="228.83" height="122.83" filterUnits="userSpaceOnUse" color-interpolation-filters="sRGB">
<feFlood flood-opacity="0" result="BackgroundImageFix"/>
<feGaussianBlur in="BackgroundImageFix" stdDeviation="16.1348"/>
<feComposite in2="SourceAlpha" operator="in" result="effect1_backgroundBlur_10_3"/>
<feBlend mode="normal" in="SourceGraphic" in2="effect1_backgroundBlur_10_3" result="shape"/>
</filter>
<filter id="filter11_b_10_3" x="162.646" y="246.91" width="197.707" height="111.707" filterUnits="userSpaceOnUse" color-interpolation-filters="sRGB">
<feFlood flood-opacity="0" result="BackgroundImageFix"/>
<feGaussianBlur in="BackgroundImageFix" stdDeviation="13.4086"/>
<feComposite in2="SourceAlpha" operator="in" result="effect1_backgroundBlur_10_3"/>
<feBlend mode="normal" in="SourceGraphic" in2="effect1_backgroundBlur_10_3" result="shape"/>
</filter>
<filter id="filter12_b_10_3" x="174.543" y="320.807" width="180.913" height="101.913" filterUnits="userSpaceOnUse" color-interpolation-filters="sRGB">
<feFlood flood-opacity="0" result="BackgroundImageFix"/>
<feGaussianBlur in="BackgroundImageFix" stdDeviation="11.0081"/>
<feComposite in2="SourceAlpha" operator="in" result="effect1_backgroundBlur_10_3"/>
<feBlend mode="normal" in="SourceGraphic" in2="effect1_backgroundBlur_10_3" result="shape"/>
</filter>
</defs>
</svg>
