<svg width="319" height="19" viewBox="0 0 319 19" fill="none" xmlns="http://www.w3.org/2000/svg">
<path d="M15.8647 8.40738C16.2463 8.25854 16.4386 7.82593 16.2473 7.46377C15.6657 6.36285 14.7772 5.44712 13.6825 4.83242C12.3713 4.09612 10.8453 3.83725 9.36465 4.09992C7.88396 4.36259 6.54015 5.13055 5.5622 6.27293C4.58424 7.41532 4.03265 8.86146 4.0014 10.3649C3.97016 11.8684 4.46119 13.3362 5.39084 14.5183C6.32048 15.7003 7.63122 16.5234 9.09972 16.8474C10.5682 17.1713 12.1036 16.9761 13.4443 16.2949C14.5636 15.7262 15.4894 14.8482 16.1162 13.7724C16.3224 13.4185 16.1482 12.9783 15.7731 12.8137V12.8137C15.398 12.6491 14.965 12.8237 14.747 13.1704C14.2663 13.9348 13.5856 14.5594 12.7724 14.9726C11.7377 15.4983 10.5527 15.649 9.41926 15.399C8.28586 15.1489 7.27422 14.5136 6.55671 13.6013C5.83921 12.689 5.46022 11.5562 5.48434 10.3958C5.50846 9.23536 5.93418 8.11922 6.68897 7.23752C7.44376 6.35582 8.48092 5.76311 9.62373 5.56038C10.7665 5.35765 11.9443 5.55744 12.9563 6.12572C13.7516 6.57228 14.4058 7.22467 14.8542 8.00835C15.0577 8.36385 15.4831 8.55623 15.8647 8.40738V8.40738Z" fill="white" fill-opacity="0.5"/>
<path d="M1.1358 8H1.56261C2.35981 8 3.00275 8.65247 2.99103 9.44958L2.92163 14.1689C2.9172 14.4698 3.15988 14.716 3.46078 14.716C3.75858 14.716 4 14.9575 4 15.2553V15.358C4 15.7126 3.71258 16 3.35802 16H3.01235H1.1358H0.790124C0.435571 16 0.148148 15.7126 0.148148 15.358V15.2099C0.148148 14.9371 0.369242 14.716 0.641975 14.716C0.914708 14.716 1.1358 14.495 1.1358 14.2222V9.90123C1.1358 9.58759 0.881544 9.33333 0.567901 9.33333C0.254258 9.33333 0 9.07908 0 8.76543V8.69136C0 8.30953 0.309532 8 0.691358 8H1.1358Z" fill="white" fill-opacity="0.5"/>
<circle cx="2" cy="6" r="1" fill="white" fill-opacity="0.5"/>
<path d="M35.848 15.156C34.568 15.156 33.516 14.736 32.692 13.896C31.868 13.064 31.456 12.032 31.456 10.8C31.456 9.568 31.868 8.536 32.692 7.704C33.516 6.864 34.568 6.444 35.848 6.444C36.608 6.444 37.312 6.628 37.96 6.996C38.608 7.364 39.112 7.86 39.472 8.484L38.5 9.048C38.26 8.584 37.9 8.216 37.42 7.944C36.948 7.664 36.424 7.524 35.848 7.524C34.872 7.524 34.08 7.836 33.472 8.46C32.864 9.076 32.56 9.856 32.56 10.8C32.56 11.736 32.864 12.512 33.472 13.128C34.08 13.752 34.872 14.064 35.848 14.064C36.424 14.064 36.948 13.928 37.42 13.656C37.9 13.376 38.26 13.008 38.5 12.552L39.472 13.104C39.12 13.728 38.62 14.228 37.972 14.604C37.332 14.972 36.624 15.156 35.848 15.156ZM45.6685 14.244C45.0605 14.852 44.3125 15.156 43.4245 15.156C42.5365 15.156 41.7885 14.852 41.1805 14.244C40.5725 13.636 40.2685 12.888 40.2685 12C40.2685 11.112 40.5725 10.364 41.1805 9.756C41.7885 9.148 42.5365 8.844 43.4245 8.844C44.3125 8.844 45.0605 9.148 45.6685 9.756C46.2845 10.372 46.5925 11.12 46.5925 12C46.5925 12.88 46.2845 13.628 45.6685 14.244ZM43.4245 14.136C44.0245 14.136 44.5285 13.932 44.9365 13.524C45.3445 13.116 45.5485 12.608 45.5485 12C45.5485 11.392 45.3445 10.884 44.9365 10.476C44.5285 10.068 44.0245 9.864 43.4245 9.864C42.8325 9.864 42.3325 10.068 41.9245 10.476C41.5165 10.884 41.3125 11.392 41.3125 12C41.3125 12.608 41.5165 13.116 41.9245 13.524C42.3325 13.932 42.8325 14.136 43.4245 14.136ZM51.1353 8.844C51.9753 8.844 52.6913 9.152 53.2833 9.768C53.8753 10.384 54.1713 11.128 54.1713 12C54.1713 12.88 53.8753 13.628 53.2833 14.244C52.6993 14.852 51.9833 15.156 51.1353 15.156C50.1433 15.156 49.3873 14.76 48.8673 13.968V17.4H47.8232V9H48.8673V10.032C49.3873 9.24 50.1433 8.844 51.1353 8.844ZM51.0033 14.148C51.6033 14.148 52.1073 13.944 52.5153 13.536C52.9233 13.112 53.1273 12.6 53.1273 12C53.1273 11.392 52.9233 10.884 52.5153 10.476C52.1073 10.06 51.6033 9.852 51.0033 9.852C50.3953 9.852 49.8873 10.06 49.4793 10.476C49.0713 10.884 48.8673 11.392 48.8673 12C48.8673 12.6 49.0713 13.112 49.4793 13.536C49.8873 13.944 50.3953 14.148 51.0033 14.148ZM57.6426 13.704L59.3706 9H60.4866L58.0386 15.372C57.7746 16.052 57.4106 16.568 56.9466 16.92C56.4906 17.28 55.9666 17.44 55.3746 17.4V16.428C56.1106 16.484 56.6506 16.076 56.9946 15.204L57.1026 14.976L54.4866 9H55.6026L57.6426 13.704ZM62.4024 9V10.008C62.7464 9.264 63.3704 8.892 64.2744 8.892V9.984C63.7624 9.96 63.3224 10.096 62.9544 10.392C62.5864 10.688 62.4024 11.164 62.4024 11.82V15H61.3584V9H62.4024ZM65.8239 7.908C65.6239 7.908 65.4559 7.84 65.3199 7.704C65.1839 7.568 65.1159 7.404 65.1159 7.212C65.1159 7.02 65.1839 6.856 65.3199 6.72C65.4559 6.576 65.6239 6.504 65.8239 6.504C66.0159 6.504 66.1799 6.576 66.3159 6.72C66.4519 6.856 66.5199 7.02 66.5199 7.212C66.5199 7.404 66.4519 7.568 66.3159 7.704C66.1799 7.84 66.0159 7.908 65.8239 7.908ZM66.3399 15H65.2959V9H66.3399V15ZM72.9126 10.032V9H73.9446V14.748C73.9446 15.636 73.6446 16.324 73.0446 16.812C72.4366 17.308 71.7166 17.556 70.8846 17.556C70.2126 17.556 69.6326 17.428 69.1446 17.172C68.6566 16.924 68.2886 16.564 68.0406 16.092L68.9526 15.576C69.2806 16.248 69.9326 16.584 70.9086 16.584C71.5326 16.584 72.0206 16.42 72.3726 16.092C72.7326 15.764 72.9126 15.316 72.9126 14.748V13.896C72.3846 14.696 71.6326 15.096 70.6566 15.096C69.7926 15.096 69.0686 14.792 68.4846 14.184C67.8926 13.568 67.5966 12.828 67.5966 11.964C67.5966 11.1 67.8926 10.364 68.4846 9.756C69.0686 9.148 69.7926 8.844 70.6566 8.844C71.6406 8.844 72.3926 9.24 72.9126 10.032ZM72.9126 11.964C72.9126 11.364 72.7086 10.86 72.3006 10.452C71.8926 10.044 71.3846 9.84 70.7766 9.84C70.1686 9.84 69.6606 10.044 69.2526 10.452C68.8446 10.86 68.6406 11.364 68.6406 11.964C68.6406 12.572 68.8446 13.08 69.2526 13.488C69.6606 13.896 70.1686 14.1 70.7766 14.1C71.3846 14.1 71.8926 13.896 72.3006 13.488C72.7086 13.08 72.9126 12.572 72.9126 11.964ZM78.5144 8.844C79.2184 8.844 79.7824 9.068 80.2064 9.516C80.6304 9.956 80.8424 10.556 80.8424 11.316V15H79.7984V11.376C79.7984 10.896 79.6664 10.52 79.4024 10.248C79.1384 9.976 78.7744 9.84 78.3104 9.84C77.7744 9.84 77.3504 10.008 77.0384 10.344C76.7264 10.672 76.5704 11.164 76.5704 11.82V15H75.5264V6.6H76.5704V9.864C76.9864 9.184 77.6344 8.844 78.5144 8.844ZM85.5638 9V10.008H83.9678V13.26C83.9678 13.556 84.0238 13.768 84.1358 13.896C84.2558 14.016 84.4358 14.08 84.6758 14.088C84.9158 14.088 85.2118 14.08 85.5638 14.064V15C84.6438 15.12 83.9718 15.044 83.5478 14.772C83.1318 14.5 82.9238 13.996 82.9238 13.26V10.008H81.7358V9H82.9238V7.632L83.9678 7.32V9H85.5638ZM94.899 15H89.475V14.088L92.439 11.064C93.231 10.272 93.627 9.592 93.627 9.024C93.627 8.56 93.483 8.196 93.195 7.932C92.915 7.66 92.563 7.524 92.139 7.524C91.347 7.524 90.771 7.9 90.411 8.652L89.475 8.1C89.731 7.564 90.091 7.156 90.555 6.876C91.019 6.588 91.543 6.444 92.127 6.444C92.839 6.444 93.451 6.676 93.963 7.14C94.483 7.612 94.743 8.236 94.743 9.012C94.743 9.86 94.243 10.784 93.243 11.784L91.095 13.92H94.899V15ZM101.422 13.968C100.862 14.76 100.066 15.156 99.0339 15.156C98.0019 15.156 97.2059 14.76 96.6459 13.968C96.0779 13.168 95.7939 12.112 95.7939 10.8C95.7939 9.488 96.0779 8.432 96.6459 7.632C97.2059 6.84 98.0019 6.444 99.0339 6.444C100.066 6.444 100.862 6.84 101.422 7.632C101.99 8.432 102.274 9.488 102.274 10.8C102.274 12.112 101.99 13.168 101.422 13.968ZM96.9099 10.8C96.9099 11.84 97.0939 12.644 97.4619 13.212C97.8299 13.78 98.3539 14.064 99.0339 14.064C99.7139 14.064 100.238 13.78 100.606 13.212C100.982 12.644 101.17 11.84 101.17 10.8C101.17 9.76 100.982 8.956 100.606 8.388C100.238 7.812 99.7139 7.524 99.0339 7.524C98.3539 7.524 97.8299 7.808 97.4619 8.376C97.0939 8.944 96.9099 9.752 96.9099 10.8ZM108.516 15H103.092V14.088L106.056 11.064C106.848 10.272 107.244 9.592 107.244 9.024C107.244 8.56 107.1 8.196 106.812 7.932C106.532 7.66 106.18 7.524 105.756 7.524C104.964 7.524 104.388 7.9 104.028 8.652L103.092 8.1C103.348 7.564 103.708 7.156 104.172 6.876C104.636 6.588 105.16 6.444 105.744 6.444C106.456 6.444 107.068 6.676 107.58 7.14C108.1 7.612 108.36 8.236 108.36 9.012C108.36 9.86 107.86 10.784 106.86 11.784L104.712 13.92H108.516V15ZM114.844 15H109.42V14.088L112.384 11.064C113.176 10.272 113.572 9.592 113.572 9.024C113.572 8.56 113.428 8.196 113.14 7.932C112.86 7.66 112.508 7.524 112.084 7.524C111.292 7.524 110.716 7.9 110.356 8.652L109.42 8.1C109.676 7.564 110.036 7.156 110.5 6.876C110.964 6.588 111.488 6.444 112.072 6.444C112.784 6.444 113.396 6.676 113.908 7.14C114.428 7.612 114.688 8.236 114.688 9.012C114.688 9.86 114.188 10.784 113.188 11.784L111.04 13.92H114.844V15ZM119.636 7.908C119.436 7.908 119.268 7.84 119.132 7.704C118.996 7.568 118.928 7.404 118.928 7.212C118.928 7.02 118.996 6.856 119.132 6.72C119.268 6.576 119.436 6.504 119.636 6.504C119.828 6.504 119.992 6.576 120.128 6.72C120.264 6.856 120.332 7.02 120.332 7.212C120.332 7.404 120.264 7.568 120.128 7.704C119.992 7.84 119.828 7.908 119.636 7.908ZM120.152 15H119.108V9H120.152V15ZM125.009 9V10.008H123.413V13.26C123.413 13.556 123.469 13.768 123.581 13.896C123.701 14.016 123.881 14.08 124.121 14.088C124.361 14.088 124.657 14.08 125.009 14.064V15C124.089 15.12 123.417 15.044 122.993 14.772C122.577 14.5 122.369 13.996 122.369 13.26V10.008H121.181V9H122.369V7.632L123.413 7.32V9H125.009ZM130.336 15.156C129.056 15.156 128.004 14.736 127.18 13.896C126.356 13.064 125.944 12.032 125.944 10.8C125.944 9.568 126.356 8.536 127.18 7.704C128.004 6.864 129.056 6.444 130.336 6.444C131.096 6.444 131.8 6.628 132.448 6.996C133.096 7.364 133.6 7.86 133.96 8.484L132.988 9.048C132.748 8.584 132.388 8.216 131.908 7.944C131.436 7.664 130.912 7.524 130.336 7.524C129.36 7.524 128.568 7.836 127.96 8.46C127.352 9.076 127.048 9.856 127.048 10.8C127.048 11.736 127.352 12.512 127.96 13.128C128.568 13.752 129.36 14.064 130.336 14.064C130.912 14.064 131.436 13.928 131.908 13.656C132.388 13.376 132.748 13.008 132.988 12.552L133.96 13.104C133.608 13.728 133.108 14.228 132.46 14.604C131.82 14.972 131.112 15.156 130.336 15.156ZM140.157 14.244C139.549 14.852 138.801 15.156 137.913 15.156C137.025 15.156 136.277 14.852 135.669 14.244C135.061 13.636 134.757 12.888 134.757 12C134.757 11.112 135.061 10.364 135.669 9.756C136.277 9.148 137.025 8.844 137.913 8.844C138.801 8.844 139.549 9.148 140.157 9.756C140.773 10.372 141.081 11.12 141.081 12C141.081 12.88 140.773 13.628 140.157 14.244ZM137.913 14.136C138.513 14.136 139.017 13.932 139.425 13.524C139.833 13.116 140.037 12.608 140.037 12C140.037 11.392 139.833 10.884 139.425 10.476C139.017 10.068 138.513 9.864 137.913 9.864C137.321 9.864 136.821 10.068 136.413 10.476C136.005 10.884 135.801 11.392 135.801 12C135.801 12.608 136.005 13.116 136.413 13.524C136.821 13.932 137.321 14.136 137.913 14.136ZM145.3 8.844C146.004 8.844 146.568 9.068 146.992 9.516C147.416 9.956 147.628 10.556 147.628 11.316V15H146.584V11.376C146.584 10.896 146.452 10.52 146.188 10.248C145.924 9.976 145.56 9.84 145.096 9.84C144.56 9.84 144.136 10.008 143.824 10.344C143.512 10.672 143.356 11.164 143.356 11.82V15H142.312V9H143.356V9.864C143.772 9.184 144.42 8.844 145.3 8.844ZM152.349 9V10.008H150.753V13.26C150.753 13.556 150.809 13.768 150.921 13.896C151.041 14.016 151.221 14.08 151.461 14.088C151.701 14.088 151.997 14.08 152.349 14.064V15C151.429 15.12 150.757 15.044 150.333 14.772C149.917 14.5 149.709 13.996 149.709 13.26V10.008H148.521V9H149.709V7.632L150.753 7.32V9H152.349ZM154.113 7.908C153.913 7.908 153.745 7.84 153.609 7.704C153.473 7.568 153.405 7.404 153.405 7.212C153.405 7.02 153.473 6.856 153.609 6.72C153.745 6.576 153.913 6.504 154.113 6.504C154.305 6.504 154.469 6.576 154.605 6.72C154.741 6.856 154.809 7.02 154.809 7.212C154.809 7.404 154.741 7.568 154.605 7.704C154.469 7.84 154.305 7.908 154.113 7.908ZM154.629 15H153.585V9H154.629V15ZM159.21 8.844C159.914 8.844 160.478 9.068 160.902 9.516C161.326 9.956 161.538 10.556 161.538 11.316V15H160.494V11.376C160.494 10.896 160.362 10.52 160.098 10.248C159.834 9.976 159.47 9.84 159.006 9.84C158.47 9.84 158.046 10.008 157.734 10.344C157.422 10.672 157.266 11.164 157.266 11.82V15H156.222V9H157.266V9.864C157.682 9.184 158.33 8.844 159.21 8.844ZM168.755 12.48H163.727C163.831 13.008 164.075 13.424 164.459 13.728C164.843 14.024 165.323 14.172 165.899 14.172C166.691 14.172 167.267 13.88 167.627 13.296L168.515 13.8C167.923 14.704 167.043 15.156 165.875 15.156C164.931 15.156 164.155 14.86 163.547 14.268C162.955 13.66 162.659 12.904 162.659 12C162.659 11.088 162.951 10.336 163.535 9.744C164.119 9.144 164.875 8.844 165.803 8.844C166.683 8.844 167.399 9.156 167.951 9.78C168.511 10.388 168.791 11.132 168.791 12.012C168.791 12.164 168.779 12.32 168.755 12.48ZM165.803 9.828C165.251 9.828 164.787 9.984 164.411 10.296C164.043 10.608 163.815 11.032 163.727 11.568H167.735C167.647 11.016 167.427 10.588 167.075 10.284C166.723 9.98 166.299 9.828 165.803 9.828ZM172.979 8.844C173.683 8.844 174.247 9.068 174.671 9.516C175.095 9.956 175.307 10.556 175.307 11.316V15H174.263V11.376C174.263 10.896 174.131 10.52 173.867 10.248C173.603 9.976 173.239 9.84 172.775 9.84C172.239 9.84 171.815 10.008 171.503 10.344C171.191 10.672 171.035 11.164 171.035 11.82V15H169.991V9H171.035V9.864C171.451 9.184 172.099 8.844 172.979 8.844ZM180.029 9V10.008H178.433V13.26C178.433 13.556 178.489 13.768 178.601 13.896C178.721 14.016 178.901 14.08 179.141 14.088C179.381 14.088 179.677 14.08 180.029 14.064V15C179.109 15.12 178.437 15.044 178.013 14.772C177.597 14.5 177.389 13.996 177.389 13.26V10.008H176.201V9H177.389V7.632L178.433 7.32V9H180.029ZM185.928 10.032V9H186.972V15H185.928V13.968C185.416 14.76 184.66 15.156 183.66 15.156C182.812 15.156 182.096 14.852 181.512 14.244C180.92 13.628 180.624 12.88 180.624 12C180.624 11.128 180.92 10.384 181.512 9.768C182.104 9.152 182.82 8.844 183.66 8.844C184.66 8.844 185.416 9.24 185.928 10.032ZM183.792 14.148C184.4 14.148 184.908 13.944 185.316 13.536C185.724 13.112 185.928 12.6 185.928 12C185.928 11.392 185.724 10.884 185.316 10.476C184.908 10.06 184.4 9.852 183.792 9.852C183.192 9.852 182.688 10.06 182.28 10.476C181.872 10.884 181.668 11.392 181.668 12C181.668 12.6 181.872 13.112 182.28 13.536C182.688 13.944 183.192 14.148 183.792 14.148ZM189.598 15H188.554V6.24H189.598V15ZM194.298 15V6.6H195.414V15H194.298ZM200.096 8.844C200.8 8.844 201.364 9.068 201.788 9.516C202.212 9.956 202.424 10.556 202.424 11.316V15H201.38V11.376C201.38 10.896 201.248 10.52 200.984 10.248C200.72 9.976 200.356 9.84 199.892 9.84C199.356 9.84 198.932 10.008 198.62 10.344C198.308 10.672 198.152 11.164 198.152 11.82V15H197.108V9H198.152V9.864C198.568 9.184 199.216 8.844 200.096 8.844ZM206.702 15.156C205.798 15.156 205.046 14.856 204.446 14.256C203.846 13.648 203.546 12.896 203.546 12C203.546 11.104 203.846 10.356 204.446 9.756C205.046 9.148 205.798 8.844 206.702 8.844C207.294 8.844 207.826 8.988 208.298 9.276C208.77 9.556 209.122 9.936 209.354 10.416L208.478 10.92C208.326 10.6 208.09 10.344 207.77 10.152C207.458 9.96 207.102 9.864 206.702 9.864C206.102 9.864 205.598 10.068 205.19 10.476C204.79 10.892 204.59 11.4 204.59 12C204.59 12.592 204.79 13.096 205.19 13.512C205.598 13.92 206.102 14.124 206.702 14.124C207.102 14.124 207.462 14.032 207.782 13.848C208.102 13.656 208.346 13.4 208.514 13.08L209.402 13.596C209.138 14.076 208.766 14.456 208.286 14.736C207.806 15.016 207.278 15.156 206.702 15.156ZM210.729 15.132C210.513 15.132 210.329 15.056 210.177 14.904C210.025 14.752 209.949 14.568 209.949 14.352C209.949 14.136 210.025 13.952 210.177 13.8C210.329 13.648 210.513 13.572 210.729 13.572C210.953 13.572 211.137 13.648 211.281 13.8C211.433 13.952 211.509 14.136 211.509 14.352C211.509 14.568 211.433 14.752 211.281 14.904C211.137 15.056 210.953 15.132 210.729 15.132ZM222.815 15H221.627L220.943 13.116H217.163L216.479 15H215.291L218.423 6.6H219.683L222.815 15ZM219.047 7.932L217.547 12.072H220.559L219.047 7.932ZM224.742 15H223.698V6.24H224.742V15ZM227.379 15H226.335V6.24H227.379V15ZM238.296 15H237.06L235.176 11.784H233.196V15H232.08V6.6H235.44C236.16 6.6 236.776 6.856 237.288 7.368C237.8 7.872 238.056 8.484 238.056 9.204C238.056 9.748 237.892 10.244 237.564 10.692C237.228 11.148 236.812 11.464 236.316 11.64L238.296 15ZM235.44 7.644H233.196V10.776H235.44C235.856 10.776 236.208 10.624 236.496 10.32C236.792 10.016 236.94 9.644 236.94 9.204C236.94 8.764 236.792 8.396 236.496 8.1C236.208 7.796 235.856 7.644 235.44 7.644ZM239.836 7.908C239.636 7.908 239.468 7.84 239.332 7.704C239.196 7.568 239.128 7.404 239.128 7.212C239.128 7.02 239.196 6.856 239.332 6.72C239.468 6.576 239.636 6.504 239.836 6.504C240.028 6.504 240.192 6.576 240.328 6.72C240.464 6.856 240.532 7.02 240.532 7.212C240.532 7.404 240.464 7.568 240.328 7.704C240.192 7.84 240.028 7.908 239.836 7.908ZM240.352 15H239.308V9H240.352V15ZM246.924 10.032V9H247.956V14.748C247.956 15.636 247.656 16.324 247.056 16.812C246.448 17.308 245.728 17.556 244.896 17.556C244.224 17.556 243.644 17.428 243.156 17.172C242.668 16.924 242.3 16.564 242.052 16.092L242.964 15.576C243.292 16.248 243.944 16.584 244.92 16.584C245.544 16.584 246.032 16.42 246.384 16.092C246.744 15.764 246.924 15.316 246.924 14.748V13.896C246.396 14.696 245.644 15.096 244.668 15.096C243.804 15.096 243.08 14.792 242.496 14.184C241.904 13.568 241.608 12.828 241.608 11.964C241.608 11.1 241.904 10.364 242.496 9.756C243.08 9.148 243.804 8.844 244.668 8.844C245.652 8.844 246.404 9.24 246.924 10.032ZM246.924 11.964C246.924 11.364 246.72 10.86 246.312 10.452C245.904 10.044 245.396 9.84 244.788 9.84C244.18 9.84 243.672 10.044 243.264 10.452C242.856 10.86 242.652 11.364 242.652 11.964C242.652 12.572 242.856 13.08 243.264 13.488C243.672 13.896 244.18 14.1 244.788 14.1C245.396 14.1 245.904 13.896 246.312 13.488C246.72 13.08 246.924 12.572 246.924 11.964ZM252.526 8.844C253.23 8.844 253.794 9.068 254.218 9.516C254.642 9.956 254.854 10.556 254.854 11.316V15H253.81V11.376C253.81 10.896 253.678 10.52 253.414 10.248C253.15 9.976 252.786 9.84 252.322 9.84C251.786 9.84 251.362 10.008 251.05 10.344C250.738 10.672 250.582 11.164 250.582 11.82V15H249.538V6.6H250.582V9.864C250.998 9.184 251.646 8.844 252.526 8.844ZM259.576 9V10.008H257.98V13.26C257.98 13.556 258.036 13.768 258.148 13.896C258.268 14.016 258.448 14.08 258.688 14.088C258.928 14.088 259.224 14.08 259.576 14.064V15C258.656 15.12 257.984 15.044 257.56 14.772C257.144 14.5 256.936 13.996 256.936 13.26V10.008H255.748V9H256.936V7.632L257.98 7.32V9H259.576ZM261.419 10.62C261.419 11.004 261.815 11.304 262.607 11.52C262.903 11.584 263.151 11.652 263.351 11.724C263.559 11.788 263.783 11.888 264.023 12.024C264.271 12.16 264.459 12.34 264.587 12.564C264.715 12.788 264.779 13.052 264.779 13.356C264.779 13.9 264.567 14.336 264.143 14.664C263.719 14.992 263.183 15.156 262.535 15.156C261.959 15.156 261.459 15.032 261.035 14.784C260.619 14.528 260.323 14.184 260.147 13.752L261.047 13.236C261.143 13.524 261.323 13.752 261.587 13.92C261.851 14.088 262.167 14.172 262.535 14.172C262.895 14.172 263.183 14.104 263.399 13.968C263.615 13.832 263.723 13.628 263.723 13.356C263.723 12.948 263.327 12.652 262.535 12.468C262.271 12.396 262.071 12.34 261.935 12.3C261.799 12.26 261.611 12.188 261.371 12.084C261.139 11.98 260.963 11.872 260.843 11.76C260.723 11.64 260.611 11.484 260.507 11.292C260.411 11.092 260.363 10.872 260.363 10.632C260.363 10.112 260.563 9.684 260.963 9.348C261.371 9.012 261.879 8.844 262.487 8.844C262.975 8.844 263.407 8.956 263.783 9.18C264.167 9.396 264.455 9.7 264.647 10.092L263.771 10.584C263.555 10.072 263.127 9.816 262.487 9.816C262.183 9.816 261.927 9.888 261.719 10.032C261.519 10.176 261.419 10.372 261.419 10.62ZM275.339 15H274.103L272.219 11.784H270.239V15H269.123V6.6H272.483C273.203 6.6 273.819 6.856 274.331 7.368C274.843 7.872 275.099 8.484 275.099 9.204C275.099 9.748 274.935 10.244 274.607 10.692C274.271 11.148 273.855 11.464 273.359 11.64L275.339 15ZM272.483 7.644H270.239V10.776H272.483C272.899 10.776 273.251 10.624 273.539 10.32C273.835 10.016 273.983 9.644 273.983 9.204C273.983 8.764 273.835 8.396 273.539 8.1C273.251 7.796 272.899 7.644 272.483 7.644ZM281.806 12.48H276.778C276.882 13.008 277.126 13.424 277.51 13.728C277.894 14.024 278.374 14.172 278.95 14.172C279.742 14.172 280.318 13.88 280.678 13.296L281.566 13.8C280.974 14.704 280.094 15.156 278.926 15.156C277.982 15.156 277.206 14.86 276.598 14.268C276.006 13.66 275.71 12.904 275.71 12C275.71 11.088 276.002 10.336 276.586 9.744C277.17 9.144 277.926 8.844 278.854 8.844C279.734 8.844 280.45 9.156 281.002 9.78C281.562 10.388 281.842 11.132 281.842 12.012C281.842 12.164 281.83 12.32 281.806 12.48ZM278.854 9.828C278.302 9.828 277.838 9.984 277.462 10.296C277.094 10.608 276.866 11.032 276.778 11.568H280.786C280.698 11.016 280.478 10.588 280.126 10.284C279.774 9.98 279.35 9.828 278.854 9.828ZM283.708 10.62C283.708 11.004 284.104 11.304 284.896 11.52C285.192 11.584 285.44 11.652 285.64 11.724C285.848 11.788 286.072 11.888 286.312 12.024C286.56 12.16 286.748 12.34 286.876 12.564C287.004 12.788 287.068 13.052 287.068 13.356C287.068 13.9 286.856 14.336 286.432 14.664C286.008 14.992 285.472 15.156 284.824 15.156C284.248 15.156 283.748 15.032 283.324 14.784C282.908 14.528 282.612 14.184 282.436 13.752L283.336 13.236C283.432 13.524 283.612 13.752 283.876 13.92C284.14 14.088 284.456 14.172 284.824 14.172C285.184 14.172 285.472 14.104 285.688 13.968C285.904 13.832 286.012 13.628 286.012 13.356C286.012 12.948 285.616 12.652 284.824 12.468C284.56 12.396 284.36 12.34 284.224 12.3C284.088 12.26 283.9 12.188 283.66 12.084C283.428 11.98 283.252 11.872 283.132 11.76C283.012 11.64 282.9 11.484 282.796 11.292C282.7 11.092 282.652 10.872 282.652 10.632C282.652 10.112 282.852 9.684 283.252 9.348C283.66 9.012 284.168 8.844 284.776 8.844C285.264 8.844 285.696 8.956 286.072 9.18C286.456 9.396 286.744 9.7 286.936 10.092L286.06 10.584C285.844 10.072 285.416 9.816 284.776 9.816C284.472 9.816 284.216 9.888 284.008 10.032C283.808 10.176 283.708 10.372 283.708 10.62ZM293.9 12.48H288.872C288.976 13.008 289.22 13.424 289.604 13.728C289.988 14.024 290.468 14.172 291.044 14.172C291.836 14.172 292.412 13.88 292.772 13.296L293.66 13.8C293.068 14.704 292.188 15.156 291.02 15.156C290.076 15.156 289.3 14.86 288.692 14.268C288.1 13.66 287.804 12.904 287.804 12C287.804 11.088 288.096 10.336 288.68 9.744C289.264 9.144 290.02 8.844 290.948 8.844C291.828 8.844 292.544 9.156 293.096 9.78C293.656 10.388 293.936 11.132 293.936 12.012C293.936 12.164 293.924 12.32 293.9 12.48ZM290.948 9.828C290.396 9.828 289.932 9.984 289.556 10.296C289.188 10.608 288.96 11.032 288.872 11.568H292.88C292.792 11.016 292.572 10.588 292.22 10.284C291.868 9.98 291.444 9.828 290.948 9.828ZM296.18 9V10.008C296.524 9.264 297.148 8.892 298.052 8.892V9.984C297.54 9.96 297.1 10.096 296.732 10.392C296.364 10.688 296.18 11.164 296.18 11.82V15H295.136V9H296.18ZM301.389 13.884L303.273 9H304.401L302.001 15H300.777L298.377 9H299.505L301.389 13.884ZM310.81 12.48H305.782C305.886 13.008 306.13 13.424 306.514 13.728C306.898 14.024 307.378 14.172 307.954 14.172C308.746 14.172 309.322 13.88 309.682 13.296L310.57 13.8C309.978 14.704 309.098 15.156 307.93 15.156C306.986 15.156 306.21 14.86 305.602 14.268C305.01 13.66 304.714 12.904 304.714 12C304.714 11.088 305.006 10.336 305.59 9.744C306.174 9.144 306.93 8.844 307.858 8.844C308.738 8.844 309.454 9.156 310.006 9.78C310.566 10.388 310.846 11.132 310.846 12.012C310.846 12.164 310.834 12.32 310.81 12.48ZM307.858 9.828C307.306 9.828 306.842 9.984 306.466 10.296C306.098 10.608 305.87 11.032 305.782 11.568H309.79C309.702 11.016 309.482 10.588 309.13 10.284C308.778 9.98 308.354 9.828 307.858 9.828ZM317.002 10.032V6.6H318.046V15H317.002V13.968C316.49 14.76 315.734 15.156 314.734 15.156C313.886 15.156 313.17 14.852 312.586 14.244C311.994 13.628 311.698 12.88 311.698 12C311.698 11.128 311.994 10.384 312.586 9.768C313.178 9.152 313.894 8.844 314.734 8.844C315.734 8.844 316.49 9.24 317.002 10.032ZM314.866 14.148C315.474 14.148 315.982 13.944 316.39 13.536C316.798 13.112 317.002 12.6 317.002 12C317.002 11.392 316.798 10.884 316.39 10.476C315.982 10.06 315.474 9.852 314.866 9.852C314.266 9.852 313.762 10.06 313.354 10.476C312.946 10.884 312.742 11.392 312.742 12C312.742 12.6 312.946 13.112 313.354 13.536C313.762 13.944 314.266 14.148 314.866 14.148Z" fill="white" fill-opacity="0.5"/>
<path d="M17 0H20.2252V0.628571H18.9794V4H18.2521V0.628571H17V0Z" fill="white" fill-opacity="0.5"/>
<path d="M24.2222 0H25V4H24.2727V1.14857L22.9258 3.16H22.8372L21.4902 1.14286V4H20.763V0H21.5471L22.8815 2L24.2222 0Z" fill="white" fill-opacity="0.5"/>
</svg>
